<svg width="651" height="405" fill="none" xmlns="http://www.w3.org/2000/svg"><path d="M217.973 293.859c-9.146 6.13-18.997 8.14-27.541 8.14h-4.623v-35.386h2.613c10.855 0 18.2 1.809 20.608 4.224h.209v-9.649h-.209c-2.414 2.301-9.753 3.617-20.608 3.617h-2.613v-32.371h4.121a50.57 50.57 0 0126.236 7.441h.209l-1.404-9.249h-45.147v73.183h46.143l2.209-9.95h-.203zm-94.784-63.233v34.179H93.332v-34.179h-15.98v73.183h15.98v-37.196h29.857v37.196h15.985v-73.183h-15.985zm-67.496 0H1.508L0 241.584h.21c8.043-6.736 12.867-9.15 18.898-9.15h1.509v71.375h15.985v-71.375h1.606c6.032 0 10.757 2.414 18.799 9.15h.21l-1.524-10.958zm345.381 71.576c-14.075 0-21.914-14.68-21.914-36.593 0-21.514 6.737-35.786 21.312-35.786 13.972 0 21.815 14.675 21.815 36.589 0 21.615-6.736 35.79-21.213 35.79zm-1.104 1.607c22.919 0 39.708-14.778 39.708-38.493 0-23.623-16.588-37.095-38.303-37.095-22.92 0-39.708 14.778-39.708 38.492 0 23.623 16.588 37.096 38.303 37.096zm-84.187-32.972c-2.41 0-4.322-.302-5.83-.804v-39.007h5.939c10.655 0 14.977 8.546 14.977 20.106 0 12.266-4.826 19.705-15.079 19.705m3.418-41.422h-25.229v73.182h15.98v-30.752c3.069.377 6.157.577 9.249.6 17.592 0 28.349-8.845 28.349-22.514 0-12.87-9.45-20.501-28.349-20.501m159.761 1.196h-15.985v73.183h15.985v-73.183zm84.278-1.207c1.912 8.042 3.115 17.893 3.115 31.968v17.592l-37.505-49.56h-18.996v.301l6.835 8.845v32.071c0 14.073-1.207 23.924-3.119 31.965h8.244c-1.908-8.041-3.115-17.892-3.115-31.965v-29.453l48.353 62.626h1.305v-42.422c0-14.075 1.207-23.926 3.119-31.968h-8.236zm86.241 1.207h-54.183l-1.508 10.958h.209c8.044-6.736 12.868-9.15 18.899-9.15h1.509v71.375h15.984v-71.375h1.595c6.031 0 10.757 2.414 18.798 9.15H651l-1.512-10.958zM385.454 404.36h4.212v-23.984h-4.212v23.984zm-33.139 0h4.211v-10.108h11.456v10.108h4.213v-23.984h-4.213v9.983h-11.449v-9.973h-4.212l-.006 23.974zm-20.326.419c4.49 0 7.23-1.645 9.732-4.245l-2.707-2.743c-2.056 1.919-3.941 3.084-6.889 3.084-4.592 0-7.916-3.803-7.916-8.498v-.069c0-4.698 3.36-8.468 7.916-8.468 2.743 0 4.799 1.199 6.718 2.981l2.707-3.119c-2.302-2.188-4.969-3.73-9.389-3.73-7.266 0-12.368 5.581-12.368 12.405v.069c0 6.887 5.205 12.343 12.196 12.343m-32.177-3.904c-4.763 0-8.159-3.836-8.159-8.497v-.069c0-4.665 3.329-8.469 8.092-8.469 4.764 0 8.159 3.873 8.159 8.538v.069c0 4.659-3.328 8.428-8.092 8.428zm-.067 3.904c7.368 0 12.573-5.648 12.573-12.401v-.069c0-6.755-5.138-12.343-12.506-12.343s-12.573 5.648-12.573 12.406v.069c0 6.75 5.134 12.342 12.506 12.342m-28.411-.069c5.037 0 8.564-2.669 8.564-7.159v-.094c0-3.974-2.6-5.792-7.673-7.029-4.625-1.098-5.726-1.92-5.726-3.765v-.069c0-1.578 1.444-2.846 3.91-2.846 2.193 0 4.352.858 6.513 2.469l2.261-3.188c-2.433-1.95-5.209-3.013-8.705-3.013-4.763 0-8.188 2.841-8.188 6.954v.069c0 4.425 2.877 5.933 7.981 7.165 4.456 1.03 5.42 1.954 5.42 3.668v.069c0 1.782-1.65 3.016-4.255 3.016-2.945 0-5.28-1.132-7.573-3.119l-2.531 3.015a14.771 14.771 0 0010.002 3.834m87.504-263.796h1.207c-.305-.362-.552-.603-.96-.716-.088.243-.159.461-.247.716zm-26.568-9.291c.441.316.799.578 1.165.837l1.169.814v-3.632l-2.334 1.981m-15.54 14.19l-10.296-.148v.477h.667c2.494.042 4.99.081 7.489.117.628.012 1.255.012 1.868.023.314 0 .356-.157.272-.469m54.892-9.587c-.445 1.341-.887 2.657-1.358 4.062l2.333-.148c-.044-1.356-.09-2.651-.14-3.99l-.837.076m-13.167 3.73c-1.653-.111-3.23-.157-4.828-.191-.163.511-.316.977-.488 1.511 1.709-.084 3.333-.163 4.954-.247.121-.362.224-.67.362-1.073m-7.883 5.74c.162 0 .293.027.419.021 1.931-.086 3.862-.161 5.788-.259 3.311-.176 6.622-.359 9.931-.548 1.282-.074 2.569-.166 3.854-.237.315-.019.51-.134.556-.481l-20.571 1.109c0 .144 0 .259.019.395m8.929-8.859l-4.954.209c-.224.667-.433 1.286-.659 1.968l4.822.182c.26-.767.511-1.518.791-2.359m-57.57 8.727c-.224-.016-.433-.035-.642-.041-.956-.028-1.912-.042-2.868-.082-3.329-.127-6.66-.262-9.992-.406-1.985-.088-3.974-.209-5.955-.314-1.069-.056-2.141-.106-3.21-.169-.305-.017-.541.029-.583.437 7.74.45 15.481.837 23.25 1.027v-.452zm65.335-26.528l.264 1.83c.392 2.837.785 5.672 1.18 8.506a.56.56 0 00.14.362c.264.228.573.398.906.5 0-.209-.015-.393-.034-.565-.227-1.913-.456-3.828-.686-5.744-.15-1.239-.313-2.475-.487-3.709a.91.91 0 00-.247-.557 8.39 8.39 0 00-1.046-.627m.544 10.014l-1.318-10.422-1.255-.576c.115.739.209 1.371.305 2.002.368 2.582.768 5.161 1.082 7.741.083.719.387 1.085 1.023 1.27.019 0 .037 0 .167-.023m-4.565-11.783c.015.159.015.237.027.308.256 1.657.517 3.314.764 4.971.241 1.622.47 3.244.686 4.866a.528.528 0 00.396.506c.209.069.418.157.686.255-.027-.347-.038-.617-.073-.887-.258-2.067-.517-4.14-.785-6.207a109.98 109.98 0 00-.418-2.956.671.671 0 00-.21-.433c-.346-.159-.7-.299-1.062-.418m.627 10.135c-.408-3.539-.836-6.983-1.378-10.401-.442-.146-.818-.272-1.255-.418.023.179.033.269.048.361.336 2.132.677 4.266 1.006 6.398.163 1.058.297 2.121.464 3.175a.884.884 0 00.247.544c.226.157.527.21.877.339m-4.619-11.399c.552 3.479 1.096 6.904 1.642 10.353l1.046.343a264.393 264.393 0 00-1.387-10.311 24.185 24.185 0 00-.688-.23c-.185-.053-.371-.094-.603-.155m-1.977-.548a2.297 2.297 0 00-.015.234c.507 3.077 1.014 6.153 1.523 9.228.153.925.153.925 1.212 1.092-.4-3.412-.877-6.801-1.412-10.213-.44-.117-.862-.224-1.308-.341zm.801 10.041c-.418-3.472-.895-6.84-1.464-10.223l-1.37-.335 1.751 10.251 1.075.303m-1.943-.552c-.015-.209-.019-.339-.038-.467-.403-2.799-.807-5.595-1.211-8.388-.197-1.369-.197-1.369-1.546-1.588-.015 0-.034.01-.09.033.596 3.347 1.198 6.722 1.811 10.148.32.076.668.164 1.074.262m9.303-16.822c.014.191.014.306.033.419l1.136 6.554c.176 1.017.324 2.037.502 3.054a.917.917 0 00.26.54c.327.223.67.421 1.027.594-.034-.33-.048-.575-.086-.818-.18-1.272-.364-2.542-.552-3.812l-.837-5.361a.773.773 0 00-.262-.484c-.366-.249-.769-.439-1.215-.682m-.647-.309c-.462-.191-.918-.381-1.439-.592.015.155.015.228.029.299.168.918.348 1.837.507 2.757.403 2.322.793 4.651 1.203 6.969a.769.769 0 00.255.479c.338.18.687.338 1.046.472-.473-3.522-1.025-6.932-1.603-10.384m-10.644 16.629c.074-.761-1.004-8.159-1.464-10.098l-1.485-.316c.644 3.427 1.276 6.774 1.916 10.171l1.031.243m10.236-7.113c-.023-.278-.023-.468-.054-.659a904.397 904.397 0 00-.799-5.133c-.224-1.4-.469-2.802-.697-4.203a.478.478 0 00-.316-.442 48.767 48.767 0 01-1.226-.418c.034.264.053.45.088.628.293 1.569.599 3.138.883 4.702.285 1.565.548 3.138.837 4.714a.586.586 0 00.209.382c.324.159.674.262 1.082.419m-5.203-11.475c.293 1.513.571 2.864.837 4.22.362 1.931.703 3.866 1.064 5.795a.547.547 0 00.21.374c.341.149.707.241 1.175.391-.579-3.516-1.138-6.903-1.698-10.311-.534-.155-1.004-.297-1.576-.469m-10.087 7.741c.042.255.06.408.092.556.339 1.596.688 3.192 1.008 4.795.289 1.45.544 2.906.818 4.36.036.182.019.418.268.472.312.076.628.136 1.031.224-.454-3.431-.96-6.763-1.583-10.079-.548-.107-1.046-.209-1.634-.328m11.403 2.412c-.596-3.513-1.171-6.904-1.747-10.27-.575-.153-1.046-.358-1.602-.379.674 3.44 1.339 6.829 2.015 10.251.399.119.803.237 1.334.398m6.234-7.586c-.041-.324-.064-.538-.098-.747-.092-.556-.19-1.111-.291-1.673-.433-2.433-.864-4.866-1.309-7.3a.708.708 0 00-.209-.457c-.465-.293-.963-.544-1.528-.854.019.21.019.314.038.404.385 1.908.778 3.811 1.159 5.723.238 1.203.456 2.41.701 3.611.046.237 0 .517.297.659.385.182.757.383 1.24.628m-53.818 16.602c-.358 4.341-.714 8.646-1.067 12.987h.989c.21-.761 1.299-12.552 1.207-12.987h-1.129zm42.151-20.177c.71 3.454 1.402 6.82 2.092 10.211.21.058.419.123.613.175.195.053.433.107.663.164 0-.883-1.52-9.469-1.805-10.224-.395-.098-.812-.209-1.226-.297a2.616 2.616 0 00-.343-.029m-4.676 18.733a162.89 162.89 0 00-1.644-10.041c-.604-.119-1.169-.226-1.763-.339.742 3.418 1.464 6.774 2.196 10.14.398.075.77.153 1.211.236m10.716-27.097c.058.332.088.537.134.738.246 1.182.51 2.358.753 3.542.389 1.883.761 3.765 1.15 5.659.032.148.061.366.157.418a4.97 4.97 0 001.358.508c0-.127 0-.209-.021-.276-.264-1.493-.519-2.989-.793-4.483a442.317 442.317 0 00-.937-4.93c-.034-.176-.111-.42-.239-.492-.472-.243-.975-.43-1.562-.678m-8.159 7.864c.749 3.481 1.477 6.847 2.205 10.223.445.107.868.302 1.355.274-.016-.177-.016-.316-.041-.449-.348-1.994-.695-3.99-1.046-5.986-.21-1.11-.438-2.215-.655-3.324-.034-.176-.038-.362-.257-.408-.488-.106-.98-.209-1.551-.33m5.977-8.621c.184.816.347 1.512.496 2.213.552 2.592 1.096 5.19 1.657 7.778.029.157.115.374.236.418.404.176.837.289 1.324.454-.041-.316-.064-.546-.102-.77-.138-.769-.274-1.533-.418-2.301-.436-2.263-.877-4.516-1.308-6.778a.628.628 0 00-.498-.56c-.431-.118-.849-.283-1.387-.465m-8.125 8.184c.793 3.469 1.56 6.843 2.335 10.209.462.139.936.234 1.416.282-.032-.255-.042-.449-.073-.627-.274-1.517-.536-3.032-.837-4.54-.301-1.508-.605-3.016-.91-4.523-.038-.19-.046-.408-.285-.462-.529-.109-1.062-.209-1.657-.331m10.195-17.02c-.04.03-.074.06-.107.088.13.548.261 1.092.385 1.64l1.784 7.924c.036.168.069.404.187.473.487.289 1.006.53 1.615.837-.149-.772-.266-1.42-.4-2.063l-1.546-7.558c-.042-.21-.084-.418-.307-.53-.542-.267-1.08-.541-1.611-.811m-4.205 8.217c.793 3.538 1.554 6.946 2.322 10.391.477.138.954.283 1.502.442-.027-.251-.04-.442-.077-.628-.331-1.759-.662-3.519-1.009-5.274-.263-1.337-.548-2.67-.818-4.006-.042-.22-.1-.418-.351-.48-.488-.129-.971-.273-1.569-.445m5.914 1.663c-.027-.209-.038-.343-.065-.47-.598-2.835-1.238-5.663-1.77-8.513-.157-.826-.5-1.282-1.288-1.464-.308-.069-.601-.19-.967-.31.073.312.121.52.172.724.33 1.383.669 2.762.997 4.142.377 1.588.735 3.184 1.111 4.772.042.176.124.419.256.477.481.239.987.419 1.554.642m-8.096-2.227c.027.194.027.271.046.347.418 1.76.864 3.519 1.28 5.282.345 1.464.67 2.929 1 4.393.042.188.05.387.297.444.446.104.885.221 1.373.343-.017-.186-.017-.304-.04-.419-.345-1.778-.693-3.556-1.046-5.33-.285-1.395-.599-2.784-.891-4.173-.042-.195-.065-.394-.3-.455l-1.711-.43m-43.25 43.471c.358-4.345.707-8.648 1.065-12.97h-1.839c-.046 4.343-.088 8.642-.129 12.97h.903zm2.006.032c1.195.052 2.302.056 3.519.064l-2.431-10.11a.85.85 0 01-.113.014c-.32 3.314-.644 6.63-.975 10.042m51.803-1.464c-1.718.096-3.364.134-4.986.253l-.837 2.51c.519.456.961.86 1.417 1.255.13.136.3.227.485.26.837-.017 1.674-.078 2.523-.124l1.395-4.15m4.333 3.797c.456-1.366.902-2.707 1.37-4.105l-4.983.274c-.462 1.379-.91 2.72-1.391 4.147l5.004-.316zm-32.083-10.333v8.408c.64.159 3.013.197 3.464.057-.083-2.659-.171-5.32-.259-8.036l-3.205-.418m2.929-8.5c-.05-1.567-.103-3.113-.157-4.742l-4.485 11.855 4.889.64-.237-7.299c-.418-.1-.79-.188-1.236-.291.418-.418.799-.048 1.226-.152m-5.831 16.897a.958.958 0 00.065-.222c0-1.069 0-2.144.028-3.213 0-.289-.157-.419-.348-.561-.855-.64-1.709-1.287-2.569-1.927a1.82 1.82 0 00-.305-.163 5152.502 5152.502 0 01-6.68 5.684l.04.128 9.769.274zm-15.618 4.625c.246.013.433.027.627.027 7.925.023 15.849-.06 23.765-.334 5.873-.21 11.736-.473 17.604-.77 4.578-.237 9.151-.561 13.728-.837.117-.005.234-.018.349-.038.195-.037.348-.161.287-.362a.58.58 0 00-.316-.27.865.865 0 00-.351 0c-1.77.122-3.542.251-5.312.362-3.701.228-7.399.465-11.1.657-3 .161-5.998.292-8.996.394-4.74.163-9.476.334-14.225.418-4.958.092-9.912.098-14.87.121a1.34 1.34 0 00-1.18.628m15.73-17.931h-11.366l8.59 6.195c.548-.465 1.085-.912 1.615-1.37.404-.35.914-.628.874-1.277a.111.111 0 01.023-.052c.227-.453.324-.96.283-1.464 0-.469 0-.938.014-1.402 0-.19-.019-.381-.033-.628m2.567-24.685l.125 20.403a.455.455 0 00.228-.268c.816-2.397 1.634-4.792 2.433-7.196.073-.261.1-.533.08-.803-.103-3.53-.215-7.059-.335-10.586-.015-.502-.048-1.004-.075-1.55h-2.456zm-16.945 41.388c.018.042.033.084.052.125 10.686.016 21.373-.21 32.062-.677l.506-1.536c-.209-.019-.345-.038-.479-.042-2.006-.065-4.017-.131-6.023-.19-3.393-.103-6.786-.201-10.18-.293-4.016-.113-8.031-.209-12.047-.343a1.093 1.093 0 00-.789.297c-.674.59-1.362 1.165-2.048 1.749-.349.301-.705.605-1.046.91m-25.786-.429c.749.036 1.464.078 2.186.096 3.274.099 6.548.21 9.832.274 4.134.084 8.27.126 12.402.191.144.008.289-.012.425-.059a1.11 1.11 0 00.37-.219c.956-.837 1.924-1.649 2.895-2.467.097-.068.201-.123.312-.165-.034-.061-.065-.117-.099-.174-.286 0-.571-.023-.853-.023l-25.688-.249a3.412 3.412 0 00-.525.023 1.375 1.375 0 00-1.238 1.22 12.962 12.962 0 000 1.552m45.114-42.574v-.891c-.061-1.988-.132-3.975-.193-5.967a25200.907 25200.907 0 00-1.094-34.05c-.177-5.555-.358-11.114-.544-16.674-.096-2.93-.18-5.858-.274-8.772-.181-5.678-.365-11.353-.552-17.025-.055-1.646-.111-3.286-.163-4.933a6.63 6.63 0 00-.065 1.17c.019 4.764.041 9.525.065 14.284.083 14.556.169 29.113.257 43.67.054 9.502.105 19.004.153 28.506 0 .228.016.454.023.682h2.387zm-9.337-84.854l-.113-.035a5004.004 5004.004 0 01-42.85 109.597c.316.141.525.103.644-.209.042-.109.094-.209.144-.318 7.475-16.508 14.435-33.227 21.008-50.111a1199.341 1199.341 0 0020.985-58.323c.065-.197.117-.4.174-.6m-6.925 124.08c.419.153.628-.029.86-.224l6.504-5.537c.094-.084.176-.187.278-.298-.106-.087-.175-.154-.251-.209a5415.537 5415.537 0 01-8.648-6.502 1.274 1.274 0 00-.814-.255c-2.046-.008-4.093-.02-6.142-.035-.153 0-.305.018-.477.031a3.686 3.686 0 00-.038 1.575c.887 3.695 1.776 7.391 2.666 11.088.04.131.088.259.144.385h.713m23.234.562l11.768.344c.246-.743.468-1.406.692-2.067.178-.53.209-.534.743-.557 2.182-.083 4.364-.157 6.545-.263 3.603-.178 7.205-.377 10.806-.567.14-.013.28-.034.418-.061v-.837l-31.238-4.104c.086 2.719.17 5.391.258 8.117M335.092 2.239c-.377-.19-.5 0-.588.274-.255.837-.521 1.674-.785 2.51-5.502 17.276-11.478 34.39-17.796 51.386-7.929 21.311-16.435 42.388-25.715 63.153-.075.17-.14.345-.209.521.161-.133.292-.299.385-.487a304.714 304.714 0 006.995-13.31c5.845-11.78 11.042-23.848 15.81-36.101 5.265-13.52 9.987-27.23 14.275-41.093 2.674-8.64 5.182-17.33 7.442-26.092.067-.255.125-.516.186-.765m5.414 109.041c.046 0 .092 0 .138.015.109-.39.228-.777.339-1.17a155.036 155.036 0 004.717-22.234c.461-3.38.781-6.78 1.111-10.177.343-3.538.502-7.086.534-10.64.031-3.554 0-7.1-.111-10.65a143.24 143.24 0 00-.887-12.257 326.476 326.476 0 00-.998-8.01c-.555-3.9-1.255-7.777-2.08-11.63a168.731 168.731 0 00-5.41-19.918c-.225-.655-.468-1.303-.7-1.954-.086.174-.122.37-.103.563.089 2.986.181 5.97.274 8.954.084 2.772.171 5.541.262 8.307l.537 16.443c.099 3.004.187 6.008.283 9.012.182 5.654.367 11.31.552 16.968.09 2.829.174 5.649.266 8.483.182 5.698.368 11.393.556 17.086.108 3.337.218 6.673.331 10.008.01.105.029.21.056.312.663.163.908.357.923.772a.696.696 0 01-.119.491 5.818 5.818 0 01-.795.553c.11 3.499.223 7.079.338 10.658m1.256-97.759c.052.222.098.446.159.668a187.63 187.63 0 013.207 14.137c.719 3.854 1.36 7.724 1.797 11.62.368 3.273.728 6.551.998 9.832.209 2.642.316 5.297.418 7.95.213 5.717.137 11.431-.228 17.141a174.243 174.243 0 01-1.303 13.098 162.57 162.57 0 01-1.839 10.72 161.38 161.38 0 01-4.203 16.122 2.432 2.432 0 00-.115.747c.05 1.91.115 3.822.176 5.734.01.13.027.258.05.385 1.464.377 1.82.396 2.002.122.247.372.837.544 1.83.521-.196-1.226-.399-2.448-.596-3.666a.97.97 0 01.178.377c.184.734.356 1.477.542 2.211.102.419.111.948.376 1.197.266.249.8.209 1.218.303.031 0 .065-.023.161-.06-.312-2.364-.761-4.726-1.201-7.086l.124-.023 1.673 7.276c.628.209.9.259 1.31.209a137.156 137.156 0 00-1.714-9.916c-1.495-.278-2.958-.544-4.409-.812 0-.32.152-.303.32-.274.479.084.96.172 1.439.26.709.129 1.416.265 2.13.389.171.029.395.136.445-.107.544.494 1.274.343 2.002.586a262.729 262.729 0 01-.627-3.241c.126.157.211.344.246.542.21.791.381 1.59.595 2.383.039.144.156.351.278.385.46.13.937.197 1.508.307-.456-2.284-.895-4.481-1.332-6.677l.117-.027 1.596 6.746c.667.241 1.081.316 1.554.274a227.081 227.081 0 00-2.01-10.041l-5.724-1.076c0-.338.178-.28.331-.255l3.106.553c.628.115 1.228.24 1.841.351.159.025.35-.054.484.01.581.287 1.213.302 1.926.459-.263-1.239-.506-2.385-.751-3.532.114.14.192.306.226.484.234.926.46 1.855.701 2.78.038.134.132.328.234.353.519.128 1.03.318 1.634.306-.548-2.532-1.081-5.021-1.617-7.498.274.792.505 1.598.692 2.414.392 1.611.77 3.226 1.162 4.833.037.157.129.376.244.418.471.153.963.249 1.576.398-.754-3.534-1.477-6.935-2.212-10.393l-7.635-1.572c.031-.305.209-.267.38-.232 1.222.239 2.452.465 3.676.712 1.123.228 2.243.474 3.376.723.023-.144.042-.263.057-.37.096.157.148.398.272.435.604.206 1.224.36 1.853.46-.144-.659-.274-1.225-.399-1.792-.126-.567-.241-1.12-.362-1.674a.794.794 0 01.096-.019c.299 1.184.6 2.373.906 3.59.594.163 1.18.333 1.883.525-.548-2.466-1.065-4.811-1.588-7.154.244.617.439 1.252.584 1.9.395 1.63.784 3.26 1.184 4.89.041.178.11.437.238.49.508.209 1.046.366 1.674.569-.14-.678-.256-1.256-.381-1.814-.557-2.55-1.123-5.098-1.674-7.653a.838.838 0 00-.69-.736c-.749-.19-1.481-.456-2.23-.627-1.916-.45-3.839-.869-5.761-1.295-.584-.13-1.17-.233-1.883-.377.186-.14.263-.24.339-.24.175.007.348.032.518.073 3.042.583 6.067 1.196 9.036 2.12.171.057.408-.018.54.072.602.418 1.33.51 2.079.9l-.883-3.923c.13.154.218.34.255.538.247 1.002.492 2.006.749 3.004.046.18.115.418.249.496.567.307 1.166.558 1.848.874-.728-3.186-1.429-6.276-2.13-9.347.101.146.172.31.209.483.674 2.764 1.36 5.525 2.015 8.293.125.523.286.956.818 1.178a.413.413 0 01.246.211.417.417 0 01.021.324c-.236-.13-.46-.255-.742-.406.023.16.029.235.046.308.659 3.027 1.328 6.054 1.973 9.086.098.46.209.855.679 1.077a.33.33 0 01.223.34.324.324 0 01-.043.139c-.175-.086-.339-.163-.533-.261a1.446 1.446 0 000 .228c.609 3.175 1.216 6.354 1.82 9.535a.823.823 0 00.393.604c.193.12.339.268.228.538l-.418-.184a.29.29 0 00-.015.092c.54 3.328 1.085 6.656 1.634 9.985.039.185.13.354.262.49.152.161.32.29.248.55l-.343-.088c.023.247.038.46.067.674.419 3.129.842 6.259 1.27 9.388.038.275.065.534.304.733.098.079.115.259.175.418l-.288.042v.786a39.784 39.784 0 01-.881-.131c-.05-.454-.088-.862-.149-1.256a.702.702 0 00-.163-.405 10.05 10.05 0 00-.883-.576l.224 2.147-.914-.149c-.084-.738-.157-1.464-.247-2.165a.749.749 0 00-.18-.458 6.602 6.602 0 00-.887-.471c.122 1.046.232 1.988.352 2.996l-.931-.149c-.086-.836-.168-1.629-.253-2.422-.105-.931-.107-.931-1.007-1.237-.027-.012-.065.015-.121.03.136 1.15.278 2.301.418 3.527-.355-.055-.627-.092-.918-.138a58.56 58.56 0 01-.107-.852c-.092-.853-.171-1.711-.278-2.558a.76.76 0 00-.224-.5 4.612 4.612 0 00-.868-.347l.502 4.14c-.349-.046-.613-.084-.906-.126-.037-.27-.073-.519-.1-.77-.121-1.083-.234-2.169-.364-3.255a.55.55 0 00-.222-.362 6.106 6.106 0 00-.864-.284c.103.836.209 1.569.287 2.301.077.732.182 1.464.28 2.238l-.91-.106-.533-4.728c-.373-.115-.685-.21-1.069-.325.182 1.687.483 3.268.594 4.912-.348-.046-.607-.079-.881-.119-.193-1.719-.381-3.38-.567-5.048l-1.092-.305c.209 1.795.521 3.472.659 5.23l-.887-.119c-.063-.544-.115-1.046-.169-1.551-.128-1.142-.247-2.284-.392-3.426a.567.567 0 00-.255-.4 5.15 5.15 0 00-.899-.228c.255 1.847.5 3.628.751 5.494a77.972 77.972 0 00-.915-.151c-.209-1.906-.418-3.74-.64-5.602-.418 0-.745-.247-1.142-.164.268 1.883.59 3.743.782 5.674l-.88-.153c-.222-1.954-.442-3.864-.664-5.79l-1.184-.241c.27 2.015.645 3.937.837 5.933l-.872-.144c-.228-2.015-.454-3.975-.682-5.979l-1.245-.251.948 6.125-.906-.136c-.247-2.071-.395-4.127-.743-6.153-.449-.092-.837-.171-1.305-.263.368 2.125.784 4.159 1.017 6.295-.337-.055-.59-.092-.837-.126-.249-2.129-.492-4.196-.732-6.276-.513-.075-.94-.274-1.431-.209.014.153.019.268.037.381l.984 5.288c.037.209.129.45-.019.682l-.705-.102c-.251-2.147-.5-4.272-.747-6.412l-1.686-.308c.506 2.22 1.021 4.347 1.341 6.575l-.797-.098c-.21-2.209-.377-4.364-.753-6.512a14.374 14.374 0 00-2.051-.335c.082 2.452.157 4.843.237 7.27l30.999 4.069c-4.573-41.437-14.964-81.304-30.334-119.916m-6.261 110.188V5.628c-.12.179-.207.378-.256.588a611.207 611.207 0 01-12.005 39.551c-4.996 14.76-10.502 29.324-16.736 43.606-5.057 11.568-10.575 22.909-16.854 33.867-.077.13-.138.268-.232.45l46.083.046zm-51.148 7.215c.095-.11.181-.227.256-.351l2.51-5.41c.057-.122.094-.247.144-.377-.326-.138-.464 0-.581.293-.741 1.843-1.494 3.678-2.243 5.521a1.654 1.654 0 00-.065.335.353.353 0 00-.123.472c.04-.159.073-.32.111-.483m3.51-6.188l-6.937 14.778c-.178-.251-.301-.419-.433-.605 1.923-4.694 3.837-9.382 5.791-14.15-.377 0-.678 0-.975-.042a.527.527 0 01-.488-.502.496.496 0 01.356-.538c.152-.039.308-.056.465-.05h1.081a67.7 67.7 0 00.308-.717c4.945-12.343 9.93-24.67 14.824-37.029a4628.57 4628.57 0 0031.963-83.085 5.265 5.265 0 00.354-2.151l.807-.069c.042-.167.084-.347.132-.56.77-.065 1.527-.095 2.266.209.313.13.418.38.537.654 1.063 2.555 2.149 5.103 3.191 7.67a490.952 490.952 0 0118.936 55.912 470.615 470.615 0 017.113 30.044 411.69 411.69 0 013.103 17.089 607.461 607.461 0 011.805 12.387c.418 3.054.757 6.117 1.132 9.173.033.232.049.467.048.701a.752.752 0 01-.132.487c-.339.306-.255.651-.209 1.067h.47l4.151-.249c.153-.026.309-.026.462 0a.456.456 0 01.266.251.263.263 0 01-.119.31.275.275 0 01-.113.034c-.231.04-.463.066-.697.079l-3.91.249c-.152 0-.305.029-.514.048l.121 3.912c.251 0 .477.011.701 0 .389-.019.776-.073 1.165-.077a.784.784 0 01.854.709c.048.441-.245.803-.747.883-.23.038-.464.052-.697.042-.418-.03-.663.14-.862.52a41.437 41.437 0 01-2.977 4.833 40.207 40.207 0 01-3.797 4.602 1.354 1.354 0 01-.46.336 1.35 1.35 0 01-.556.12c-2.904.116-5.81.254-8.716.367-2.749.11-5.498.21-8.248.301-3.178.098-6.358.209-9.538.263-5.284.099-10.575.21-15.863.233a1912.1 1912.1 0 01-23.711-.105c-4.935-.048-9.87-.192-14.805-.341-3.904-.119-7.799-.301-11.699-.458-.117 0-.232-.015-.405-.029.079-.157.135-.293.209-.419.899-1.37 1.809-2.734 2.688-4.113.226-.349.469-.502.91-.364v1.45a1.29 1.29 0 00-.418.069c-.118.061-.195.209-.348.372.209.036.318.059.419.074.1.014.19.014.332.023.015.146.043.291.084.433.098.274.312.328.554.152a.125.125 0 00.042-.037c.339-.59.885-.496 1.439-.477 4.406.148 8.816.318 13.226.418 6.276.136 12.567.293 18.849.308 8.761.019 17.523-.065 26.286-.155 4.565-.046 9.129-.172 13.696-.314 4.893-.148 9.789-.353 14.682-.535.644-.023 1.289-.055 1.931-.074a.61.61 0 00.673-.498c-29.915 1.283-59.797 1.58-89.684.358.054-.29.091-.582.109-.876.013-1.504 0-3.004 0-4.542.628-.352 1.283-.663 1.883-1.059a3.122 3.122 0 012.065-.504c2.782.188 5.571.306 8.357.44 2.201.098 4.406.196 6.611.265 4.096.122 8.192.23 12.289.324 2.633.057 5.269.051 7.903.099a1.312 1.312 0 001.178-.605 4.186 4.186 0 00-.419-.042c-2.866-.037-5.738-.041-8.604-.111a1821.79 1821.79 0 01-14.981-.437c-2.985-.1-5.966-.251-8.947-.389-1.425-.065-2.845-.153-4.27-.232-.381-.019-.381-.027-.368-.479l12.627.627c0-.487 0-.93.021-1.368a2.17 2.17 0 011.764-2.117c.25-.04.504-.052.757-.037 4.353.037 8.704.076 13.054.117h.678c.046-4.36.088-8.663.129-13.042h-.746c-6.032-.027-12.063-.042-18.092-.075-1.125 0-2.257.102-3.408-.111" fill="#fff"/><path d="M278.062 143.315v2.343c0 .799-.013 1.594 0 2.395a.895.895 0 01-.274.73c-.268.247-.509.525-.862.902v-2.667h-1.295c.158-.273.408-.481.705-.588.46-.228.627-.548.59-1.069-.05-.837-.015-1.674-.015-2.492-.46-.261-.887-.493-1.299-.749-.107-.065-.167-.209-.274-.347.404-.381.393-.902.483-1.389.036-.19.05-.385.101-.575a1.189 1.189 0 011.194-.998 48.498 48.498 0 012.224 0 1.31 1.31 0 011.318 1.234c.037.387.046.776.06 1.165v.628c-.872.483-1.755.971-2.661 1.477m36.958-32.968c-.519-.186-1.046-.377-1.642-.598.052.286.084.473.121.659.419 1.824.83 3.649 1.235 5.474.418 1.883.849 3.766 1.286 5.649.026.188.12.36.264.483.344.161.7.295 1.065.4l-2.329-12.059m-3.828-1.412c.035.209.05.318.073.419l1.728 7.7c.268 1.195.534 2.396.816 3.59a.89.89 0 00.278.534c.341.165.695.301 1.059.408-.021-.168-.027-.241-.04-.314-.381-2.034-.757-4.063-1.142-6.092-.327-1.741-.67-3.481-.986-5.23a.599.599 0 00-.435-.542c-.418-.136-.837-.299-1.351-.485m1.795 11.826c-.04-.251-.059-.442-.092-.628l-1.222-6.661c-.268-1.435-.529-2.87-.803-4.305-.032-.153-.111-.375-.226-.418-.502-.222-1.027-.39-1.607-.603.038.251.052.404.088.552.791 3.529 1.584 7.06 2.379 10.594.253 1.128.259 1.124 1.483 1.477m19.84-4.207a5.306 5.306 0 00-.048-.282 1966.448 1966.448 0 00-2.59-11.462c-.037-.159-.098-.385-.209-.442a8.805 8.805 0 00-1.556-.575c.037.184.056.274.079.366l2.609 10.734c.297 1.226.293 1.23 1.477 1.621.079.021.161.034.242.04m-6.694-13.633c.048.278.071.466.117.648l1.465 6.13c.405 1.684.814 3.368 1.226 5.05.048.209.029.437.297.529.399.134.79.285 1.255.456-.029-.182-.046-.293-.067-.404l-1.722-7.813c-.259-1.161-.51-2.322-.776-3.477-.046-.197-.126-.467-.272-.54-.46-.224-.962-.372-1.529-.584m-2.287-.799c.025.153.034.268.061.375l.879 3.692c.627 2.571 1.23 5.144 1.855 7.715.042.176.126.419.257.479.423.189.855.355 1.295.496-.033-.226-.041-.334-.064-.445-.745-3.42-1.495-6.841-2.249-10.264-.111-.506-.274-.995-.419-1.495l-1.477-.54a.73.73 0 00-.14-.013m10.669 3.538l-.943-4.113c-.59-2.56-1.179-5.12-1.766-7.68-.04-.163-.092-.418-.209-.456a7.084 7.084 0 00-1.64-.575c.044.21.067.366.104.515.595 2.379 1.19 4.757 1.787 7.135.343 1.377.682 2.76 1.046 4.134.054.209.042.477.328.571.4.138.795.287 1.298.469m-12.954-4.435c.05.27.077.456.121.642.486 2.068.974 4.135 1.465 6.201.393 1.673.784 3.334 1.184 5.002.039.161.106.38.23.439.418.197.849.335 1.358.525-.049-.291-.076-.477-.113-.663l-1.634-7.596a227.142 227.142 0 00-.776-3.542.63.63 0 00-.249-.418c-.49-.209-1.005-.387-1.584-.601m2.092 11.925c-.042-.245-.065-.431-.103-.628l-1.585-7.531c-.239-1.146-.471-2.289-.722-3.427-.042-.198-.123-.473-.268-.542-.512-.238-1.063-.405-1.673-.627.056.289.092.479.133.663.808 3.45 1.616 6.897 2.425 10.341.098.418.111.933.37 1.207.26.274.8.355 1.214.519.035 0 .077 0 .209.023m-6.569-13.588c.054.278.075.45.115.617.594 2.564 1.191 5.125 1.789 7.684.274 1.178.542 2.358.837 3.531a.745.745 0 00.269.469c.419.193.837.322 1.354.506-.05-.293-.077-.483-.115-.671l-.628-3.092-1.642-7.95c-.042-.209-.084-.404-.339-.491-.512-.172-1.019-.373-1.621-.594m12.018-18.665c.049.228.063.32.086.418.446 1.755.887 3.51 1.337 5.261.533 2.093 1.063 4.184 1.607 6.276a.761.761 0 00.278.463c.418.209.885.343 1.393.53-.029-.196-.042-.288-.061-.377l-1.23-5.352-1.403-6.083c-.046-.21-.065-.419-.32-.509-.53-.186-1.046-.387-1.687-.627m3.153 23.936c-.054-.29-.077-.462-.115-.627l-2.353-10.307c-.099-.419-.095-.938-.35-1.218s-.784-.385-1.201-.538c-.182-.069-.368-.236-.608-.096.418 1.699.836 3.383 1.255 5.065l1.644 6.694c.054.209.069.419.324.506.442.153.873.325 1.41.523m-13.041 6.651c-.04-.239-.073-.446-.115-.655-.53-2.633-1.063-5.269-1.598-7.908-.21-1.014-.404-2.027-.616-3.035-.041-.21-.052-.431-.311-.519-.544-.19-1.088-.395-1.695-.615.032.234.042.406.08.571.793 3.438 1.59 6.875 2.389 10.312.102.447.117 1.012.399 1.309.283.297.873.381 1.325.557.047-.003.095-.009.142-.017m6.106-20.42c.042.251.057.383.088.512.437 1.798.881 3.592 1.318 5.39l1.44 5.905c.046.18.102.446.228.506.496.246 1.02.431 1.56.553-.046-.243-.071-.419-.109-.58-.486-2.184-.975-4.37-1.464-6.556l-1.031-4.559c-.055-.223-.061-.464-.343-.558-.534-.184-1.059-.385-1.674-.613m2.345 12.067c-.029-.187-.038-.277-.056-.369-.507-2.28-1.013-4.562-1.519-6.847-.333-1.5-.659-3.004-1.006-4.504-.046-.19-.136-.454-.285-.52-.556-.256-1.142-.446-1.816-.7 1.004 4.174 1.983 8.237 2.965 12.304l1.717.627m3.879-10.163c-.021-.153-.025-.247-.048-.343-.507-2.2-1.012-4.404-1.517-6.61-.373-1.611-.748-3.224-1.126-4.84-.039-.156-.119-.372-.236-.418-.594-.255-1.207-.464-1.883-.715.032.182.04.26.055.33.878 3.515 1.76 7.03 2.646 10.544.125.506.303.998.456 1.494l1.481.548c.055.008.111.013.167.014m-13.734 1.741c.065.079.118.167.157.262.354 1.479.716 2.956 1.046 4.437.097.43.268.688.71.799.439.132.871.287 1.295.464-.607-2.893-1.193-5.707-1.783-8.516l.103-.023c.209.836.418 1.659.606 2.49.446 1.882.898 3.765 1.316 5.648a.907.907 0 00.724.78c.389.102.757.274 1.211.441-.042-.263-.065-.454-.106-.627-.751-3.506-1.502-7.012-2.256-10.517-.044-.209-.06-.418-.09-.627.057.122.105.248.145.376.432 1.774.862 3.55 1.291 5.33.468 1.95.928 3.904 1.405 5.858.031.184.13.348.279.46.483.226.993.389 1.583.609-.245-1.134-.464-2.159-.69-3.178-.623-2.875-1.251-5.748-1.883-8.619-.033-.154-.113-.372-.236-.418a14.694 14.694 0 00-1.835-.682c-.023.14-.033.22-.046.297a.853.853 0 00-.582-.565 1520.107 1520.107 0 01-10.357-3.84 1.656 1.656 0 01-.617-.367c.096-.037.199-.117.278-.098.206.056.408.126.605.21l9.702 3.597c.923.343 1.848.682 2.85 1.046-.042-.882-.362-1.659-.375-2.483.176.713.354 1.425.523 2.138a.709.709 0 00.525.615c.502.149.99.352 1.588.57-.418-1.898-.807-3.706-1.203-5.52l.094-.018c.32 1.314.645 2.623.967 3.937.119.477.226.952.355 1.42.034.122.103.287.197.325.569.236 1.147.441 1.824.692-.659-2.94-1.29-5.761-1.926-8.577l.102-.023c.287 1.145.572 2.288.854 3.429.395 1.61.797 3.217 1.18 4.828a.748.748 0 00.569.646c.46.13.901.325 1.445.525-.153-.688-.274-1.272-.418-1.857-.739-3.25-1.484-6.486-2.207-9.749a1.076 1.076 0 00-.785-.872c-4.025-1.465-8.039-2.973-12.056-4.469a31.932 31.932 0 01-.697-.274c.21-.107.297-.19.377-.184.134.026.265.068.389.126 3.905 1.456 7.814 2.908 11.728 4.357.952.35 1.883.75 2.952 1.078-.302-1.653-.737-3.222-.992-4.829.125.456.255.91.374 1.366.274 1.059.557 2.113.808 3.172a.666.666 0 00.489.575c.486.149.952.343 1.532.556-.297-1.569-.682-3.04-1.017-4.522-.335-1.484-.669-2.948-.902-4.448.321 1.213.643 2.433.959 3.65.439 1.674.88 3.348 1.299 5.038a.774.774 0 00.583.628c.404.121.8.282 1.287.458-.18-.808-.335-1.523-.5-2.24-.722-3.139-1.464-6.264-2.161-9.402a1.021 1.021 0 00-.751-.837 3151.358 3151.358 0 01-11.782-4.368c-.209-.08-.419-.172-.762-.312.222-.096.314-.175.394-.16.169.036.335.09.493.16l11.506 4.278c.182.07.371.124.628.21-.084-.431-.153-.802-.224-1.17l.069-.019c.103.292.188.59.255.892a.65.65 0 00.513.554c.491.161.975.343 1.581.56-.472-2.075-.914-4.02-1.355-5.97l.075-.023c.084.282.18.563.255.85.438 1.594.879 3.19 1.302 4.792.096.37.244.628.648.728.372.092.728.251 1.211.419-.801-3.542-1.577-6.984-2.357-10.429l.096-.027c.052.163.117.326.163.493.739 2.605 1.485 5.212 2.205 7.822.116.472.182.954.197 1.44.035.483 0 .975 0 1.606-.389-.86-1.193-.734-1.843-1.142a4.5 4.5 0 00.079.53c.496 1.843.99 3.69 1.508 5.529.188.615.275 1.256.26 1.9a10.18 10.18 0 01-.101 1.52c-.033-.096-.075-.188-.098-.282-.669-2.91-1.343-5.814-1.996-8.724-.098-.441-.274-.724-.73-.837-.456-.113-.864-.301-1.393-.492l.255.984c.963 3.617 1.933 7.23 2.879 10.851.109.418.288.682.719.8.362.095.35.125.419.461l-.837-.232c.195.739.335 1.423.561 2.075.456 1.32.316 2.672.224 4.036-.057-.21-.126-.431-.176-.646-.4-1.75-.81-3.496-1.195-5.25a.833.833 0 00-.627-.719c-.385-.103-.756-.27-1.224-.445.138.55.245.997.36 1.447.897 3.45 1.742 6.918 2.719 10.35.375 1.321.138 2.62.18 3.945a2.218 2.218 0 01-.111-.274c-.209-.837-.418-1.663-.571-2.51a.764.764 0 00-.613-.674c-.33-.092-.65-.237-1.063-.39.051.256.074.419.116.584l2.092 8.218c.166.602.244 1.224.232 1.849-.019.659 0 1.318 0 2.075-.419-.604-1.063-.544-1.638-.791.035.176.06.354.102.53.435 1.74.866 3.481 1.312 5.217.162.603.239 1.225.228 1.849-.019.701 0 1.402-.08 2.126a1.538 1.538 0 01-.115-.251c-.705-3.082-1.416-6.159-2.092-9.238-.102-.454-.292-.72-.742-.837-.32-.084-.628-.209-1.004-.35.033.21.048.346.085.492.931 3.785 1.859 7.571 2.785 11.358a.76.76 0 00.579.627c.152.035.298.091.433.167.074.046.097.172.195.367l-.929-.262c.015.153.038.305.069.456.197.837.383 1.674.615 2.494.232.82.209 1.694.193 2.598-.17 0-.306.023-.49.038-.251-1.094-.489-2.155-.734-3.214-.178-.801-.366-1.596-.536-2.399a.557.557 0 00-.418-.492c-.331-.098-.655-.236-1.092-.399.468 2.223 1.058 4.318 1.531 6.485h-.876c-.038-.117-.099-.255-.134-.4-.438-1.96-.875-3.918-1.297-5.882-.082-.375-.222-.628-.628-.724a9.363 9.363 0 01-.962-.35c.598 2.511 1.171 4.9 1.763 7.348h-.931l-.753-3.427c-.278-1.276-.56-2.55-.837-3.826a.628.628 0 00-.497-.563c-.316-.092-.628-.226-1.021-.375.113.984.418 1.858.6 2.753.182.896.431 1.783.64 2.674.209.891.431 1.816.655 2.772h-.897c-.042-.157-.107-.335-.145-.517-.523-2.422-1.056-4.841-1.54-7.27-.11-.541-.303-.882-.864-.993a7.44 7.44 0 01-.807-.287c.728 3.073 1.425 6.04 2.136 9.059h-.921l-.606-2.848c-.419-2.023-.864-4.039-1.272-6.066a.681.681 0 00-.525-.605c-.331-.098-.651-.228-1.086-.381.784 3.347 1.544 6.611 2.316 9.908h-.914c-.126-.586-.262-1.188-.387-1.793-.549-2.651-1.101-5.305-1.634-7.962a.648.648 0 00-.477-.584c-.35-.106-.693-.242-1.149-.418.795 3.621 1.674 7.142 2.467 10.738h-.914c-.178-.881-.354-1.755-.534-2.632-.536-2.636-1.077-5.269-1.598-7.91-.065-.33-.176-.529-.506-.627-.331-.098-.697-.245-1.147-.408.418 1.992.883 3.883 1.31 5.788.426 1.906.88 3.835 1.332 5.791h-.906a76.585 76.585 0 01-.338-1.63 2968.41 2968.41 0 01-1.908-9.698c-.065-.335-.187-.563-.544-.663-.358-.101-.724-.247-1.174-.406.172.768.316 1.446.473 2.123.729 3.208 1.464 6.416 2.205 9.624.073.226.164.447.274.659-.458.037-.918.064-1.349-.26-.224-.163-.536-.209-.86-.326v.558h-.831a.639.639 0 01-.083-.228c0-.613-.358-.897-.91-1.012-.126-.027-.251-.073-.442-.126.048.274.086.498.128.72.042.222.083.418.134.659h-.879c-.082-.431-.184-.837-.236-1.255a.69.69 0 00-.584-.691 7.687 7.687 0 01-.753-.259c.157.77.297 1.464.45 2.205h-.877c-.111-.613-.266-1.222-.324-1.835-.053-.544-.266-.864-.81-.966a4.935 4.935 0 01-.606-.199c.225 1.046.43 2.006.644 3.008h-.864c-.078-.418-.168-.837-.245-1.28-.094-.536-.19-1.073-.261-1.613a.642.642 0 00-.523-.607c-.279-.071-.54-.19-.91-.326.29 1.314.556 2.542.836 3.818h-.872c-.126-.734-.255-1.481-.381-2.224-.083-.502-.18-1-.245-1.5a.512.512 0 00-.401-.502c-.314-.092-.628-.222-1.034-.37.268 1.592.695 3.062.971 4.602h-.851l-.793-4.851-1.444-.544c.325 1.862.82 3.594 1.147 5.399h-.837c-.13-.822-.255-1.644-.385-2.468-.144-.925-.297-1.85-.418-2.774a.518.518 0 00-.404-.496c-.385-.119-.757-.274-1.239-.454.473 2.111.927 4.117 1.387 6.178h-.836c-.076-.454-.162-.927-.228-1.402l-.628-4.393c-.046-.37-.172-.607-.561-.705-.389-.098-.757-.255-1.255-.431l1.588 6.958h-.837c-.314-2.324-.627-4.651-.952-7.042-1.178-.445-2.37-.895-3.569-1.343.084-.314.245-.259.419-.194l2.246.836c.217.091.439.17.664.237.056.017.14-.065.209-.094.466.535 1.199.539 1.883.901-.107-.849-.21-1.592-.297-2.336l.079-.013c.159.678.343 1.347.469 2.033a.645.645 0 00.483.576c.385.117.761.265 1.23.431-.222-1.504-.435-2.929-.644-4.339l.111-.021.613 2.694c.115.511.209 1.03.353 1.54a.673.673 0 00.274.396c.385.175.793.297 1.295.474-.381-2.391-.747-4.694-1.111-6.993.03 0 .061-.013.094-.019.21.902.419 1.803.613 2.707.312 1.385.628 2.772.927 4.165a.6.6 0 00.46.525c.327.103.643.233 1.046.381-.521-3.125-1.025-6.157-1.527-9.184l.107-.023c.161.697.328 1.389.479 2.092.519 2.301 1.046 4.603 1.527 6.904a.735.735 0 00.561.648c.278.08.544.186.914.318-.667-3.985-1.322-7.88-1.977-11.773.07.134.13.274.18.418.586 2.623 1.169 5.245 1.751 7.866.243 1.104.479 2.209.734 3.309.046.21.027.475.329.567.301.092.65.237 1.046.385-.028-.24-.038-.408-.069-.571l-.879-4.947c-.358-2.013-.72-4.025-1.071-6.038a.631.631 0 00-.479-.579c-.358-.097-.688-.268-1.046-.373a1.979 1.979 0 00-.498-.031c-.092-.266-.347-.293-.561-.37-1.806-.674-3.614-1.345-5.424-2.013-.195-.077-.389-.161-.682-.282.178-.097.27-.191.345-.18.171.037.339.091.5.161 1.699.632 3.397 1.259 5.094 1.883.198.084.412.126.627.123.187 0 .377.228.58.322.203.094.469.186.707.274.18.065.366.124.64.209-.098-.64-.182-1.202-.265-1.765.025 0 .052-.013.083-.017.117.5.255.998.35 1.502a.595.595 0 00.445.536c.465.148.914.328 1.465.529-.283-1.557-.549-3.042-.814-4.527a.663.663 0 00.086-.019c.123.502.249 1.004.361 1.513.21.889.419 1.78.595 2.679a.769.769 0 00.61.682c.387.107.764.266 1.256.442-.471-2.525-.929-4.962-1.381-7.4l.088-.018c.318 1.394.637 2.789.958 4.184.232 1.006.473 2.01.682 3.025a.61.61 0 00.46.525c.404.125.801.284 1.31.472-.628-3.313-1.255-6.531-1.883-9.748l.102-.023c.24 1.036.482 2.072.724 3.106.479 2.111.963 4.22 1.431 6.333.084.374.222.627.628.732.376.109.747.236 1.111.383-.057-.341-.094-.628-.149-.91-.696-3.538-1.401-7.073-2.092-10.615a.902.902 0 00-.671-.757c-2.889-1.046-5.772-2.134-8.659-3.207-.209-.076-.419-.168-.757-.308.223-.092.32-.171.403-.16.171.039.337.094.498.162a5101.8 5101.8 0 008.328 3.092c.195.073.396.278.628.088.019-.014.073-.025.084-.014.502.627 1.305.57 2.046.989-.189-.966-.352-1.797-.511-2.628l.103-.023c.163.697.357 1.392.487 2.092.088.454.281.72.743.837.426.13.845.281 1.255.456a3.838 3.838 0 00-.042-.502c-.282-1.374-.571-2.749-.853-4.123a4.601 4.601 0 01-.063-.523l.058.025z" fill="#fff"/><path d="M333.73 59.11c-.195-.944-.367-1.785-.542-2.626l.123-.027c.209.724.433 1.446.642 2.17.111.38.191.761.682.836.074 0 .118.16.222.302h-.443c-.026.029-.053.044-.049.052.321 1.17.601 2.339.392 3.609a1.4 1.4 0 01-.13-.274c-.232-1.028-.479-2.049-.665-3.084a.896.896 0 00-.663-.766 2065.898 2065.898 0 01-11.716-4.345c-.209-.075-.464-.084-.579-.316.088-.257.259-.154.389-.108.552.196 1.096.405 1.644.608 3.357 1.256 6.716 2.503 10.075 3.743l.628.224m-9.13-14.914c.172.054.32.088.464.142l9.243 3.442c.192.073.494.058.471.453a1.46 1.46 0 01-.316-.05c-3.194-1.18-6.385-2.365-9.573-3.556-.149-.057-.433-.05-.289-.435m-27.26 72.791c.468 1.977.941 3.951 1.42 5.979h-.789a78.002 78.002 0 01-.627-5.979m37.409-80.256c-.837-.303-1.592-.581-2.353-.864-1.385-.514-2.772-1.027-4.153-1.55-.147-.056-.439-.041-.297-.4.104.008.207.027.307.055 2.042.753 4.085 1.51 6.128 2.272.178.07.433.088.368.487zm-39.037 81.747l1.134 4.481h-.764c-.161-1.495-.32-2.976-.481-4.458l.111-.023zm35.488-95.006c1.172.465 2.36.933 3.544 1.408.023.013.017.107.032.21a.939.939 0 01-.279 0 362.896 362.896 0 01-3.121-1.157c-.169-.065-.418-.111-.176-.45m-36.265 99.487h-.709l-.265-3.065.113-.023c.282 1.013.569 2.029.861 3.088m39.73-68.111c-.186-.927-.368-1.852-.554-2.776.418.878.822 1.765.554 2.776zm-42.22 66.49c.172.52.347 1.046.538 1.615-.209.014-.362.02-.582.033-.027-.561-.054-1.09-.077-1.621.042 0 .079-.021.121-.027zm25.396-26.657c-.078-.293-.149-.587-.226-.88a1.1 1.1 0 00.119-.02c.034.306.065.608.094.91l.013-.01m43.541-17.19c-.534-.288-1.046-.585-1.578-.855a20.108 20.108 0 00-4.424-1.638c-1.923-.475-3.869-.877-5.804-1.306-.209-.05-.418-.096-.608-.142-.057-.326.115-.297.305-.257.898.178 1.801.339 2.695.525 2.343.494 4.665 1.073 6.882 2.002.774.303 1.519.677 2.224 1.117.19.126.418.21.308.554m-12.15-14.353c.14.002.28.013.418.032 2.461.506 4.898 1.1 7.21 2.108.497.21.981.469 1.464.737.144.08.236.25.437.475a1.19 1.19 0 01-.284-.02c-2.071-1.215-4.341-1.899-6.649-2.478-.736-.182-1.481-.327-2.219-.492-.176-.042-.4-.033-.362-.362m-.351-9.91c.682.16 1.289.29 1.883.442 1.518.359 2.991.885 4.393 1.569.209.109.483.186.419.54a.502.502 0 01-.162-.028c-1.882-1.031-3.924-1.587-5.993-2.075-.197-.044-.49.017-.529-.448m-6.35 75.54l-.745-.079c-.069-1.157-.134-2.301-.209-3.427.046 0 .088-.012.13-.019.266 1.143.529 2.289.818 3.525m5.554-85.872c1.295.33 2.556.782 3.765 1.351.209.099.366.21.316.515-.138-.065-.255-.121-.374-.167l-3.331-1.255c-.167-.07-.473-.032-.374-.446m.448-9.077c-.604-.26-1.134-.492-1.673-.714a.263.263 0 01-.174-.131.268.268 0 01-.017-.218c.933.167 1.691.575 1.858 1.063" fill="#fff"/></svg>