<svg width="272" height="127" fill="none" xmlns="http://www.w3.org/2000/svg"><path d="M91.073 122.78c-3.821 2.561-7.937 3.401-11.507 3.401h-1.931v-14.785h1.091c4.536 0 7.605.756 8.61 1.764h.088v-4.031h-.087c-1.009.962-4.075 1.512-8.61 1.512h-1.093V97.115h1.722a21.127 21.127 0 0110.962 3.109h.088l-.587-3.864H70.956v30.577h19.28l.922-4.157h-.085zM51.471 96.36v14.281H38.996V96.36h-6.677v30.577h6.677v-15.541h12.475v15.541h6.679V96.36h-6.68zm-28.201 0H.63L0 100.938h.087c3.361-2.814 5.377-3.823 7.897-3.823h.63v29.822h6.679V97.115h.671c2.52 0 4.495 1.009 7.855 3.823h.087l-.636-4.578zm144.307 29.906c-5.881 0-9.156-6.134-9.156-15.29 0-8.989 2.814-14.952 8.904-14.952 5.838 0 9.115 6.132 9.115 15.288 0 9.031-2.815 14.954-8.863 14.954zm-.462.671c9.576 0 16.591-6.175 16.591-16.083 0-9.87-6.931-15.5-16.004-15.5-9.576 0-16.59 6.175-16.59 16.084 0 9.87 6.93 15.499 16.003 15.499zm-35.174-13.776c-1.007 0-1.806-.126-2.436-.336V96.527h2.481c4.452 0 6.258 3.57 6.258 8.401 0 5.124-2.017 8.233-6.301 8.233m1.428-17.307H122.83v30.577h6.677v-12.849c1.282.157 2.573.241 3.864.251 7.351 0 11.845-3.696 11.845-9.407 0-5.377-3.948-8.566-11.845-8.566m66.751.5h-6.679v30.577h6.679V96.36zm35.213-.504c.799 3.36 1.301 7.476 1.301 13.356v7.351l-15.67-20.707h-7.937v.126l2.856 3.695v13.4c0 5.88-.504 9.996-1.303 13.356h3.444c-.797-3.36-1.301-7.476-1.301-13.356v-12.306l20.202 26.166h.546v-17.725c0-5.88.504-9.996 1.303-13.356h-3.441zm36.033.504H248.73l-.63 4.579h.087c3.361-2.815 5.376-3.824 7.896-3.824h.631v29.822h6.678V97.115h.666c2.52 0 4.495 1.009 7.855 3.824H272l-.632-4.579zM149.929 58.873h.504c-.127-.151-.231-.252-.401-.3-.037.102-.066.193-.103.3zm-11.101-3.882l.487.35.489.34v-1.518l-.976.828zm-6.492 5.929l-4.303-.062v.199h.279c1.042.017 2.085.034 3.129.049.263.005.525.005.781.01.131 0 .148-.066.114-.196zm22.934-4.006c-.186.56-.37 1.11-.567 1.697l.975-.062c-.019-.566-.038-1.107-.059-1.667l-.35.032m-5.501 1.558a45.18 45.18 0 00-2.017-.08c-.068.214-.132.409-.204.632.714-.035 1.392-.068 2.07-.103.051-.151.093-.28.151-.449zm-3.293 2.399c.067 0 .122.011.174.009.807-.036 1.614-.068 2.419-.109 1.383-.073 2.766-.15 4.149-.229.536-.03 1.074-.069 1.61-.099.132-.008.213-.055.233-.2l-8.595.463c0 .06 0 .108.008.165m3.73-3.702l-2.069.088-.276.822 2.015.076.33-.986zm-24.053 3.647c-.094-.007-.181-.015-.269-.018-.399-.011-.799-.017-1.198-.034-1.391-.053-2.783-.11-4.175-.17-.829-.036-1.66-.087-2.488-.13-.447-.024-.894-.045-1.341-.071-.128-.007-.226.012-.244.182 3.234.188 6.468.35 9.715.43v-.19zm27.298-11.084l.11.764.493 3.554c.001.056.022.11.059.152.11.095.239.166.378.209 0-.088-.006-.165-.014-.236-.095-.8-.19-1.6-.287-2.4a80.335 80.335 0 00-.203-1.55.382.382 0 00-.103-.233 3.636 3.636 0 00-.437-.262m.227 4.184l-.551-4.355-.524-.24c.048.309.087.573.127.837.154 1.078.321 2.156.452 3.234.035.3.162.453.428.53.008 0 .015 0 .07-.01m-1.908-4.922c.006.066.006.099.012.128.106.693.216 1.385.319 2.077.101.678.196 1.355.286 2.033a.224.224 0 00.166.212c.087.029.174.065.286.106-.011-.145-.015-.258-.03-.37-.108-.864-.216-1.73-.328-2.594a43.193 43.193 0 00-.175-1.235.283.283 0 00-.087-.18 4.305 4.305 0 00-.444-.175m.262 4.234c-.171-1.478-.35-2.917-.576-4.345l-.525-.175c.01.075.014.112.021.15.14.892.283 1.783.42 2.674.068.442.124.886.194 1.327a.367.367 0 00.103.227c.095.066.22.087.366.142m-1.93-4.763l.687 4.325.437.144a111.66 111.66 0 00-.58-4.309 10.787 10.787 0 00-.287-.096c-.077-.021-.155-.039-.252-.064m-.826-.23a.802.802 0 00-.006.099l.636 3.855c.064.386.064.386.506.456a109.564 109.564 0 00-.59-4.267c-.183-.049-.36-.093-.546-.142zm.335 4.196a93.065 93.065 0 00-.612-4.271l-.573-.14.732 4.283.449.127m-.812-.231c-.006-.088-.008-.142-.016-.195l-.506-3.505c-.082-.572-.082-.572-.646-.664-.006 0-.014.005-.037.014l.757 4.24.448.11zm3.887-7.029c.006.08.006.128.014.175l.475 2.739c.073.424.135.851.209 1.276.01.085.049.164.109.225.137.093.28.176.429.248-.014-.138-.02-.24-.036-.341-.075-.532-.152-1.063-.231-1.593l-.349-2.24a.325.325 0 00-.109-.202c-.153-.104-.322-.184-.508-.285m-.27-.13l-.602-.247c.006.065.006.096.012.125.07.384.146.768.212 1.152.169.97.331 1.943.503 2.912.01.077.048.149.106.2.141.076.287.142.437.198a133.818 133.818 0 00-.669-4.34m-4.448 6.949c.031-.318-.419-3.41-.611-4.22l-.621-.131.801 4.25.431.1m4.276-2.971c-.009-.116-.009-.196-.022-.276-.109-.713-.221-1.428-.334-2.145-.094-.584-.196-1.17-.291-1.755a.207.207 0 00-.037-.113.201.201 0 00-.095-.072 19.72 19.72 0 01-.512-.175c.014.11.021.188.036.263.123.655.25 1.31.369 1.964.119.654.229 1.311.35 1.97.007.062.039.12.087.16.136.066.282.109.452.175m-2.174-4.795c.123.632.239 1.197.35 1.763.151.807.294 1.615.445 2.421a.224.224 0 00.087.157c.143.062.296.1.491.163l-.709-4.308a73.32 73.32 0 01-.659-.196m-4.214 3.234c.017.107.025.17.038.233.142.667.288 1.334.421 2.003.121.606.228 1.214.342 1.822.015.076.008.174.112.197.13.032.262.057.431.094a78.067 78.067 0 00-.662-4.212c-.229-.044-.437-.087-.682-.137zm4.764 1.008c-.249-1.468-.489-2.884-.73-4.29-.24-.065-.437-.15-.669-.159.281 1.437.559 2.853.842 4.283l.557.166zm2.605-3.17c-.017-.135-.027-.224-.041-.311a541.839 541.839 0 00-.669-3.749.29.29 0 00-.087-.192c-.194-.122-.402-.227-.638-.356.008.087.008.13.016.168.16.797.325 1.593.484 2.392.099.502.19 1.007.293 1.508.019.1 0 .216.124.276.161.076.316.16.518.262m-22.486 6.937c-.15 1.813-.299 3.612-.446 5.426h.413c.088-.318.543-5.245.505-5.426h-.472zm17.611-8.43c.297 1.442.586 2.849.874 4.266.088.024.175.051.256.073.082.022.181.045.278.068 0-.369-.636-3.956-.755-4.271-.165-.041-.339-.088-.512-.125a1.115 1.115 0 00-.143-.012m-1.954 7.828a67.427 67.427 0 00-.687-4.196c-.253-.05-.489-.094-.737-.142.311 1.429.612 2.83.918 4.237l.506.099m4.477-11.322c.025.139.037.225.056.309.103.493.213.985.315 1.48.162.786.318 1.573.48 2.364.014.062.026.153.066.175.178.098.369.17.567.212 0-.053 0-.087-.008-.115-.111-.625-.217-1.25-.332-1.874a207.47 207.47 0 00-.391-2.06c-.014-.073-.047-.175-.1-.205-.197-.102-.407-.18-.653-.283m-3.409 3.285c.313 1.455.617 2.861.922 4.272.186.044.362.126.566.114-.007-.074-.007-.132-.018-.188-.145-.833-.29-1.666-.437-2.5-.087-.464-.182-.926-.273-1.39-.014-.073-.016-.15-.108-.17l-.647-.138m2.497-3.602c.077.341.145.632.207.925.231 1.083.458 2.169.692 3.25.012.065.048.156.099.175.169.073.35.12.553.19-.017-.133-.027-.229-.043-.322-.057-.322-.114-.641-.174-.962-.182-.946-.367-1.887-.547-2.832a.259.259 0 00-.208-.234c-.18-.05-.355-.118-.579-.194m-3.395 3.42c.331 1.448.652 2.858.975 4.265.193.058.392.097.592.118-.013-.107-.017-.188-.03-.263-.115-.633-.224-1.266-.35-1.896l-.38-1.89c-.016-.08-.02-.17-.119-.193-.221-.046-.444-.088-.692-.138m4.259-7.112c-.017.012-.031.026-.045.037.055.229.11.456.161.685l.746 3.311c.015.07.029.169.078.198.203.12.42.22.674.35-.062-.323-.111-.594-.167-.862l-.646-3.159c-.017-.087-.035-.174-.128-.22-.226-.112-.451-.227-.673-.34zm-1.757 3.434l.97 4.341c.2.058.399.118.628.184-.012-.104-.017-.184-.032-.262-.139-.735-.277-1.47-.422-2.203-.11-.559-.229-1.116-.342-1.674-.017-.092-.042-.175-.146-.2-.204-.054-.406-.115-.656-.186zm2.471.694c-.011-.087-.016-.143-.027-.196-.25-1.185-.518-2.366-.74-3.557-.065-.345-.208-.536-.538-.612-.128-.029-.251-.08-.404-.129l.072.302c.138.578.28 1.154.417 1.731.157.663.307 1.33.464 1.994.017.073.052.175.107.2.201.099.412.174.649.267zm-3.383-.93c.012.08.012.113.02.145.174.735.361 1.47.535 2.207.144.612.279 1.223.417 1.835.018.079.021.162.124.186.187.043.37.092.574.143-.007-.078-.007-.127-.017-.175a401.94 401.94 0 00-.437-2.227c-.119-.583-.25-1.163-.372-1.744-.018-.081-.027-.164-.125-.19l-.715-.18m-18.071 18.164l.445-5.42h-.768c-.019 1.815-.037 3.611-.054 5.42h.377zm.838.013c.5.022.962.023 1.471.027l-1.016-4.224a.42.42 0 01-.047.006l-.408 4.195m21.644-.612c-.717.04-1.405.056-2.083.106l-.349 1.049c.217.19.401.36.592.525a.37.37 0 00.202.108c.35-.007.7-.032 1.054-.052l.583-1.734m1.811 1.587c.19-.571.376-1.132.572-1.715l-2.082.114-.581 1.733 2.091-.133zm-13.405-4.318v3.513c.267.067 1.259.083 1.447.024a3024.74 3024.74 0 00-.108-3.357l-1.339-.175m1.224-3.551l-.066-1.982-1.874 4.953 2.043.268-.099-3.05c-.175-.042-.33-.078-.517-.121.175-.175.334-.02.513-.064m-2.436 7.06a.49.49 0 00.027-.093c0-.447 0-.896.011-1.343 0-.12-.066-.174-.145-.234-.358-.267-.714-.537-1.073-.805a.812.812 0 00-.128-.068c-.935.797-1.863 1.587-2.791 2.375a.854.854 0 00.017.053l4.082.115zm-6.526 1.932c.103.006.181.012.262.012 3.311.01 6.622-.026 9.929-.14 2.454-.087 4.904-.198 7.356-.322 1.912-.099 3.823-.234 5.735-.35.049-.002.098-.007.146-.015.082-.016.145-.068.12-.151a.238.238 0 00-.132-.113.35.35 0 00-.147 0c-.739.05-1.48.105-2.219.151-1.546.095-3.092.194-4.638.275a197.07 197.07 0 01-3.758.164c-1.981.068-3.96.14-5.944.175-2.072.038-4.141.04-6.213.05a.56.56 0 00-.493.263m6.572-7.492h-4.749l3.589 2.588c.229-.194.454-.381.675-.572.169-.146.382-.263.365-.534a1.156 1.156 0 00.128-.634c0-.195 0-.391.006-.585 0-.08-.008-.16-.014-.262M140.9 41.97l.052 8.525a.19.19 0 00.095-.112c.341-1.002.683-2.003 1.017-3.007a.974.974 0 00.033-.336 927.85 927.85 0 00-.14-4.423c-.006-.21-.02-.42-.031-.647H140.9zm-7.08 17.292l.022.053a297.9 297.9 0 0013.396-.283l.211-.642c-.087-.008-.144-.016-.2-.017a1285.033 1285.033 0 00-6.77-.202c-1.678-.047-3.355-.088-5.034-.144a.46.46 0 00-.329.124c-.282.247-.569.487-.856.731-.146.126-.294.253-.437.38m-10.774-.179c.313.015.612.033.914.04 1.368.041 2.736.088 4.108.115 1.727.035 3.455.052 5.181.08a.454.454 0 00.333-.117c.399-.35.804-.689 1.209-1.03a.599.599 0 01.131-.07l-.042-.072c-.119 0-.238-.01-.356-.01l-10.733-.104a1.454 1.454 0 00-.219.01.579.579 0 00-.518.51 5.398 5.398 0 000 .648m18.85-17.788v-.373c-.026-.83-.055-1.66-.081-2.492l-.113-3.57a8839.7 8839.7 0 00-.344-10.657c-.074-2.321-.15-4.644-.227-6.967-.04-1.224-.075-2.447-.115-3.665-.075-2.372-.152-4.743-.23-7.113-.023-.688-.047-1.373-.069-2.061a2.851 2.851 0 00-.027.488c.008 1.99.017 3.98.027 5.968l.108 18.247c.023 3.97.044 7.94.064 11.91 0 .095.007.19.009.285h.998zm-3.901-35.453l-.048-.015a2092.615 2092.615 0 01-17.903 45.792c.132.058.219.042.269-.088.017-.045.039-.087.06-.133 3.123-6.897 6.031-13.883 8.778-20.937a502.502 502.502 0 008.768-24.369c.027-.082.049-.167.072-.25m-2.893 51.843c.175.063.262-.013.359-.094l2.718-2.313c.039-.036.073-.078.116-.125-.045-.036-.073-.064-.105-.087-1.206-.905-2.411-1.81-3.613-2.717a.533.533 0 00-.34-.106 758.97 758.97 0 01-2.567-.015c-.063 0-.127.008-.199.013-.053.216-.058.44-.016.658l1.114 4.633c.017.054.037.108.06.16h.298m9.708.236l4.916.143.29-.864c.074-.22.087-.222.31-.232.912-.035 1.823-.066 2.735-.11 1.505-.075 3.01-.157 4.515-.237.058-.005.117-.014.174-.025v-.35l-13.051-1.715.107 3.391M140.007.935c-.157-.08-.209 0-.245.115-.107.35-.218.7-.328 1.049-2.299 7.218-4.796 14.369-7.436 21.47-3.313 8.904-6.867 17.71-10.744 26.386-.031.071-.059.145-.087.218a.614.614 0 00.16-.204 126.683 126.683 0 002.923-5.56c2.442-4.922 4.614-9.965 6.606-15.084a254.18 254.18 0 005.964-17.17 237.65 237.65 0 003.109-10.901c.028-.107.053-.216.078-.32m2.262 45.56c.02 0 .039 0 .058.005.046-.162.095-.324.142-.488a64.857 64.857 0 001.971-9.29c.192-1.412.326-2.833.464-4.252.143-1.478.21-2.96.223-4.446.013-1.485 0-2.966-.047-4.45a59.709 59.709 0 00-.37-5.121 134.435 134.435 0 00-.417-3.347 71.496 71.496 0 00-.869-4.859 70.629 70.629 0 00-2.26-8.322c-.095-.274-.196-.544-.293-.816a.434.434 0 00-.043.235c.037 1.247.075 2.494.115 3.74.034 1.16.071 2.316.109 3.472l.224 6.87c.042 1.255.078 2.51.118 3.765l.231 7.09.111 3.544a8264.083 8264.083 0 00.371 11.32.82.82 0 00.023.13c.277.07.38.15.386.323a.289.289 0 01-.05.206 2.396 2.396 0 01-.332.23l.141 4.454m.525-40.846c.022.093.041.187.066.28.525 1.95.968 3.921 1.34 5.906a67.42 67.42 0 01.751 4.855c.154 1.368.304 2.738.417 4.108a83.46 83.46 0 01.175 3.322 70.999 70.999 0 01-.095 7.162 72.746 72.746 0 01-.545 5.472 67.55 67.55 0 01-2.524 11.216.997.997 0 00-.048.312c.021.798.048 1.597.073 2.395.004.054.011.108.021.161.612.158.761.166.837.051.103.156.349.227.764.218-.082-.513-.167-1.023-.249-1.532a.42.42 0 01.075.158c.076.306.148.617.226.923.043.175.046.396.157.5.111.104.334.088.509.127.013 0 .027-.01.067-.025-.13-.988-.318-1.975-.501-2.96l.051-.01.699 3.04c.263.087.376.108.548.087a58.065 58.065 0 00-.716-4.143c-.625-.116-1.236-.227-1.843-.34 0-.133.064-.126.134-.114.2.035.401.072.601.109.297.054.592.11.89.162.072.013.165.057.186-.044.228.206.533.143.837.245a96.34 96.34 0 01-.262-1.354.513.513 0 01.103.226c.087.33.159.664.248.996.016.06.065.146.116.16.192.055.392.083.63.129l-.556-2.79.049-.011.666 2.818c.279.1.452.132.65.115a95.765 95.765 0 00-.84-4.196l-2.392-.449c0-.142.075-.117.139-.107l1.298.231c.262.048.513.1.769.147.066.01.146-.023.202.004.243.12.507.126.805.192l-.314-1.476a.46.46 0 01.094.202c.098.388.193.776.293 1.162.016.056.055.137.098.148.217.053.43.133.683.127l-.676-3.132c.115.33.211.667.289 1.008.164.673.322 1.348.485 2.02.016.065.055.157.103.174.196.064.402.104.658.166l-.924-4.342-3.19-.657c.013-.127.087-.111.159-.097.51.1 1.024.194 1.535.298.47.095.937.198 1.411.302l.024-.155c.04.066.062.166.113.182.253.086.512.15.775.192l-.167-.749c-.053-.236-.101-.467-.151-.699a.298.298 0 01.04-.008c.125.495.251.991.378 1.5.249.068.493.14.787.22l-.663-2.99c.102.258.183.523.243.794.166.682.328 1.363.495 2.043.018.075.046.183.1.205.212.087.437.153.699.238-.058-.284-.107-.525-.159-.758-.233-1.066-.469-2.13-.699-3.197a.35.35 0 00-.289-.308c-.313-.08-.619-.19-.931-.262-.801-.188-1.604-.363-2.408-.541-.244-.055-.488-.097-.786-.158.077-.058.11-.1.141-.1.073.003.146.013.217.03 1.271.244 2.535.5 3.775.887.072.023.171-.008.226.03.251.174.556.213.868.375l-.368-1.639a.485.485 0 01.106.225c.103.419.206.838.313 1.255.019.075.048.175.104.207.237.129.487.234.772.366l-.89-3.906c.042.061.072.13.088.202.281 1.155.568 2.309.841 3.465.053.219.12.4.342.492a.183.183 0 01.061.034.178.178 0 01.051.19c-.099-.054-.192-.107-.31-.17.009.067.012.098.019.129.275 1.265.555 2.53.824 3.796.041.192.088.357.284.45a.14.14 0 01.085.083c.007.019.01.039.008.06a.12.12 0 01-.018.057c-.073-.036-.141-.068-.222-.11a.506.506 0 000 .096c.254 1.327.508 2.655.76 3.984a.346.346 0 00.164.253c.081.05.142.112.096.224l-.175-.076a.125.125 0 00-.006.038c.225 1.39.453 2.781.682 4.172a.424.424 0 00.11.204c.063.068.133.122.104.23l-.144-.036c.01.103.016.192.028.281.175 1.308.352 2.615.531 3.923.015.114.027.223.126.306.042.033.049.108.074.175l-.121.017v.329a20.307 20.307 0 01-.368-.055c-.021-.19-.036-.36-.062-.525a.294.294 0 00-.068-.17 4.263 4.263 0 00-.369-.24l.094.897-.382-.062c-.035-.308-.066-.612-.103-.905a.315.315 0 00-.076-.19 2.764 2.764 0 00-.37-.198l.147 1.252-.389-.062c-.036-.35-.07-.68-.106-1.012-.044-.39-.045-.39-.42-.517-.012-.005-.028.006-.051.013.057.48.116.961.175 1.473-.149-.023-.263-.038-.384-.058a16.854 16.854 0 01-.045-.355c-.038-.357-.071-.715-.116-1.07a.317.317 0 00-.093-.208 1.957 1.957 0 00-.363-.145l.21 1.73-.379-.053c-.016-.113-.03-.217-.042-.321-.051-.453-.098-.907-.152-1.36a.223.223 0 00-.093-.151 2.55 2.55 0 00-.361-.12c.043.35.088.656.12.962.033.306.076.612.117.935l-.38-.044-.223-1.976c-.155-.048-.286-.087-.446-.135.076.704.201 1.365.248 2.052-.145-.02-.254-.033-.368-.05l-.237-2.109-.456-.128c.087.75.217 1.451.275 2.185l-.371-.05a64.481 64.481 0 01-.07-.647c-.054-.477-.104-.955-.164-1.432a.241.241 0 00-.106-.167 2.145 2.145 0 00-.376-.095c.106.772.209 1.516.313 2.295a29.805 29.805 0 00-.382-.063 231.06 231.06 0 00-.267-2.34c-.175 0-.311-.104-.477-.069.112.787.246 1.564.327 2.371l-.368-.064-.277-2.42-.495-.1c.113.842.269 1.645.35 2.48l-.365-.061c-.095-.842-.19-1.661-.285-2.498l-.52-.105.396 2.56-.379-.058c-.103-.865-.165-1.724-.31-2.57a40.2 40.2 0 00-.545-.11c.154.888.328 1.737.425 2.63a13.527 13.527 0 00-.35-.053l-.306-2.622c-.214-.032-.392-.115-.598-.088.006.064.008.112.016.16l.411 2.21c.015.087.054.187-.008.284l-.295-.043c-.105-.896-.209-1.785-.312-2.679l-.704-.128c.211.927.426 1.816.56 2.747l-.333-.041c-.087-.923-.157-1.823-.315-2.721a6.06 6.06 0 00-.856-.14l.098 3.037 12.953 1.7c-1.911-17.312-6.253-33.97-12.675-50.102m-2.616 46.038V2.351a.736.736 0 00-.106.246 254.948 254.948 0 01-5.017 16.525c-2.087 6.167-4.387 12.252-6.992 18.22-2.113 4.833-4.419 9.572-7.042 14.15-.032.054-.057.112-.097.188l19.254.02zm-21.37 3.015c.04-.046.075-.095.107-.147l1.049-2.26c.023-.051.039-.104.06-.158-.136-.057-.194 0-.243.123-.31.77-.624 1.536-.937 2.306a.665.665 0 00-.027.14.147.147 0 00-.065.089.148.148 0 00.013.109c.017-.067.031-.134.047-.202m1.466-2.586l-2.898 6.175-.181-.253 2.419-5.912c-.157 0-.283 0-.407-.017a.219.219 0 01-.204-.21.205.205 0 01.033-.14.203.203 0 01.116-.085.654.654 0 01.194-.02h.452l.128-.3c2.067-5.158 4.15-10.308 6.194-15.472 4.563-11.528 9.014-23.1 13.355-34.715.112-.286.162-.592.148-.898l.337-.03c.018-.069.035-.144.055-.233.322-.027.638-.04.947.087.131.054.175.16.225.274.444 1.067.897 2.132 1.332 3.204a205.167 205.167 0 017.913 23.361 196.56 196.56 0 012.971 12.553c.479 2.37.918 4.75 1.297 7.14.272 1.722.517 3.449.754 5.176.175 1.276.316 2.556.473 3.833.014.096.021.194.02.292a.314.314 0 01-.055.204c-.142.128-.107.272-.087.446h.196l1.734-.104a.58.58 0 01.194 0 .194.194 0 01.111.105.117.117 0 01.004.049.11.11 0 01-.101.094 2.497 2.497 0 01-.292.033l-1.633.104c-.064 0-.128.013-.215.02l.05 1.635c.105 0 .2.004.293 0 .163-.008.325-.03.487-.032a.33.33 0 01.357.296c.02.184-.102.336-.312.369a1.418 1.418 0 01-.291.017c-.175-.012-.277.059-.36.218-.368.7-.784 1.375-1.244 2.019a16.846 16.846 0 01-1.587 1.923.57.57 0 01-.425.19c-1.213.049-2.427.106-3.641.154-1.148.046-2.297.088-3.446.125-1.328.041-2.657.088-3.985.11-2.208.042-4.419.088-6.628.097-3.303.006-6.606-.008-9.907-.043-2.062-.02-4.124-.08-6.186-.143-1.631-.05-3.259-.125-4.888-.191-.049 0-.097-.006-.169-.012.033-.066.056-.123.087-.175.376-.573.756-1.143 1.123-1.719.095-.146.196-.21.38-.152v.606a.535.535 0 00-.174.029c-.049.025-.082.087-.145.155.087.015.132.025.174.031.042.006.08.006.139.01.007.06.018.122.035.18.041.115.13.138.232.064a.049.049 0 00.017-.015c.142-.247.37-.207.602-.2 1.841.063 3.683.133 5.526.175 2.622.057 5.25.123 7.875.129a874.27 874.27 0 0010.983-.065c1.907-.02 3.814-.072 5.722-.131 2.045-.062 4.09-.148 6.135-.224.269-.01.538-.023.806-.03a.255.255 0 00.282-.209c-12.499.536-24.985.66-37.472.15a3.01 3.01 0 00.046-.366c.005-.629 0-1.255 0-1.898.262-.147.536-.277.786-.442.254-.17.56-.244.863-.21 1.163.078 2.328.127 3.492.183.92.04 1.841.082 2.762.11 1.712.051 3.423.097 5.134.136 1.101.024 2.202.021 3.303.041a.543.543 0 00.492-.252 1.757 1.757 0 00-.175-.018c-1.198-.016-2.398-.017-3.595-.046a766.492 766.492 0 01-6.259-.183c-1.248-.042-2.493-.105-3.739-.162-.595-.027-1.189-.064-1.784-.097-.159-.008-.159-.012-.154-.2l5.276.262c0-.204 0-.39.009-.572a.901.901 0 01.737-.884c.104-.017.211-.023.316-.016l5.455.049h.283l.054-5.45h-.312c-2.52-.01-5.04-.017-7.559-.03-.47 0-.943.042-1.424-.047" fill="#fff"/><path d="M116.179 59.88v.978c0 .334-.005.667 0 1.001a.373.373 0 01-.114.305c-.112.104-.213.22-.361.377v-1.114h-.541a.564.564 0 01.295-.246c.192-.095.262-.229.246-.447-.021-.35-.006-.699-.006-1.04-.192-.11-.37-.207-.542-.314-.045-.027-.07-.087-.115-.145.169-.159.164-.376.202-.58.015-.08.021-.16.042-.24a.495.495 0 01.499-.417c.31-.006.619-.008.929 0a.549.549 0 01.551.515c.016.162.019.325.025.487v.263c-.364.201-.733.405-1.112.617m15.442-13.775a58.33 58.33 0 01-.686-.25c.022.12.035.198.051.275.174.762.346 1.525.515 2.288.175.787.355 1.573.538 2.36.011.078.05.15.11.202.144.067.292.123.445.167l-.973-5.038m-1.599-.59c.014.087.02.132.03.174l.722 3.218c.112.499.223 1 .341 1.5a.375.375 0 00.116.223c.143.069.291.126.443.17l-.017-.131c-.159-.85-.317-1.698-.477-2.545-.137-.728-.28-1.455-.412-2.186a.248.248 0 00-.182-.226c-.175-.057-.349-.125-.564-.203m.749 4.941c-.016-.105-.024-.184-.038-.262l-.51-2.783c-.112-.6-.222-1.2-.336-1.799-.013-.063-.046-.156-.094-.175-.21-.092-.43-.162-.672-.251.016.105.022.168.037.23.33 1.475.662 2.95.994 4.427.106.47.108.47.619.617m8.29-1.758a2.951 2.951 0 00-.02-.118l-.454-2.025c-.208-.921-.417-1.843-.628-2.764-.016-.066-.041-.16-.087-.184a3.684 3.684 0 00-.651-.24l.033.152 1.09 4.485c.125.512.123.514.618.678a.557.557 0 00.101.016m-2.797-5.696c.02.116.03.195.049.27l.612 2.562c.169.704.34 1.407.512 2.11.02.087.012.183.124.22.167.057.33.12.524.192l-.027-.17-.72-3.264c-.108-.485-.213-.97-.324-1.453-.019-.082-.053-.194-.114-.225-.192-.094-.402-.156-.639-.244m-.955-.334c.01.064.014.112.025.157l.367 1.542c.263 1.075.514 2.15.776 3.224.017.073.052.175.107.2.177.079.357.148.541.207-.014-.094-.017-.14-.027-.186a1739.12 1739.12 0 00-.939-4.288c-.047-.212-.115-.416-.175-.625l-.617-.226a.302.302 0 00-.059-.005m4.458 1.478l-.394-1.718-.738-3.209c-.017-.068-.039-.175-.087-.19a2.96 2.96 0 00-.686-.24c.019.087.028.152.044.214l.746 2.982c.144.575.285 1.153.437 1.727.023.087.018.2.138.238.167.058.332.12.542.196m-5.413-1.853c.021.113.033.19.051.269.203.864.407 1.727.612 2.59.164.7.328 1.393.495 2.09.016.068.044.16.096.184.175.082.355.14.567.22-.02-.122-.031-.2-.047-.278l-.683-3.174a89.104 89.104 0 00-.324-1.48.267.267 0 00-.104-.175c-.205-.087-.42-.161-.662-.25m.874 4.982c-.017-.102-.027-.18-.043-.262l-.662-3.147c-.1-.479-.197-.956-.302-1.432-.017-.083-.051-.197-.112-.226-.214-.1-.444-.17-.699-.262.024.12.039.2.056.277l1.013 4.32c.041.175.047.39.155.505.108.114.334.148.507.217.015 0 .032 0 .087.01m-2.744-5.678c.022.116.031.188.048.258.248 1.07.497 2.141.747 3.21.115.492.226.985.35 1.476a.31.31 0 00.112.196c.175.08.35.134.566.211-.021-.122-.032-.202-.048-.28l-.262-1.292-.686-3.322c-.018-.087-.035-.168-.142-.205-.214-.072-.426-.156-.677-.248m5.021-7.799c.02.095.026.134.036.175.186.733.371 1.467.558 2.198.223.874.444 1.748.672 2.622a.319.319 0 00.116.194c.175.087.37.143.582.22-.012-.08-.017-.12-.025-.157l-.514-2.235-.587-2.542c-.019-.088-.027-.175-.133-.213-.222-.078-.437-.162-.705-.262zm1.317 10.001c-.022-.121-.032-.193-.048-.262l-.983-4.307c-.041-.174-.039-.391-.146-.508-.107-.117-.328-.161-.502-.225-.076-.029-.154-.099-.254-.04l.524 2.116.687 2.797c.023.087.029.175.136.212.184.063.364.135.589.218m-5.449 2.779c-.017-.1-.031-.186-.048-.274l-.668-3.304c-.087-.424-.169-.847-.257-1.268-.017-.087-.022-.18-.13-.217-.227-.08-.455-.165-.708-.257.013.098.017.17.033.239.332 1.436.664 2.872.998 4.308.043.187.049.423.167.547.118.124.365.16.554.233a.498.498 0 00.059-.007zm2.551-8.532c.018.105.024.16.037.214l.551 2.252.601 2.467c.019.075.043.186.095.212.208.102.427.18.652.23-.019-.1-.029-.174-.045-.242l-.612-2.739-.431-1.905c-.022-.093-.025-.194-.143-.233-.223-.077-.442-.16-.699-.256m.979 5.042c-.012-.078-.015-.116-.023-.154l-.635-2.861c-.139-.627-.275-1.255-.42-1.882-.019-.08-.057-.19-.119-.218-.233-.106-.477-.186-.759-.292l1.239 5.14.717.263m1.621-4.246c-.009-.064-.01-.103-.02-.143l-.634-2.763a532.41 532.41 0 00-.47-2.021c-.017-.066-.05-.156-.099-.175-.248-.107-.504-.194-.786-.3.013.077.016.11.022.139.367 1.468.736 2.937 1.106 4.405.052.212.127.417.19.624l.619.23a.517.517 0 00.07.006m-5.738.727a.46.46 0 01.066.109c.147.618.298 1.235.437 1.854.04.18.111.288.296.334.184.055.364.12.541.194-.254-1.209-.498-2.385-.745-3.558l.043-.01c.087.35.175.693.254 1.04.186.787.374 1.573.549 2.36a.378.378 0 00.303.326c.162.043.316.115.506.184-.018-.11-.027-.19-.045-.262-.313-1.465-.627-2.93-.942-4.394-.018-.087-.025-.174-.038-.262.024.051.044.104.061.158.18.74.36 1.483.539 2.227.196.814.388 1.63.587 2.447a.305.305 0 00.117.192c.202.095.415.163.661.255-.102-.474-.194-.902-.288-1.328-.261-1.202-.523-2.402-.787-3.601-.014-.065-.047-.156-.099-.175a6.108 6.108 0 00-.766-.285l-.019.124a.364.364 0 00-.243-.236 632.126 632.126 0 01-4.328-1.605.697.697 0 01-.258-.153c.04-.015.083-.049.117-.04.086.023.17.052.252.087l4.054 1.503c.386.143.772.285 1.191.437-.018-.369-.152-.693-.157-1.037.074.298.148.595.219.893a.297.297 0 00.219.257c.21.062.413.147.663.238-.174-.793-.337-1.548-.502-2.306l.039-.008.404 1.645c.05.2.094.398.149.593.014.051.042.12.082.136.238.099.479.184.762.29-.275-1.229-.539-2.408-.805-3.585l.043-.01c.12.48.239.957.356 1.434.166.673.333 1.344.493 2.017a.317.317 0 00.238.27c.192.054.377.136.604.22-.064-.288-.114-.532-.175-.777-.308-1.357-.619-2.71-.922-4.073a.449.449 0 00-.328-.364c-1.681-.612-3.359-1.242-5.037-1.867l-.291-.115c.087-.045.124-.08.157-.077.056.01.111.029.163.053 1.632.608 3.265 1.215 4.9 1.82.398.146.787.313 1.233.45-.126-.69-.307-1.346-.414-2.017.052.19.107.38.156.57.115.443.233.884.338 1.326a.276.276 0 00.204.24c.203.062.398.144.64.233-.124-.656-.285-1.27-.425-1.89-.139-.62-.279-1.232-.376-1.858.133.507.268 1.016.4 1.525.184.7.368 1.398.543 2.105a.324.324 0 00.244.262c.168.05.334.118.537.191-.075-.337-.14-.636-.209-.936-.301-1.31-.612-2.617-.903-3.928a.422.422 0 00-.313-.35 1265.91 1265.91 0 01-4.923-1.825c-.088-.033-.175-.071-.318-.13.092-.04.131-.073.164-.067.071.015.14.038.206.067l4.808 1.788c.076.029.154.051.262.087l-.094-.489.029-.007c.043.122.079.246.107.372a.271.271 0 00.214.232c.205.067.407.143.661.234l-.567-2.495.032-.01c.035.119.075.236.106.355.183.667.368 1.334.544 2.003.04.155.102.262.271.304.156.039.304.105.506.175l-.985-4.357.04-.012c.022.069.049.137.069.207.308 1.088.62 2.177.921 3.268.048.197.076.398.082.601.015.202 0 .407 0 .671-.163-.359-.498-.306-.77-.477.007.075.018.148.033.221.207.77.414 1.542.63 2.31.079.258.115.526.109.794a4.23 4.23 0 01-.042.636c-.014-.04-.032-.079-.041-.118-.28-1.216-.561-2.43-.834-3.645-.041-.185-.115-.303-.305-.35-.191-.047-.361-.126-.582-.205l.106.41c.402 1.512.808 3.021 1.203 4.534.045.175.121.285.301.334.151.04.146.053.174.194l-.349-.098c.081.309.14.595.234.867.191.552.132 1.117.094 1.687-.024-.088-.053-.18-.074-.27-.167-.731-.338-1.461-.499-2.194a.35.35 0 00-.262-.3c-.161-.043-.316-.113-.511-.186.057.23.102.417.15.605.375 1.44.728 2.89 1.136 4.324.157.552.058 1.095.075 1.648a.924.924 0 01-.046-.114c-.087-.35-.175-.695-.239-1.05a.32.32 0 00-.256-.28c-.138-.04-.272-.1-.444-.163.021.106.031.174.048.243l.874 3.434c.07.251.102.512.097.773-.007.275 0 .55 0 .867-.174-.253-.444-.228-.684-.33.015.073.025.147.043.22.182.728.362 1.455.548 2.18.068.252.1.512.095.773-.008.293 0 .586-.033.888a.666.666 0 01-.048-.105c-.295-1.287-.592-2.573-.874-3.86-.043-.19-.123-.3-.31-.35-.134-.034-.263-.087-.42-.145.014.087.02.144.036.205l1.163 4.745a.31.31 0 00.081.169c.043.047.099.08.161.094a.667.667 0 01.181.07c.031.019.04.071.082.152l-.389-.109c.007.064.016.128.029.19.082.35.16.7.257 1.043.097.342.088.708.081 1.085-.071 0-.128.01-.205.016-.105-.457-.204-.9-.307-1.343-.074-.334-.153-.666-.223-1.002a.242.242 0 00-.055-.13.23.23 0 00-.12-.075c-.138-.042-.274-.1-.456-.168.195.93.442 1.805.639 2.71h-.366c-.016-.049-.041-.107-.056-.167a338.04 338.04 0 01-.542-2.458c-.034-.156-.092-.262-.262-.302a3.846 3.846 0 01-.402-.146c.25 1.049.489 2.047.737 3.07h-.389l-.315-1.432c-.116-.533-.234-1.066-.349-1.599a.264.264 0 00-.209-.235c-.131-.038-.262-.094-.426-.156.047.41.175.776.251 1.15.076.374.18.745.267 1.117l.274 1.158H137c-.018-.065-.045-.14-.06-.216-.219-1.012-.442-2.022-.644-3.037-.046-.227-.126-.369-.361-.415a3.14 3.14 0 01-.337-.12c.304 1.284.595 2.523.892 3.785h-.384l-.254-1.19c-.175-.845-.361-1.688-.531-2.535a.287.287 0 00-.22-.252c-.138-.041-.271-.096-.453-.16l.967 4.14h-.382c-.052-.245-.109-.496-.161-.749-.229-1.107-.46-2.217-.683-3.327a.271.271 0 00-.199-.244c-.146-.044-.29-.1-.48-.174.332 1.513.699 2.984 1.03 4.486h-.382l-.222-1.1c-.224-1.1-.451-2.201-.668-3.304-.027-.138-.074-.221-.212-.262-.138-.042-.291-.103-.479-.17.175.831.369 1.621.547 2.418.179.796.368 1.602.557 2.42h-.378a38.56 38.56 0 01-.142-.682c-.267-1.35-.533-2.7-.797-4.052-.027-.14-.078-.235-.227-.277-.15-.042-.303-.103-.491-.17.072.321.132.604.198.888.305 1.34.612 2.68.921 4.02.031.095.069.187.115.276-.192.015-.384.027-.564-.109-.094-.068-.224-.087-.359-.136v.233h-.347a.252.252 0 01-.035-.095c0-.256-.15-.375-.381-.423-.052-.011-.104-.03-.184-.053l.053.301.056.276h-.367c-.034-.18-.077-.35-.099-.525a.286.286 0 00-.243-.288 3.215 3.215 0 01-.315-.109l.188.922h-.366c-.047-.257-.111-.51-.136-.767-.022-.227-.111-.361-.338-.404a2.093 2.093 0 01-.254-.083c.095.437.18.838.27 1.257h-.361c-.033-.175-.07-.35-.103-.535-.039-.224-.079-.448-.109-.674a.266.266 0 00-.219-.253c-.116-.03-.225-.08-.38-.137.122.55.233 1.062.35 1.596h-.365l-.159-.93c-.035-.21-.075-.417-.102-.626a.216.216 0 00-.168-.21c-.131-.038-.262-.093-.432-.155.112.665.291 1.28.406 1.923h-.356l-.331-2.027-.603-.227c.135.778.343 1.502.479 2.256h-.35c-.054-.344-.106-.687-.161-1.032-.06-.386-.124-.772-.174-1.158a.215.215 0 00-.169-.208c-.161-.05-.317-.114-.518-.19.198.883.388 1.72.58 2.582h-.35c-.031-.19-.067-.387-.095-.586l-.262-1.835c-.019-.155-.072-.254-.234-.295-.163-.041-.317-.107-.525-.18l.664 2.907h-.35l-.398-2.942c-.492-.186-.99-.374-1.491-.561.035-.131.102-.108.175-.081l.939.35c.09.037.183.07.277.098.023.007.058-.027.087-.04.195.224.501.226.787.377-.045-.355-.088-.665-.124-.976l.033-.005c.066.283.143.563.196.85a.268.268 0 00.202.24c.16.049.318.11.514.18l-.27-1.813.047-.009.256 1.126c.048.213.087.43.147.643a.285.285 0 00.115.166c.161.073.331.124.541.198l-.464-2.922c.012 0 .025-.005.039-.008.088.377.175.754.256 1.131.131.579.263 1.158.388 1.74a.25.25 0 00.192.22c.136.043.268.097.437.159l-.638-3.837.044-.01c.068.291.138.58.201.874.216.962.437 1.923.638 2.885a.308.308 0 00.234.27c.116.034.227.078.382.133l-.826-4.919c.029.056.054.115.075.175l.732 3.286c.101.462.2.924.306 1.383.02.088.012.199.138.237.126.039.271.099.437.161-.012-.1-.016-.17-.029-.239l-.367-2.067c-.15-.84-.301-1.682-.448-2.522a.265.265 0 00-.2-.242c-.149-.04-.288-.112-.437-.156a.815.815 0 00-.208-.013c-.038-.111-.145-.123-.234-.155-.755-.281-1.51-.562-2.267-.84l-.285-.119c.075-.04.113-.08.145-.075.071.016.141.038.208.067.71.264 1.42.526 2.129.787a.642.642 0 00.262.052c.078 0 .157.095.242.134.085.04.196.078.296.115.075.027.153.051.267.087l-.111-.738c.011 0 .022-.005.035-.007.049.21.107.417.146.628a.254.254 0 00.057.142.26.26 0 00.129.082c.194.062.382.137.612.22-.118-.65-.229-1.27-.34-1.89a.273.273 0 00.036-.008c.051.21.104.42.151.632.087.37.175.743.248 1.12a.325.325 0 00.255.284c.162.045.32.111.525.184-.197-1.054-.388-2.073-.577-3.091l.037-.008.4 1.748c.097.42.198.84.285 1.264a.252.252 0 00.192.22c.169.052.335.118.548.197-.263-1.385-.525-2.729-.787-4.073l.043-.01.302 1.298c.2.882.402 1.763.598 2.646.035.157.093.262.262.306.158.045.312.099.464.16-.023-.142-.039-.262-.062-.38-.291-1.478-.585-2.956-.874-4.435a.38.38 0 00-.28-.317c-1.207-.437-2.412-.891-3.618-1.34-.088-.031-.175-.07-.317-.128.094-.039.134-.072.169-.068.071.017.141.04.208.069l3.48 1.292c.081.03.165.116.262.036.008-.006.031-.01.035-.006.21.262.545.239.855.414-.079-.404-.147-.751-.213-1.098l.042-.01c.069.291.15.581.204.874.037.19.117.3.31.35.179.054.354.117.525.19a1.476 1.476 0 00-.018-.21l-.356-1.722a2.006 2.006 0 01-.027-.219l.025.01z" fill="#fff"/><path d="M139.438 24.697l-.226-1.097.051-.011c.088.302.181.604.269.906.046.16.079.319.285.35.03 0 .049.066.092.126h-.185c-.011.012-.022.018-.02.022.134.488.251.977.163 1.508a.602.602 0 01-.054-.115c-.097-.43-.2-.856-.278-1.288a.37.37 0 00-.277-.32c-1.632-.6-3.263-1.205-4.895-1.816-.087-.031-.194-.035-.242-.132.037-.107.108-.064.163-.045.23.082.458.17.687.254 1.402.525 2.805 1.046 4.209 1.564l.262.093m-3.814-6.231c.072.023.134.037.194.06l3.862 1.437c.08.031.206.025.196.19a.62.62 0 01-.132-.02c-1.334-.494-2.667-.99-3.999-1.487-.063-.023-.181-.02-.121-.182m-11.39 30.414c.196.826.394 1.65.594 2.498h-.33a32.4 32.4 0 01-.262-2.498m15.63-33.532c-.35-.127-.665-.243-.983-.361-.579-.215-1.158-.43-1.735-.648-.061-.024-.184-.018-.124-.167a.64.64 0 01.128.023c.853.314 1.707.63 2.56.949.075.029.181.037.154.204zM123.56 49.5l.474 1.872h-.319l-.201-1.862.046-.01zm14.828-39.695c.489.194.986.39 1.481.588.009.005.007.044.013.087a.396.396 0 01-.117 0c-.435-.159-.87-.32-1.304-.483-.07-.027-.174-.046-.073-.188m-15.153 41.568h-.296l-.111-1.281.047-.01c.118.424.238.848.36 1.29zm16.6-28.459l-.231-1.16c.174.368.343.738.231 1.16zM122.195 50.7l.225.674-.243.014c-.011-.234-.023-.455-.032-.677.017 0 .033-.01.05-.012zm10.61-11.138l-.094-.368a.48.48 0 00.05-.008c.014.127.027.253.039.38l.005-.004zm18.193-7.182c-.223-.121-.437-.245-.659-.358a8.408 8.408 0 00-1.849-.684c-.803-.199-1.616-.367-2.424-.546-.088-.02-.175-.04-.255-.06-.023-.136.048-.123.128-.107.375.074.752.142 1.126.22.979.206 1.949.448 2.875.836.324.127.635.283.929.467.08.052.175.087.129.231zm-5.076-5.998c.058.001.117.006.175.013 1.028.212 2.046.46 3.012.881.208.088.41.196.612.308.06.033.098.105.182.199a.502.502 0 01-.119-.008c-.865-.508-1.813-.794-2.777-1.036-.308-.076-.619-.136-.928-.206-.073-.017-.167-.013-.151-.15m-.147-4.141c.285.066.539.12.787.184.634.15 1.25.37 1.835.656.088.045.202.078.175.225a.208.208 0 01-.067-.01c-.787-.432-1.64-.664-2.504-.868-.082-.018-.205.007-.221-.187m-2.653 31.562l-.311-.033c-.029-.484-.056-.962-.088-1.432.02 0 .037-.005.055-.008l.341 1.473m2.32-35.879a8.716 8.716 0 011.574.565c.087.04.153.087.132.215-.058-.027-.107-.051-.157-.07l-1.391-.525c-.07-.029-.198-.013-.157-.186m.188-3.793c-.253-.108-.474-.205-.699-.298a.112.112 0 01-.043-.02.124.124 0 01-.03-.035.116.116 0 01-.007-.09c.39.07.706.24.776.443" fill="#fff"/></svg>