<svg width="651" height="405" viewBox="0 0 651 405" fill="none" xmlns="http://www.w3.org/2000/svg">
<path d="M217.973 293.859C208.827 299.989 198.976 301.999 190.432 301.999H185.809V266.613H188.422C199.277 266.613 206.622 268.422 209.03 270.837H209.239V261.188H209.03C206.616 263.489 199.277 264.805 188.422 264.805H185.809V232.434H189.93C199.192 232.465 208.267 235.039 216.166 239.875H216.375L214.971 230.626H169.824V303.809H215.967L218.176 293.859H217.973ZM123.189 230.626V264.805H93.3323V230.626H77.3516V303.809H93.3323V266.613H123.189V303.809H139.174V230.626H123.189ZM55.6931 230.626H1.50833L0 241.584H0.2092C8.25293 234.848 13.0771 232.434 19.1083 232.434H20.6166V303.809H36.6016V232.434H38.2082C44.2395 232.434 48.9653 234.848 57.0069 241.584H57.2161L55.6931 230.626Z" fill="white"/>
<path d="M401.074 302.202C386.999 302.202 379.16 287.522 379.16 265.609C379.16 244.095 385.897 229.823 400.472 229.823C414.444 229.823 422.287 244.498 422.287 266.412C422.287 288.027 415.551 302.202 401.074 302.202ZM399.97 303.809C422.889 303.809 439.678 289.031 439.678 265.316C439.678 241.693 423.09 228.221 401.375 228.221C378.455 228.221 361.667 242.999 361.667 266.713C361.667 290.336 378.255 303.809 399.97 303.809ZM315.783 270.837C313.373 270.837 311.461 270.535 309.953 270.033V231.026H315.892C326.547 231.026 330.869 239.572 330.869 251.132C330.869 263.398 326.043 270.837 315.79 270.837M319.208 229.415H293.979V302.597H309.959V271.845C313.028 272.222 316.116 272.422 319.208 272.445C336.8 272.445 347.557 263.6 347.557 249.931C347.557 237.061 338.107 229.43 319.208 229.43" fill="white"/>
<path d="M478.969 230.626H462.984V303.809H478.969V230.626Z" fill="white"/>
<path d="M563.247 229.419C565.159 237.461 566.362 247.312 566.362 261.387V278.979L528.857 229.419H509.861V229.72L516.696 238.565V270.636C516.696 284.709 515.489 294.56 513.577 302.601H521.821C519.913 294.56 518.706 284.709 518.706 270.636V241.183L567.059 303.809H568.364V261.387C568.364 247.312 569.571 237.461 571.483 229.419H563.247Z" fill="white"/>
<path d="M649.488 230.626H595.305L593.797 241.584H594.006C602.05 234.848 606.874 232.434 612.905 232.434H614.414V303.809H630.398V232.434H631.993C638.024 232.434 642.75 234.848 650.791 241.584H651L649.488 230.626Z" fill="white"/>
<path d="M385.454 404.36H389.666V380.376H385.454V404.36ZM352.315 404.36H356.526V394.252H367.982V404.36H372.195V380.376H367.982V390.359H356.533V380.386H352.321L352.315 404.36ZM331.989 404.779C336.479 404.779 339.219 403.134 341.721 400.534L339.014 397.791C336.958 399.71 335.073 400.875 332.125 400.875C327.533 400.875 324.209 397.072 324.209 392.377V392.308C324.209 387.61 327.569 383.84 332.125 383.84C334.868 383.84 336.924 385.039 338.843 386.821L341.55 383.702C339.248 381.514 336.581 379.972 332.161 379.972C324.895 379.972 319.793 385.553 319.793 392.377V392.446C319.793 399.333 324.998 404.789 331.989 404.789M299.812 400.885C295.049 400.885 291.653 397.049 291.653 392.388V392.319C291.653 387.654 294.982 383.85 299.745 383.85C304.509 383.85 307.904 387.723 307.904 392.388V392.457C307.904 397.116 304.576 400.885 299.812 400.885ZM299.745 404.789C307.113 404.789 312.318 399.141 312.318 392.388V392.319C312.318 385.564 307.18 379.976 299.812 379.976C292.444 379.976 287.239 385.624 287.239 392.382V392.451C287.239 399.201 292.373 404.793 299.745 404.793M271.334 404.724C276.371 404.724 279.898 402.055 279.898 397.565V397.471C279.898 393.497 277.298 391.679 272.225 390.442C267.6 389.344 266.499 388.522 266.499 386.677V386.608C266.499 385.03 267.943 383.762 270.409 383.762C272.602 383.762 274.761 384.62 276.922 386.231L279.183 383.043C276.75 381.093 273.974 380.03 270.478 380.03C265.715 380.03 262.29 382.871 262.29 386.984V387.053C262.29 391.478 265.167 392.986 270.271 394.218C274.727 395.248 275.691 396.172 275.691 397.886V397.955C275.691 399.737 274.041 400.971 271.436 400.971C268.491 400.971 266.156 399.839 263.863 397.852L261.332 400.867C264.069 403.351 267.638 404.72 271.334 404.701" fill="white"/>
<path d="M358.838 140.905H360.045C359.74 140.543 359.493 140.302 359.085 140.189C358.997 140.432 358.926 140.65 358.838 140.905ZM332.27 131.614C332.711 131.93 333.069 132.192 333.435 132.451L334.604 133.265V129.633L332.27 131.614M316.73 145.804L306.434 145.656V146.133H307.101C309.595 146.175 312.091 146.214 314.59 146.25C315.218 146.262 315.845 146.262 316.458 146.273C316.772 146.273 316.814 146.116 316.73 145.804M371.622 136.217C371.177 137.558 370.735 138.874 370.264 140.279L372.597 140.131C372.553 138.775 372.507 137.48 372.457 136.141L371.62 136.217M358.453 139.947C356.8 139.836 355.223 139.79 353.625 139.756C353.462 140.267 353.309 140.733 353.137 141.267C354.846 141.183 356.47 141.104 358.091 141.02C358.212 140.658 358.315 140.35 358.453 139.947M350.57 145.687C350.732 145.687 350.863 145.714 350.989 145.708C352.92 145.622 354.851 145.547 356.777 145.449C360.088 145.273 363.399 145.09 366.708 144.901C367.99 144.827 369.277 144.735 370.562 144.664C370.877 144.645 371.072 144.53 371.118 144.183L350.547 145.292C350.547 145.436 350.547 145.551 350.566 145.687M359.495 136.828L354.541 137.037C354.317 137.704 354.108 138.323 353.882 139.005L358.704 139.187C358.964 138.42 359.215 137.669 359.495 136.828M301.925 145.555C301.701 145.539 301.492 145.52 301.283 145.514C300.327 145.486 299.371 145.472 298.415 145.432C295.086 145.305 291.755 145.17 288.423 145.026C286.438 144.938 284.449 144.817 282.468 144.712C281.399 144.656 280.327 144.606 279.258 144.543C278.953 144.526 278.717 144.572 278.675 144.98C286.415 145.43 294.156 145.817 301.925 146.007V145.555ZM367.26 119.027C367.359 119.715 367.442 120.282 367.524 120.857C367.916 123.694 368.309 126.529 368.704 129.363C368.706 129.497 368.756 129.625 368.844 129.725C369.108 129.953 369.417 130.123 369.75 130.225C369.75 130.016 369.735 129.832 369.716 129.66C369.489 127.747 369.26 125.832 369.03 123.916C368.88 122.677 368.717 121.441 368.543 120.207C368.527 119.998 368.44 119.802 368.296 119.65C367.963 119.416 367.613 119.206 367.25 119.023M367.794 129.037C367.352 125.541 366.912 122.066 366.476 118.615L365.221 118.039C365.336 118.778 365.43 119.41 365.526 120.041C365.894 122.623 366.294 125.202 366.608 127.782C366.691 128.501 366.995 128.867 367.631 129.052C367.65 129.052 367.668 129.052 367.798 129.029M363.233 117.246C363.248 117.405 363.248 117.483 363.26 117.554C363.516 119.211 363.777 120.868 364.024 122.525C364.265 124.147 364.494 125.769 364.71 127.391C364.712 127.507 364.751 127.619 364.823 127.71C364.894 127.802 364.994 127.867 365.106 127.897C365.315 127.966 365.524 128.054 365.792 128.152C365.765 127.805 365.754 127.535 365.719 127.265C365.461 125.198 365.202 123.125 364.934 121.058C364.809 120.073 364.668 119.085 364.516 118.102C364.502 117.937 364.427 117.782 364.306 117.669C363.96 117.51 363.606 117.37 363.244 117.251M363.871 127.386C363.463 123.847 363.035 120.403 362.493 116.985C362.051 116.839 361.675 116.713 361.238 116.567C361.261 116.746 361.271 116.836 361.286 116.928C361.622 119.06 361.963 121.194 362.292 123.326C362.455 124.384 362.589 125.447 362.756 126.501C362.773 126.706 362.86 126.898 363.003 127.045C363.229 127.202 363.53 127.255 363.88 127.384M359.261 115.985C359.813 119.464 360.357 122.889 360.903 126.338L361.949 126.681C361.556 123.186 361.081 119.778 360.562 116.37C360.315 116.284 360.093 116.209 359.874 116.14C359.689 116.087 359.503 116.046 359.271 115.985M357.294 115.437C357.285 115.515 357.28 115.593 357.279 115.671C357.786 118.748 358.293 121.824 358.802 124.899C358.955 125.824 358.955 125.824 360.014 125.991C359.614 122.579 359.137 119.19 358.602 115.778C358.162 115.661 357.74 115.554 357.294 115.437ZM358.095 125.478C357.677 122.006 357.2 118.638 356.631 115.255L355.261 114.92C355.851 118.374 356.43 121.763 357.012 125.171L358.087 125.474M356.144 124.922C356.129 124.713 356.125 124.583 356.106 124.455C355.703 121.656 355.299 118.86 354.895 116.067C354.698 114.698 354.698 114.698 353.349 114.479C353.334 114.479 353.315 114.489 353.259 114.512C353.855 117.859 354.457 121.234 355.07 124.66C355.39 124.736 355.738 124.824 356.144 124.922M365.447 108.1C365.461 108.291 365.461 108.406 365.48 108.519C365.858 110.705 366.237 112.89 366.616 115.073C366.792 116.09 366.94 117.11 367.118 118.127C367.142 118.331 367.233 118.521 367.378 118.667C367.705 118.89 368.048 119.088 368.405 119.261C368.371 118.931 368.357 118.686 368.319 118.443C368.139 117.171 367.955 115.901 367.767 114.631C367.488 112.841 367.209 111.053 366.93 109.27C366.905 109.082 366.812 108.91 366.668 108.786C366.302 108.537 365.899 108.347 365.453 108.104M364.806 107.795C364.344 107.604 363.888 107.414 363.367 107.203C363.382 107.358 363.382 107.431 363.396 107.502C363.564 108.42 363.744 109.339 363.903 110.259C364.306 112.581 364.696 114.91 365.106 117.228C365.13 117.413 365.22 117.583 365.361 117.707C365.699 117.887 366.048 118.045 366.407 118.179C365.934 114.657 365.382 111.247 364.804 107.795M354.16 124.424C354.234 123.663 353.156 116.265 352.696 114.326L351.211 114.01C351.855 117.437 352.487 120.784 353.127 124.181L354.158 124.424M364.394 117.311C364.371 117.033 364.371 116.843 364.34 116.652C364.079 114.944 363.813 113.233 363.541 111.519C363.317 110.119 363.072 108.717 362.844 107.316C362.843 107.219 362.812 107.124 362.756 107.045C362.699 106.967 362.62 106.907 362.528 106.874C362.143 106.749 361.763 106.619 361.302 106.456C361.336 106.72 361.355 106.906 361.39 107.084C361.683 108.653 361.989 110.222 362.273 111.786C362.558 113.351 362.821 114.924 363.11 116.5C363.128 116.649 363.203 116.787 363.319 116.882C363.643 117.041 363.993 117.144 364.401 117.301M359.198 105.826C359.491 107.339 359.769 108.69 360.035 110.046C360.397 111.977 360.738 113.912 361.099 115.841C361.107 115.914 361.13 115.985 361.166 116.049C361.202 116.114 361.25 116.17 361.309 116.215C361.65 116.364 362.016 116.456 362.484 116.606C361.905 113.09 361.346 109.703 360.786 106.295C360.252 106.14 359.782 105.998 359.21 105.826M349.123 113.567C349.165 113.822 349.183 113.975 349.215 114.123C349.554 115.719 349.903 117.315 350.223 118.918C350.512 120.368 350.767 121.824 351.041 123.278C351.077 123.46 351.06 123.696 351.309 123.75C351.621 123.826 351.937 123.886 352.34 123.974C351.886 120.543 351.38 117.211 350.757 113.895C350.209 113.788 349.711 113.686 349.123 113.567M360.526 115.979C359.93 112.466 359.355 109.075 358.779 105.709C358.204 105.556 357.733 105.351 357.177 105.33C357.851 108.77 358.516 112.159 359.192 115.581C359.591 115.7 359.995 115.818 360.526 115.979M366.76 108.393C366.719 108.069 366.696 107.855 366.662 107.646C366.57 107.09 366.472 106.535 366.371 105.973C365.938 103.54 365.507 101.107 365.062 98.6737C365.051 98.5004 364.976 98.3372 364.853 98.2156C364.388 97.9227 363.89 97.6716 363.325 97.362C363.344 97.5712 363.344 97.6758 363.363 97.7658C363.748 99.6737 364.141 101.577 364.522 103.489C364.76 104.692 364.978 105.899 365.223 107.1C365.269 107.337 365.223 107.617 365.52 107.759C365.905 107.941 366.277 108.142 366.76 108.387M312.942 124.989C312.584 129.33 312.228 133.635 311.875 137.976H312.864C313.074 137.215 314.163 125.424 314.071 124.989H312.942ZM355.093 104.812C355.803 108.266 356.495 111.632 357.185 115.023C357.395 115.081 357.604 115.146 357.798 115.198C357.993 115.251 358.231 115.305 358.461 115.362C358.461 114.479 356.941 105.893 356.656 105.138C356.261 105.04 355.844 104.929 355.43 104.841C355.317 104.824 355.202 104.814 355.087 104.812M350.411 123.545C349.955 120.133 349.422 116.82 348.767 113.504C348.163 113.385 347.598 113.278 347.004 113.165C347.746 116.583 348.468 119.939 349.2 123.305C349.598 123.38 349.97 123.458 350.411 123.541M361.127 96.4436C361.185 96.7763 361.215 96.9813 361.261 97.1821C361.507 98.3641 361.771 99.5398 362.014 100.724C362.403 102.607 362.775 104.489 363.164 106.383C363.196 106.531 363.225 106.749 363.321 106.801C363.747 107.036 364.204 107.207 364.679 107.309C364.679 107.182 364.679 107.1 364.658 107.033C364.394 105.54 364.139 104.044 363.865 102.55C363.564 100.906 363.248 99.2616 362.928 97.6193C362.894 97.4436 362.817 97.2009 362.689 97.1277C362.217 96.8851 361.714 96.6989 361.127 96.4499M352.968 104.314C353.717 107.795 354.445 111.161 355.173 114.537C355.618 114.644 356.041 114.839 356.528 114.811C356.512 114.634 356.512 114.495 356.487 114.362C356.139 112.368 355.792 110.372 355.441 108.376C355.231 107.266 355.003 106.161 354.786 105.052C354.752 104.876 354.748 104.69 354.529 104.644C354.041 104.538 353.549 104.435 352.978 104.314M358.955 95.6926C359.139 96.5085 359.302 97.2051 359.451 97.9059C360.003 100.498 360.547 103.096 361.108 105.684C361.137 105.841 361.223 106.058 361.344 106.102C361.748 106.278 362.181 106.391 362.668 106.556C362.627 106.24 362.604 106.01 362.566 105.786C362.428 105.017 362.292 104.253 362.148 103.485C361.712 101.222 361.271 98.9687 360.84 96.7072C360.828 96.5726 360.774 96.4454 360.684 96.3444C360.594 96.2434 360.474 96.174 360.342 96.1466C359.911 96.0294 359.493 95.8642 358.955 95.6822M350.83 103.866C351.623 107.335 352.39 110.709 353.165 114.075C353.627 114.214 354.101 114.309 354.581 114.357C354.549 114.102 354.539 113.908 354.508 113.73C354.234 112.213 353.972 110.698 353.671 109.19C353.37 107.682 353.066 106.174 352.761 104.667C352.723 104.477 352.715 104.259 352.476 104.205C351.947 104.096 351.414 103.996 350.819 103.874M361.014 86.8539C360.974 86.8832 360.94 86.9146 360.907 86.9418C361.037 87.4899 361.168 88.0338 361.292 88.5819C361.886 91.222 362.481 93.8635 363.076 96.5064C363.112 96.6738 363.145 96.9102 363.263 96.9792C363.75 97.2679 364.269 97.5085 364.878 97.816C364.729 97.044 364.612 96.3955 364.478 95.7533C363.963 93.2331 363.448 90.7137 362.932 88.1949C362.89 87.9857 362.848 87.7765 362.625 87.6656C362.083 87.3978 361.545 87.1238 361.014 86.8539M356.809 95.0713C357.602 98.6089 358.363 102.017 359.131 105.462C359.608 105.6 360.085 105.745 360.633 105.904C360.606 105.653 360.593 105.462 360.556 105.276C360.225 103.517 359.894 101.757 359.547 100.002C359.284 98.6653 358.999 97.3327 358.729 95.996C358.687 95.7763 358.629 95.5776 358.378 95.5169C357.89 95.3872 357.407 95.2428 356.809 95.0713M362.723 96.7344C362.696 96.5252 362.685 96.3913 362.658 96.2637C362.06 93.4291 361.42 90.6007 360.888 87.7514C360.731 86.9251 360.388 86.469 359.6 86.287C359.292 86.218 358.999 86.0966 358.633 85.9774C358.706 86.2891 358.754 86.4962 358.805 86.7012C359.135 88.084 359.474 89.4626 359.802 90.8434C360.179 92.4312 360.537 94.0274 360.913 95.6152C360.955 95.7909 361.037 96.0336 361.169 96.0922C361.65 96.3307 362.156 96.5106 362.723 96.7344M354.627 94.5065C354.654 94.701 354.654 94.7784 354.673 94.8537C355.091 96.6131 355.537 98.3725 355.953 100.136C356.298 101.6 356.623 103.065 356.953 104.529C356.995 104.717 357.003 104.916 357.25 104.973C357.696 105.077 358.135 105.194 358.623 105.316C358.606 105.13 358.606 105.012 358.583 104.897C358.238 103.119 357.89 101.341 357.537 99.567C357.252 98.1716 356.938 96.7825 356.646 95.3935C356.604 95.1989 356.581 95.0002 356.346 94.9395L354.635 94.5085M311.385 137.98C311.743 133.635 312.092 129.332 312.45 125.01H310.611C310.565 129.353 310.523 133.652 310.482 137.98H311.385ZM313.391 138.012C314.586 138.064 315.693 138.068 316.91 138.076C316.084 134.637 315.281 131.3 314.479 127.966C314.442 127.973 314.404 127.978 314.366 127.98C314.046 131.294 313.722 134.61 313.391 138.022M365.194 136.558C363.476 136.654 361.83 136.692 360.208 136.811L359.371 139.321C359.89 139.777 360.332 140.181 360.788 140.576C360.918 140.712 361.088 140.803 361.273 140.836C362.11 140.819 362.947 140.758 363.796 140.712C364.26 139.332 364.71 137.993 365.191 136.562M369.524 140.359C369.98 138.993 370.426 137.652 370.894 136.254L365.911 136.528C365.449 137.907 365.001 139.248 364.52 140.675L369.524 140.359ZM337.441 130.026V138.434C338.081 138.593 340.454 138.631 340.905 138.491C340.822 135.832 340.734 133.171 340.646 130.455L337.441 130.037M340.37 121.537C340.32 119.97 340.267 118.424 340.213 116.795L335.728 128.65L340.617 129.29C340.537 126.807 340.458 124.401 340.38 121.991C339.962 121.891 339.59 121.803 339.144 121.7C339.562 121.282 339.943 121.652 340.37 121.548M334.539 138.445C334.57 138.374 334.591 138.299 334.604 138.223C334.604 137.154 334.604 136.079 334.632 135.01C334.632 134.721 334.475 134.591 334.284 134.449C333.429 133.809 332.575 133.162 331.715 132.522C331.619 132.458 331.517 132.404 331.41 132.359C329.171 134.267 326.952 136.156 324.73 138.043C324.743 138.087 324.757 138.129 324.77 138.171L334.539 138.445ZM318.921 143.07C319.167 143.083 319.354 143.097 319.548 143.097C327.473 143.12 335.397 143.037 343.313 142.763C349.186 142.553 355.049 142.29 360.917 141.993C365.495 141.756 370.068 141.432 374.645 141.156C374.762 141.151 374.879 141.138 374.994 141.118C375.189 141.081 375.342 140.957 375.281 140.756C375.213 140.63 375.1 140.534 374.965 140.486C374.849 140.462 374.73 140.462 374.614 140.486C372.844 140.608 371.072 140.737 369.302 140.848C365.601 141.076 361.903 141.313 358.202 141.505C355.202 141.666 352.204 141.797 349.206 141.899C344.466 142.062 339.73 142.233 334.981 142.317C330.023 142.409 325.069 142.415 320.111 142.438C319.877 142.43 319.644 142.484 319.437 142.594C319.23 142.704 319.055 142.867 318.931 143.066M334.661 125.135H323.295L331.885 131.33C332.433 130.865 332.97 130.418 333.5 129.96C333.904 129.61 334.414 129.332 334.374 128.683C334.377 128.664 334.385 128.646 334.397 128.631C334.624 128.178 334.721 127.671 334.68 127.167C334.68 126.698 334.68 126.229 334.694 125.765C334.694 125.575 334.675 125.384 334.661 125.137M337.228 100.452C337.27 107.276 337.311 114.077 337.353 120.855C337.462 120.8 337.544 120.703 337.581 120.587C338.397 118.19 339.215 115.795 340.014 113.391C340.087 113.13 340.114 112.858 340.094 112.588C339.991 109.058 339.879 105.529 339.759 102.002C339.744 101.5 339.711 100.998 339.684 100.452H337.228ZM320.283 141.84C320.301 141.882 320.316 141.924 320.335 141.965C331.021 141.981 341.708 141.755 352.397 141.288L352.903 139.752C352.694 139.733 352.558 139.714 352.424 139.71C350.418 139.645 348.407 139.579 346.401 139.52C343.008 139.417 339.615 139.319 336.221 139.227C332.205 139.114 328.19 139.018 324.174 138.884C324.029 138.879 323.885 138.903 323.75 138.954C323.614 139.005 323.49 139.082 323.385 139.181C322.711 139.771 322.023 140.346 321.337 140.93C320.988 141.231 320.632 141.535 320.291 141.84M294.505 141.411C295.254 141.447 295.969 141.489 296.691 141.507C299.965 141.606 303.239 141.717 306.523 141.781C310.657 141.865 314.793 141.907 318.925 141.972C319.069 141.98 319.214 141.96 319.35 141.913C319.487 141.865 319.612 141.79 319.72 141.694C320.676 140.857 321.644 140.045 322.615 139.227C322.712 139.159 322.816 139.104 322.927 139.062C322.893 139.001 322.862 138.945 322.828 138.888C322.542 138.888 322.257 138.865 321.975 138.865L296.287 138.616C296.112 138.61 295.936 138.618 295.762 138.639C295.447 138.669 295.152 138.807 294.927 139.029C294.701 139.251 294.559 139.544 294.524 139.859C294.493 140.376 294.493 140.894 294.524 141.411M339.638 98.8369C339.638 98.4896 339.638 98.2197 339.638 97.9457C339.577 95.9583 339.506 93.9709 339.445 91.9793C339.353 89.1342 339.263 86.287 339.173 83.4377C338.986 77.5466 338.797 71.6577 338.606 65.7708C338.523 63.1572 338.438 60.5436 338.351 57.93C338.174 52.3736 337.993 46.8152 337.807 41.2547C337.711 38.3259 337.627 35.3971 337.533 32.4829C337.352 26.8053 337.168 21.1304 336.981 15.4583C336.926 13.8119 336.87 12.1718 336.818 10.5253C336.762 10.9125 336.74 11.3038 336.753 11.6948C336.772 16.4589 336.794 21.2203 336.818 25.9789C336.901 40.535 336.987 55.0918 337.075 69.6494C337.129 79.1512 337.18 88.653 337.228 98.1549C337.228 98.3829 337.244 98.6089 337.251 98.8369H339.638ZM330.301 13.9834L330.188 13.9479C316.335 50.647 302.051 87.1796 287.338 123.545C287.654 123.686 287.863 123.648 287.982 123.336C288.024 123.227 288.076 123.127 288.126 123.018C295.601 106.51 302.561 89.7911 309.134 72.9066C316.632 53.6449 323.627 34.204 330.119 14.5838C330.184 14.3872 330.236 14.1843 330.293 13.9834M323.368 138.064C323.787 138.217 323.996 138.035 324.228 137.84L330.732 132.303C330.826 132.219 330.908 132.116 331.01 132.005C330.904 131.918 330.835 131.851 330.759 131.796C327.872 129.63 324.99 127.463 322.111 125.294C321.877 125.118 321.59 125.028 321.297 125.039C319.251 125.031 317.204 125.019 315.155 125.004C315.002 125.004 314.85 125.022 314.678 125.035C314.552 125.551 314.539 126.089 314.64 126.61C315.527 130.305 316.416 134.001 317.306 137.698C317.346 137.829 317.394 137.957 317.45 138.083H318.163M341.397 138.645L353.165 138.989C353.411 138.246 353.633 137.583 353.857 136.922C354.035 136.392 354.066 136.388 354.6 136.365C356.782 136.282 358.964 136.208 361.145 136.102C364.748 135.924 368.35 135.725 371.951 135.535C372.091 135.522 372.231 135.501 372.369 135.474V134.637L341.131 130.533C341.217 133.252 341.301 135.924 341.389 138.65M335.092 2.23895C334.715 2.04858 334.592 2.23895 334.504 2.513C334.249 3.3498 333.983 4.1866 333.719 5.0234C328.217 22.2991 322.241 39.4137 315.923 56.4091C307.994 77.7203 299.488 98.7971 290.208 119.562C290.133 119.732 290.068 119.907 289.999 120.083C290.16 119.95 290.291 119.784 290.384 119.596C292.831 115.221 295.151 110.776 297.379 106.286C303.224 94.5065 308.421 82.4377 313.189 70.1849C318.454 56.6643 323.176 42.9555 327.464 29.0918C330.138 20.4519 332.646 11.7617 334.906 3.00044C334.973 2.74522 335.031 2.48372 335.092 2.23477M340.506 111.276C340.552 111.276 340.598 111.276 340.644 111.291C340.753 110.901 340.872 110.514 340.983 110.121C343.097 102.835 344.674 95.404 345.7 87.8874C346.161 84.5067 346.481 81.1072 346.811 77.7098C347.154 74.1722 347.313 70.6242 347.345 67.0699C347.376 63.5156 347.345 59.9697 347.234 56.4196C347.117 52.3234 346.815 48.2378 346.347 44.1626C346.043 41.489 345.719 38.8175 345.349 36.1523C344.794 32.2528 344.094 28.3764 343.269 24.5229C341.874 17.7796 340.067 11.1279 337.859 4.605C337.634 3.95021 337.391 3.30169 337.159 2.65108C337.073 2.82549 337.037 3.02036 337.056 3.21382C337.145 6.1998 337.237 9.18438 337.33 12.1676C337.414 14.9402 337.501 17.7093 337.592 20.4749C337.772 25.9587 337.951 31.4397 338.129 36.918C338.228 39.9221 338.316 42.9262 338.412 45.9303C338.594 51.5843 338.779 57.2403 338.964 62.8985C339.054 65.7269 339.138 68.5469 339.23 71.3815C339.412 77.0787 339.598 82.7738 339.786 88.4669C339.894 91.8043 340.004 95.1403 340.117 98.475C340.127 98.5802 340.146 98.6844 340.173 98.7867C340.836 98.9499 341.081 99.1444 341.096 99.5586C341.119 99.7317 341.077 99.9072 340.977 100.05C340.728 100.256 340.462 100.441 340.182 100.603C340.292 104.102 340.405 107.682 340.52 111.261M341.776 13.5023C341.828 13.724 341.874 13.9479 341.935 14.1696C343.19 18.8368 344.251 23.5564 345.142 28.3073C345.861 32.1608 346.502 36.031 346.939 39.9263C347.307 43.2002 347.667 46.4784 347.937 49.7586C348.146 52.4008 348.253 55.0556 348.355 57.7082C348.568 63.4264 348.492 69.1403 348.127 74.8501C347.858 79.2321 347.423 83.5981 346.824 87.948C346.33 91.5449 345.717 95.118 344.985 98.6674C343.862 104.111 342.46 109.492 340.782 114.79C340.705 115.032 340.666 115.284 340.667 115.537C340.717 117.447 340.782 119.359 340.843 121.271C340.853 121.401 340.87 121.529 340.893 121.656C342.357 122.033 342.713 122.052 342.895 121.778C343.142 122.15 343.732 122.322 344.725 122.299C344.529 121.073 344.326 119.851 344.129 118.633C344.215 118.745 344.276 118.873 344.307 119.01C344.491 119.744 344.663 120.487 344.849 121.221C344.951 121.64 344.96 122.169 345.225 122.418C345.491 122.667 346.025 122.627 346.443 122.721C346.474 122.721 346.508 122.698 346.604 122.661C346.292 120.297 345.843 117.935 345.403 115.575L345.527 115.552C346.085 117.977 346.642 120.403 347.2 122.828C347.828 123.037 348.1 123.087 348.51 123.037C348.061 119.718 347.49 116.412 346.796 113.121C345.301 112.843 343.838 112.577 342.387 112.309C342.387 111.989 342.539 112.006 342.707 112.035C343.186 112.119 343.667 112.207 344.146 112.295C344.855 112.424 345.562 112.56 346.276 112.684C346.447 112.713 346.671 112.82 346.721 112.577C347.265 113.071 347.995 112.92 348.723 113.163C348.495 112.012 348.29 110.97 348.096 109.922C348.222 110.079 348.307 110.266 348.342 110.464C348.552 111.255 348.723 112.054 348.937 112.847C348.976 112.991 349.093 113.198 349.215 113.232C349.675 113.362 350.152 113.429 350.723 113.539C350.267 111.255 349.828 109.058 349.391 106.862L349.508 106.835C350.042 109.09 350.574 111.339 351.104 113.581C351.771 113.822 352.185 113.897 352.658 113.855C352.06 110.508 351.403 107.161 350.648 103.814L344.924 102.738C344.924 102.4 345.102 102.458 345.255 102.483L348.361 103.036C348.989 103.151 349.589 103.276 350.202 103.387C350.361 103.412 350.552 103.333 350.686 103.397C351.267 103.684 351.899 103.699 352.612 103.856C352.349 102.617 352.106 101.471 351.861 100.324C351.975 100.464 352.053 100.63 352.087 100.808C352.321 101.734 352.547 102.663 352.788 103.588C352.826 103.722 352.92 103.916 353.022 103.941C353.541 104.069 354.052 104.259 354.656 104.247C354.108 101.715 353.575 99.226 353.039 96.7491C353.313 97.5407 353.544 98.3466 353.731 99.1632C354.123 100.774 354.501 102.389 354.893 103.996C354.93 104.153 355.022 104.372 355.137 104.414C355.608 104.567 356.1 104.663 356.713 104.812C355.959 101.278 355.236 97.8767 354.501 94.4186L346.866 92.8475C346.897 92.5421 347.075 92.5797 347.246 92.6153C348.468 92.8538 349.698 93.0797 350.922 93.3266C352.045 93.5546 353.165 93.8014 354.298 94.0504C354.321 93.906 354.34 93.7868 354.355 93.6801C354.451 93.837 354.503 94.0776 354.627 94.1153C355.231 94.3206 355.851 94.4745 356.48 94.5755C356.336 93.9165 356.206 93.3496 356.081 92.7826C355.955 92.2157 355.84 91.6634 355.719 91.109C355.75 91.1008 355.783 91.0945 355.815 91.0902C356.114 92.2743 356.415 93.4625 356.721 94.6801C357.315 94.8433 357.901 95.0127 358.604 95.2052C358.056 92.7387 357.539 90.3936 357.016 88.0505C357.26 88.6675 357.455 89.3026 357.6 89.9501C357.995 91.5818 358.384 93.2115 358.784 94.8412C358.825 95.019 358.894 95.2784 359.022 95.3307C359.53 95.5399 360.068 95.6968 360.696 95.8997C360.556 95.2219 360.44 94.6445 360.315 94.086C359.758 91.5358 359.192 88.9878 358.641 86.4334C358.622 86.2523 358.544 86.0823 358.42 85.9494C358.295 85.8165 358.131 85.7279 357.951 85.6971C357.202 85.5067 356.47 85.241 355.721 85.0695C353.805 84.6197 351.882 84.2013 349.96 83.7745C349.376 83.6448 348.79 83.5423 348.077 83.398C348.263 83.2578 348.34 83.1574 348.416 83.1574C348.591 83.1653 348.764 83.1898 348.934 83.2306C351.976 83.8143 355.001 84.4272 357.97 85.3519C358.141 85.4084 358.378 85.333 358.51 85.423C359.112 85.8414 359.84 85.9335 360.589 86.3226C360.277 84.9356 359.991 83.6678 359.706 82.4001C359.836 82.5543 359.924 82.7395 359.961 82.9377C360.208 83.9398 360.453 84.9439 360.71 85.9418C360.756 86.1217 360.825 86.3602 360.959 86.4376C361.526 86.7451 362.125 86.9962 362.807 87.3121C362.079 84.126 361.378 81.0361 360.677 77.965C360.778 78.1108 360.849 78.275 360.886 78.4483C361.56 81.2118 362.246 83.9733 362.901 86.741C363.026 87.264 363.187 87.697 363.719 87.9188C363.772 87.9358 363.821 87.9632 363.863 87.9995C363.906 88.0358 363.94 88.0802 363.965 88.1301C363.99 88.18 364.005 88.2344 364.009 88.2901C364.012 88.3458 364.005 88.4016 363.986 88.4543C363.75 88.3246 363.526 88.1991 363.244 88.0485C363.267 88.2075 363.273 88.2828 363.29 88.356C363.949 91.3831 364.618 94.4102 365.263 97.4415C365.361 97.9018 365.472 98.2971 365.942 98.5189C365.989 98.5349 366.031 98.5609 366.066 98.595C366.101 98.6291 366.128 98.6705 366.145 98.7162C366.162 98.7619 366.169 98.8109 366.165 98.8596C366.161 98.9083 366.147 98.9555 366.122 98.998C365.947 98.9122 365.783 98.8348 365.589 98.7365C365.583 98.8124 365.583 98.8886 365.589 98.9645C366.198 102.14 366.805 105.319 367.409 108.5C367.424 108.624 367.468 108.743 367.536 108.848C367.604 108.952 367.695 109.04 367.802 109.104C367.995 109.224 368.141 109.372 368.03 109.642L367.612 109.458C367.602 109.488 367.597 109.519 367.597 109.55C368.137 112.878 368.682 116.206 369.231 119.535C369.27 119.72 369.361 119.889 369.493 120.025C369.645 120.186 369.813 120.315 369.741 120.575L369.398 120.487C369.421 120.734 369.436 120.947 369.465 121.161C369.884 124.29 370.307 127.42 370.735 130.549C370.773 130.824 370.8 131.083 371.039 131.282C371.137 131.361 371.154 131.541 371.214 131.7L370.926 131.742V132.528C370.612 132.485 370.334 132.443 370.045 132.397C369.995 131.943 369.957 131.535 369.896 131.141C369.886 130.992 369.829 130.85 369.733 130.736C369.449 130.529 369.154 130.336 368.85 130.16C368.93 130.926 368.999 131.591 369.074 132.307L368.16 132.158C368.076 131.42 368.003 130.694 367.913 129.993C367.906 129.824 367.843 129.663 367.733 129.535C367.45 129.356 367.153 129.198 366.846 129.064C366.968 130.11 367.078 131.052 367.198 132.06L366.267 131.911C366.181 131.075 366.099 130.282 366.014 129.489C365.909 128.558 365.907 128.558 365.007 128.252C364.98 128.24 364.942 128.267 364.886 128.282C365.022 129.432 365.164 130.583 365.304 131.809C364.949 131.754 364.677 131.717 364.386 131.671C364.344 131.355 364.311 131.089 364.279 130.819C364.187 129.966 364.108 129.108 364.001 128.261C363.991 128.072 363.911 127.894 363.777 127.761C363.5 127.616 363.209 127.5 362.909 127.414C363.083 128.851 363.244 130.171 363.411 131.554C363.062 131.508 362.798 131.47 362.505 131.428C362.468 131.158 362.432 130.909 362.405 130.658C362.284 129.575 362.171 128.489 362.041 127.403C362.03 127.331 362.005 127.261 361.967 127.199C361.929 127.137 361.879 127.083 361.819 127.041C361.538 126.925 361.25 126.83 360.955 126.757C361.058 127.593 361.164 128.326 361.242 129.058C361.319 129.79 361.424 130.522 361.522 131.296L360.612 131.19C360.43 129.579 360.254 128.018 360.079 126.462C359.706 126.347 359.394 126.252 359.01 126.137C359.192 127.824 359.493 129.405 359.604 131.049C359.256 131.003 358.997 130.97 358.723 130.93C358.53 129.211 358.342 127.55 358.156 125.882L357.064 125.577C357.273 127.372 357.585 129.049 357.723 130.807L356.836 130.688C356.773 130.144 356.721 129.642 356.667 129.137C356.539 127.995 356.42 126.853 356.275 125.711C356.264 125.63 356.235 125.552 356.191 125.483C356.147 125.414 356.089 125.356 356.02 125.311C355.728 125.208 355.427 125.132 355.121 125.083C355.376 126.93 355.621 128.711 355.872 130.577C355.491 130.512 355.221 130.468 354.957 130.426C354.748 128.52 354.539 126.686 354.317 124.824C353.899 124.824 353.572 124.577 353.175 124.66C353.443 126.543 353.765 128.403 353.957 130.334L353.077 130.181C352.855 128.227 352.635 126.317 352.413 124.391L351.229 124.15C351.499 126.165 351.874 128.087 352.066 130.083L351.194 129.939C350.966 127.924 350.74 125.964 350.512 123.96L349.267 123.709C349.587 125.78 349.895 127.767 350.215 129.834L349.309 129.698C349.062 127.627 348.914 125.571 348.566 123.545C348.117 123.453 347.729 123.374 347.261 123.282C347.629 125.407 348.045 127.441 348.278 129.577C347.941 129.522 347.688 129.485 347.441 129.451C347.192 127.322 346.949 125.255 346.709 123.175C346.196 123.1 345.769 122.901 345.278 122.966C345.292 123.119 345.297 123.234 345.315 123.347C345.643 125.111 345.971 126.874 346.299 128.635C346.336 128.844 346.428 129.085 346.28 129.317L345.575 129.215C345.324 127.068 345.075 124.943 344.828 122.803L343.142 122.495C343.648 124.715 344.163 126.842 344.483 129.07L343.686 128.972C343.476 126.763 343.309 124.608 342.933 122.46C342.258 122.299 341.573 122.187 340.882 122.125C340.964 124.577 341.039 126.968 341.119 129.395L372.118 133.464C367.545 92.0274 357.154 52.1603 341.784 13.5483M335.523 123.736V5.62799C335.403 5.80684 335.316 6.00603 335.267 6.21584C331.711 19.5363 327.709 32.72 323.262 45.7671C318.266 60.5262 312.76 75.0906 306.526 89.3727C301.469 100.941 295.951 112.282 289.672 123.24C289.595 123.37 289.534 123.508 289.44 123.69L335.523 123.736ZM284.375 130.951C284.47 130.841 284.556 130.724 284.631 130.6C285.468 128.798 286.304 126.994 287.141 125.19C287.198 125.068 287.235 124.943 287.285 124.813C286.959 124.675 286.821 124.813 286.704 125.106C285.963 126.949 285.21 128.784 284.461 130.627C284.428 130.736 284.406 130.848 284.396 130.962C284.319 131.01 284.264 131.085 284.241 131.173C284.218 131.261 284.229 131.355 284.273 131.434C284.313 131.275 284.346 131.114 284.384 130.951M287.894 124.763L280.957 139.541C280.779 139.29 280.656 139.122 280.524 138.936C282.447 134.242 284.361 129.554 286.315 124.786C285.938 124.786 285.637 124.786 285.34 124.744C285.211 124.735 285.09 124.679 285 124.587C284.91 124.494 284.857 124.371 284.852 124.242C284.837 124.125 284.865 124.006 284.93 123.907C284.995 123.808 285.094 123.736 285.208 123.704C285.36 123.665 285.516 123.648 285.673 123.654C286.022 123.654 286.373 123.654 286.754 123.654C286.867 123.395 286.963 123.171 287.062 122.937C292.007 110.594 296.992 98.2679 301.886 85.9083C312.806 58.3177 323.46 30.6225 333.849 2.82262C334.116 2.13836 334.236 1.40574 334.203 0.672047L335.01 0.603011C335.052 0.435651 335.094 0.25574 335.142 0.0423559C335.912 -0.022496 336.669 -0.0517839 337.408 0.251556C337.721 0.381259 337.826 0.632299 337.945 0.90635C339.008 3.46068 340.094 6.00873 341.136 8.57561C348.564 26.8165 354.887 45.4878 360.072 64.4884C362.772 74.4268 365.143 84.4412 367.185 94.5316C368.331 100.205 369.382 105.902 370.288 111.621C370.94 115.742 371.526 119.874 372.093 124.008C372.511 127.062 372.85 130.125 373.225 133.181C373.258 133.413 373.274 133.648 373.273 133.882C373.286 134.055 373.24 134.227 373.141 134.369C372.802 134.675 372.886 135.02 372.932 135.436C373.103 135.436 373.254 135.436 373.402 135.436L377.553 135.187C377.706 135.161 377.862 135.161 378.015 135.187C378.075 135.209 378.129 135.242 378.174 135.285C378.22 135.328 378.256 135.381 378.281 135.438C378.294 135.476 378.297 135.517 378.292 135.556C378.286 135.596 378.272 135.634 378.249 135.667C378.227 135.7 378.197 135.728 378.162 135.748C378.128 135.767 378.089 135.779 378.049 135.782C377.818 135.822 377.586 135.848 377.352 135.861L373.442 136.11C373.29 136.11 373.137 136.139 372.928 136.158C372.969 137.461 373.007 138.738 373.049 140.07C373.3 140.07 373.526 140.081 373.75 140.07C374.139 140.051 374.526 139.997 374.915 139.993C375.122 139.974 375.328 140.038 375.488 140.171C375.648 140.304 375.749 140.495 375.769 140.702C375.817 141.143 375.524 141.505 375.022 141.585C374.792 141.623 374.558 141.637 374.325 141.627C373.907 141.597 373.662 141.767 373.463 142.147C372.582 143.824 371.588 145.439 370.486 146.98C369.336 148.606 368.067 150.144 366.689 151.582C366.561 151.725 366.405 151.84 366.229 151.918C366.054 151.997 365.865 152.038 365.673 152.038C362.769 152.154 359.863 152.292 356.957 152.405C354.208 152.515 351.459 152.615 348.709 152.706C345.531 152.804 342.351 152.915 339.171 152.969C333.887 153.068 328.596 153.179 323.308 153.202C315.403 153.216 307.499 153.181 299.597 153.097C294.662 153.049 289.727 152.905 284.792 152.756C280.888 152.637 276.993 152.455 273.093 152.298C272.976 152.298 272.861 152.283 272.688 152.269C272.767 152.112 272.823 151.976 272.897 151.85C273.796 150.48 274.706 149.116 275.585 147.737C275.811 147.388 276.054 147.235 276.495 147.373V148.823C276.353 148.823 276.211 148.846 276.077 148.892C275.959 148.953 275.882 149.101 275.729 149.264C275.938 149.3 276.047 149.323 276.148 149.338C276.248 149.352 276.338 149.352 276.48 149.361C276.495 149.507 276.523 149.652 276.564 149.794C276.662 150.068 276.876 150.122 277.118 149.946C277.135 149.937 277.149 149.924 277.16 149.909C277.499 149.319 278.045 149.413 278.599 149.432C283.005 149.58 287.415 149.75 291.825 149.85C298.101 149.986 304.392 150.143 310.674 150.158C319.435 150.177 328.197 150.093 336.96 150.003C341.525 149.957 346.089 149.831 350.656 149.689C355.549 149.541 360.445 149.336 365.338 149.154C365.982 149.131 366.627 149.099 367.269 149.08C367.423 149.098 367.579 149.057 367.704 148.964C367.829 148.872 367.914 148.735 367.942 148.582C338.027 149.865 308.145 150.162 278.258 148.94C278.312 148.65 278.349 148.358 278.367 148.064C278.38 146.56 278.367 145.06 278.367 143.522C278.995 143.17 279.65 142.859 280.25 142.463C280.858 142.059 281.589 141.88 282.315 141.959C285.097 142.147 287.886 142.265 290.672 142.399C292.873 142.497 295.078 142.595 297.283 142.664C301.379 142.786 305.475 142.894 309.572 142.988C312.205 143.045 314.841 143.039 317.475 143.087C317.707 143.1 317.939 143.051 318.146 142.945C318.353 142.839 318.528 142.679 318.653 142.482C318.514 142.461 318.375 142.447 318.234 142.44C315.368 142.403 312.496 142.399 309.63 142.329C304.634 142.204 299.641 142.058 294.649 141.892C291.664 141.792 288.683 141.641 285.702 141.503C284.277 141.438 282.857 141.35 281.432 141.271C281.051 141.252 281.051 141.244 281.064 140.792L293.691 141.419C293.691 140.932 293.691 140.489 293.712 140.051C293.715 139.549 293.892 139.063 294.214 138.676C294.536 138.29 294.982 138.028 295.476 137.934C295.726 137.894 295.98 137.882 296.233 137.897C300.586 137.934 304.937 137.973 309.287 138.014H309.965C310.011 133.654 310.053 129.351 310.094 124.972H309.348C303.316 124.945 297.285 124.93 291.256 124.897C290.131 124.897 288.999 124.999 287.848 124.786" fill="white"/>
<path d="M278.062 143.315V145.658C278.062 146.457 278.049 147.252 278.062 148.053C278.074 148.188 278.056 148.323 278.008 148.45C277.961 148.576 277.885 148.69 277.788 148.783C277.52 149.03 277.279 149.308 276.926 149.685V147.018H275.631C275.789 146.745 276.039 146.537 276.336 146.43C276.796 146.202 276.963 145.882 276.926 145.361C276.876 144.524 276.911 143.687 276.911 142.869C276.451 142.608 276.024 142.376 275.612 142.12C275.505 142.055 275.445 141.911 275.338 141.773C275.742 141.392 275.731 140.871 275.821 140.384C275.857 140.194 275.871 139.999 275.922 139.809C275.967 139.526 276.113 139.27 276.333 139.087C276.552 138.904 276.83 138.806 277.116 138.811C277.859 138.796 278.597 138.792 279.34 138.811C279.676 138.808 280 138.935 280.246 139.164C280.491 139.394 280.639 139.709 280.658 140.045C280.695 140.432 280.704 140.821 280.718 141.21C280.718 141.405 280.718 141.597 280.718 141.838C279.846 142.321 278.963 142.809 278.057 143.315" fill="white"/>
<path d="M315.015 110.347C314.496 110.161 313.969 109.97 313.373 109.749C313.425 110.035 313.457 110.222 313.494 110.408C313.913 112.232 314.324 114.057 314.729 115.882C315.147 117.765 315.578 119.648 316.015 121.531C316.041 121.719 316.135 121.891 316.279 122.014C316.623 122.175 316.979 122.309 317.344 122.414C316.557 118.341 315.791 114.368 315.015 110.355M311.187 108.943C311.222 109.152 311.237 109.261 311.26 109.362C311.836 111.929 312.412 114.496 312.988 117.062C313.256 118.257 313.522 119.458 313.804 120.652C313.832 120.857 313.93 121.046 314.082 121.186C314.423 121.351 314.777 121.487 315.141 121.594C315.12 121.426 315.114 121.353 315.101 121.28C314.72 119.246 314.344 117.217 313.959 115.188C313.632 113.447 313.289 111.707 312.973 109.958C312.966 109.834 312.921 109.714 312.843 109.617C312.765 109.52 312.658 109.45 312.538 109.416C312.12 109.28 311.701 109.117 311.187 108.931M312.982 120.757C312.942 120.506 312.923 120.315 312.89 120.129C312.482 117.91 312.075 115.69 311.668 113.468C311.4 112.033 311.139 110.598 310.865 109.163C310.833 109.01 310.754 108.788 310.639 108.745C310.137 108.523 309.612 108.355 309.032 108.142C309.07 108.393 309.084 108.546 309.12 108.694C309.911 112.223 310.704 115.754 311.499 119.288C311.752 120.416 311.758 120.412 312.982 120.765M332.822 116.558C332.801 116.42 332.789 116.349 332.774 116.276C332.412 114.657 332.05 113.041 331.688 111.429C331.191 109.224 330.689 107.019 330.184 104.814C330.147 104.655 330.086 104.429 329.975 104.372C329.476 104.132 328.954 103.939 328.419 103.797C328.456 103.981 328.475 104.071 328.498 104.163C329.367 107.742 330.237 111.32 331.107 114.897C331.404 116.123 331.4 116.127 332.584 116.518C332.663 116.539 332.745 116.552 332.826 116.558M326.132 102.925C326.18 103.203 326.203 103.391 326.249 103.573L327.714 109.703C328.119 111.387 328.528 113.071 328.94 114.753C328.988 114.962 328.969 115.19 329.237 115.282C329.636 115.416 330.027 115.567 330.492 115.738C330.463 115.556 330.446 115.445 330.425 115.334L328.703 107.521C328.444 106.36 328.193 105.199 327.927 104.044C327.881 103.847 327.801 103.577 327.655 103.504C327.195 103.28 326.693 103.132 326.126 102.92M323.839 102.121C323.864 102.274 323.873 102.389 323.9 102.496L324.779 106.188C325.406 108.759 326.009 111.332 326.634 113.903C326.676 114.079 326.76 114.322 326.891 114.382C327.314 114.571 327.746 114.737 328.186 114.878C328.153 114.652 328.145 114.544 328.122 114.433C327.377 111.013 326.627 107.592 325.873 104.169C325.762 103.663 325.599 103.174 325.454 102.674L323.977 102.134C323.931 102.125 323.884 102.121 323.837 102.121M334.506 105.659L333.563 101.546C332.973 98.9868 332.384 96.4269 331.797 93.8663C331.757 93.7031 331.705 93.4479 331.588 93.4102C331.067 93.1518 330.516 92.9586 329.948 92.8349C329.992 93.0441 330.015 93.201 330.052 93.3496C330.647 95.7289 331.242 98.1074 331.839 100.485C332.182 101.862 332.521 103.245 332.885 104.619C332.939 104.828 332.927 105.096 333.213 105.19C333.613 105.328 334.008 105.477 334.511 105.659M321.557 101.224C321.607 101.494 321.634 101.68 321.678 101.866C322.164 103.934 322.652 106.001 323.143 108.067C323.536 109.74 323.927 111.401 324.327 113.069C324.366 113.23 324.433 113.449 324.557 113.508C324.975 113.705 325.406 113.843 325.915 114.033C325.866 113.742 325.839 113.556 325.802 113.37C325.258 110.839 324.713 108.307 324.168 105.774C323.917 104.59 323.661 103.408 323.392 102.232C323.38 102.149 323.352 102.07 323.309 101.998C323.267 101.926 323.21 101.863 323.143 101.814C322.653 101.605 322.138 101.427 321.559 101.213M323.651 113.138C323.609 112.893 323.586 112.707 323.548 112.51C323.02 110 322.491 107.489 321.963 104.979C321.724 103.833 321.492 102.69 321.241 101.552C321.199 101.354 321.118 101.079 320.973 101.01C320.461 100.772 319.91 100.605 319.3 100.383C319.356 100.672 319.392 100.862 319.433 101.046C320.241 104.496 321.049 107.943 321.858 111.387C321.956 111.805 321.969 112.32 322.228 112.594C322.488 112.868 323.028 112.949 323.442 113.113C323.477 113.113 323.519 113.113 323.651 113.136M317.082 99.5481C317.136 99.8264 317.157 99.9979 317.197 100.165C317.791 102.729 318.388 105.29 318.986 107.849C319.26 109.027 319.528 110.207 319.823 111.38C319.851 111.565 319.947 111.732 320.092 111.849C320.511 112.042 320.929 112.171 321.446 112.355C321.396 112.062 321.369 111.872 321.331 111.684C321.122 110.657 320.913 109.627 320.703 108.592C320.155 105.942 319.608 103.292 319.061 100.642C319.019 100.433 318.977 100.238 318.722 100.151C318.21 99.9791 317.703 99.7783 317.101 99.5565M329.119 80.8917C329.168 81.1197 329.182 81.2118 329.205 81.3101C329.651 83.0653 330.092 84.8205 330.542 86.5715C331.075 88.6635 331.605 90.7555 332.149 92.8475C332.182 93.0303 332.281 93.1947 332.427 93.3098C332.845 93.519 333.312 93.6529 333.82 93.8391C333.791 93.6445 333.778 93.5525 333.759 93.4625C333.349 91.676 332.939 89.8922 332.529 88.1112C332.061 86.082 331.593 84.0541 331.126 82.0277C331.08 81.8185 331.061 81.6093 330.806 81.5193C330.276 81.3331 329.76 81.1323 329.119 80.8917M332.272 104.828C332.218 104.538 332.195 104.366 332.157 104.201L329.804 93.8935C329.705 93.4751 329.709 92.9563 329.454 92.6759C329.199 92.3956 328.67 92.291 328.253 92.1383C328.071 92.0693 327.885 91.9019 327.645 92.0421C328.063 93.7408 328.481 95.4248 328.9 97.1068L330.544 103.801C330.598 104.01 330.613 104.22 330.868 104.307C331.31 104.46 331.741 104.632 332.278 104.83M319.237 111.481C319.197 111.242 319.164 111.035 319.122 110.826C318.592 108.193 318.059 105.557 317.524 102.918C317.314 101.904 317.12 100.891 316.908 99.8829C316.867 99.6737 316.856 99.4519 316.597 99.364C316.053 99.1737 315.509 98.9687 314.902 98.749C314.934 98.9833 314.944 99.1548 314.982 99.3201C315.775 102.758 316.572 106.195 317.371 109.632C317.473 110.079 317.488 110.644 317.77 110.941C318.053 111.238 318.643 111.322 319.095 111.498C319.142 111.495 319.19 111.489 319.237 111.481M325.343 91.0609C325.385 91.312 325.4 91.4437 325.431 91.5734C325.868 93.3705 326.312 95.1654 326.749 96.9624C327.229 98.9317 327.709 100.9 328.189 102.868C328.235 103.048 328.291 103.314 328.417 103.374C328.913 103.62 329.437 103.805 329.977 103.927C329.931 103.684 329.906 103.508 329.868 103.347C329.382 101.163 328.893 98.9777 328.404 96.7909C328.061 95.2721 327.717 93.7526 327.373 92.2324C327.318 92.0086 327.312 91.768 327.03 91.6739C326.496 91.4898 325.971 91.2889 325.356 91.0609M327.701 103.128C327.672 102.941 327.663 102.851 327.645 102.759C327.138 100.479 326.632 98.1967 326.126 95.9123C325.793 94.4123 325.467 92.9081 325.12 91.4082C325.074 91.2178 324.984 90.9542 324.835 90.8873C324.279 90.632 323.693 90.4417 323.019 90.1885C324.023 94.3621 325.002 98.4247 325.984 102.492L327.701 103.119M331.58 92.9563C331.559 92.8035 331.555 92.7094 331.532 92.6132C331.025 90.4124 330.52 88.2088 330.015 86.0025C329.642 84.3916 329.267 82.7787 328.889 81.1637C328.85 81.0068 328.77 80.7913 328.653 80.7453C328.059 80.4901 327.446 80.2809 326.77 80.0298C326.802 80.2118 326.81 80.2892 326.825 80.3603C327.703 83.8749 328.585 87.3895 329.471 90.904C329.596 91.4103 329.774 91.9019 329.927 92.3977L331.408 92.9458C331.463 92.9545 331.519 92.9594 331.575 92.9604M317.841 94.701C317.906 94.7799 317.959 94.868 317.998 94.9625C318.352 96.4415 318.714 97.9185 319.044 99.3996C319.141 99.8306 319.312 100.088 319.754 100.199C320.193 100.331 320.625 100.486 321.049 100.663C320.442 97.7699 319.856 94.9562 319.266 92.1467L319.369 92.1236C319.578 92.9604 319.787 93.7826 319.975 94.6131C320.421 96.4959 320.873 98.3787 321.291 100.262C321.314 100.451 321.396 100.629 321.526 100.769C321.656 100.909 321.827 101.005 322.015 101.042C322.404 101.144 322.772 101.316 323.226 101.483C323.184 101.22 323.161 101.029 323.12 100.856C322.369 97.3495 321.618 93.844 320.864 90.3392C320.82 90.13 320.804 89.9208 320.774 89.7116C320.831 89.8339 320.879 89.9597 320.919 90.0881C321.351 91.8621 321.781 93.6389 322.21 95.4185C322.678 97.3683 323.138 99.3222 323.615 101.276C323.646 101.46 323.745 101.624 323.894 101.736C324.377 101.962 324.887 102.125 325.477 102.345C325.232 101.211 325.013 100.186 324.787 99.1674C324.164 96.2916 323.536 93.4186 322.904 90.5484C322.871 90.3936 322.791 90.176 322.668 90.13C322.072 89.8621 321.459 89.6342 320.833 89.448C320.81 89.5881 320.8 89.6676 320.787 89.745C320.745 89.61 320.669 89.4876 320.568 89.389C320.466 89.2903 320.342 89.2186 320.205 89.1802C316.748 87.9125 313.296 86.6322 309.848 85.3393C309.618 85.2637 309.407 85.1387 309.231 84.9732C309.327 84.9355 309.43 84.856 309.509 84.8749C309.715 84.9309 309.917 85.0008 310.114 85.0841L319.816 88.6823C320.739 89.0254 321.664 89.3643 322.666 89.7283C322.624 88.8455 322.304 88.0694 322.291 87.2451C322.467 87.9585 322.645 88.6698 322.814 89.3831C322.829 89.5269 322.887 89.6629 322.98 89.7728C323.074 89.8828 323.199 89.9614 323.339 89.9982C323.841 90.1467 324.329 90.3496 324.927 90.5672C324.509 88.6698 324.12 86.8623 323.724 85.0485L323.818 85.0297C324.138 86.3435 324.463 87.653 324.785 88.9668C324.904 89.4438 325.011 89.9187 325.14 90.3873C325.174 90.5086 325.243 90.6739 325.337 90.7115C325.906 90.9479 326.484 91.153 327.161 91.404C326.502 88.4647 325.871 85.6426 325.235 82.8268L325.337 82.8038C325.624 83.9488 325.909 85.0917 326.191 86.2326C326.586 87.8434 326.988 89.4501 327.371 91.0609C327.388 91.214 327.451 91.3582 327.553 91.4738C327.655 91.5894 327.79 91.671 327.94 91.7073C328.4 91.837 328.841 92.0316 329.385 92.2324C329.232 91.5442 329.111 90.9605 328.967 90.3747C328.228 87.1259 327.483 83.8895 326.76 80.626C326.727 80.4203 326.636 80.2283 326.497 80.0734C326.358 79.9186 326.176 79.8075 325.975 79.7537C321.95 78.2893 317.936 76.7809 313.919 75.2852C313.724 75.2119 313.534 75.1366 313.222 75.0111C313.432 74.9044 313.519 74.8207 313.599 74.827C313.733 74.8529 313.864 74.8951 313.988 74.9525C317.893 76.4086 321.802 77.8611 325.716 79.3102C326.668 79.6595 327.599 80.0591 328.668 80.3875C328.366 78.7349 327.931 77.1659 327.676 75.5592C327.801 76.0153 327.931 76.4692 328.05 76.9253C328.324 77.9838 328.607 79.0382 328.858 80.0968C328.872 80.2308 328.926 80.3574 329.014 80.46C329.101 80.5627 329.217 80.6366 329.347 80.6721C329.833 80.8206 330.299 81.0151 330.879 81.2285C330.582 79.6595 330.197 78.1889 329.862 76.7056C329.527 75.2224 329.193 73.758 328.96 72.258C329.281 73.4714 329.603 74.691 329.919 75.9086C330.358 77.5822 330.799 79.2558 331.218 80.9461C331.242 81.0967 331.311 81.2366 331.414 81.3483C331.518 81.46 331.653 81.5385 331.801 81.5737C332.205 81.695 332.601 81.8561 333.088 82.0319C332.908 81.2243 332.753 80.5089 332.588 79.7913C331.866 76.6533 331.124 73.5279 330.427 70.3899C330.398 70.192 330.311 70.0071 330.178 69.8582C330.044 69.7094 329.87 69.6032 329.676 69.5531C325.747 68.1054 321.82 66.6494 317.894 65.185C317.685 65.1055 317.475 65.0135 317.132 64.8733C317.354 64.7771 317.446 64.6976 317.526 64.7122C317.695 64.7491 317.861 64.8031 318.019 64.8733C321.857 66.3 325.693 67.7261 329.525 69.1514C329.707 69.2205 329.896 69.2749 330.153 69.3606C330.069 68.9297 330 68.5594 329.929 68.1912L329.998 68.1724C330.101 68.4642 330.186 68.7617 330.253 69.0636C330.27 69.1978 330.329 69.3233 330.421 69.4227C330.513 69.5221 330.633 69.5903 330.766 69.6179C331.257 69.779 331.741 69.961 332.347 70.1786C331.875 68.1033 331.433 66.1578 330.992 64.208L331.067 64.185C331.151 64.4675 331.247 64.7478 331.322 65.0344C331.76 66.6285 332.201 68.2247 332.624 69.8271C332.72 70.1974 332.868 70.4547 333.272 70.5552C333.644 70.6472 334 70.8062 334.483 70.9736C333.682 67.4318 332.906 63.9905 332.126 60.545L332.222 60.5178C332.274 60.6809 332.339 60.8441 332.385 61.0115C333.124 63.616 333.87 66.2226 334.59 68.8334C334.706 69.305 334.772 69.7874 334.787 70.2727C334.822 70.756 334.787 71.2476 334.787 71.8794C334.398 71.0196 333.594 71.1451 332.944 70.7372C332.96 70.915 332.986 71.0917 333.023 71.2664C333.519 73.1095 334.013 74.9567 334.531 76.7956C334.719 77.4109 334.806 78.0522 334.791 78.6951C334.795 79.2039 334.762 79.7123 334.69 80.216C334.657 80.1198 334.615 80.0277 334.592 79.9336C333.923 77.0236 333.249 74.1199 332.596 71.21C332.498 70.7685 332.322 70.4861 331.866 70.3732C331.41 70.2602 331.002 70.0719 330.473 69.8815C330.575 70.2706 330.651 70.5677 330.728 70.8648C331.691 74.4818 332.661 78.0947 333.607 81.716C333.716 82.1344 333.895 82.398 334.326 82.5151C334.688 82.6113 334.676 82.6406 334.745 82.9774L333.908 82.7452C334.103 83.4837 334.243 84.1678 334.469 84.8205C334.925 86.1405 334.785 87.492 334.693 88.8559C334.636 88.6467 334.567 88.425 334.517 88.2095C334.117 86.4606 333.707 84.7138 333.322 82.9607C333.304 82.7911 333.233 82.6312 333.121 82.5026C333.009 82.3739 332.86 82.2827 332.695 82.2411C332.31 82.1385 331.939 81.9712 331.471 81.7955C331.609 82.3457 331.716 82.7933 331.831 83.2431C332.728 86.6928 333.573 90.1614 334.55 93.5922C334.925 94.9144 334.688 96.2135 334.73 97.5377C334.687 97.4492 334.65 97.3576 334.619 97.2637C334.41 96.4269 334.201 95.6005 334.048 94.7533C334.031 94.5903 333.963 94.437 333.852 94.3158C333.742 94.1946 333.596 94.1118 333.435 94.0797C333.105 93.9876 332.785 93.8433 332.372 93.6906C332.423 93.9458 332.446 94.1089 332.488 94.2742C333.185 97.0147 333.882 99.7538 334.58 102.492C334.746 103.094 334.824 103.716 334.812 104.341C334.793 105 334.812 105.659 334.812 106.416C334.393 105.812 333.749 105.872 333.174 105.625C333.209 105.801 333.234 105.979 333.276 106.155C333.711 107.895 334.142 109.636 334.588 111.372C334.75 111.975 334.827 112.597 334.816 113.221C334.797 113.922 334.816 114.623 334.736 115.347C334.69 115.267 334.652 115.183 334.621 115.096C333.916 112.014 333.205 108.937 332.529 105.858C332.427 105.404 332.237 105.138 331.787 105.021C331.467 104.937 331.159 104.812 330.783 104.671C330.816 104.881 330.831 105.017 330.868 105.163C331.799 108.948 332.727 112.734 333.653 116.521C333.675 116.671 333.742 116.812 333.845 116.924C333.949 117.036 334.084 117.114 334.232 117.148C334.384 117.183 334.53 117.239 334.665 117.315C334.739 117.361 334.762 117.487 334.86 117.682L333.931 117.42C333.946 117.573 333.969 117.725 334 117.876C334.197 118.713 334.383 119.55 334.615 120.37C334.847 121.19 334.824 122.064 334.808 122.968C334.638 122.968 334.502 122.991 334.318 123.006C334.067 121.912 333.829 120.851 333.584 119.792C333.406 118.991 333.218 118.196 333.048 117.393C333.038 117.278 332.993 117.168 332.918 117.08C332.843 116.992 332.742 116.93 332.63 116.901C332.299 116.803 331.975 116.665 331.538 116.502C332.006 118.725 332.596 120.82 333.069 122.987H332.193C332.155 122.87 332.094 122.732 332.059 122.587C331.621 120.627 331.184 118.669 330.762 116.705C330.68 116.33 330.54 116.077 330.134 115.981C329.807 115.882 329.486 115.765 329.172 115.631C329.77 118.142 330.343 120.531 330.935 122.979H330.004L329.251 119.552C328.973 118.276 328.691 117.002 328.414 115.726C328.403 115.591 328.349 115.463 328.259 115.361C328.169 115.26 328.049 115.19 327.917 115.163C327.601 115.071 327.289 114.937 326.896 114.788C327.009 115.772 327.314 116.646 327.496 117.541C327.678 118.437 327.927 119.324 328.136 120.215C328.345 121.106 328.567 122.031 328.791 122.987H327.894C327.852 122.83 327.787 122.652 327.749 122.47C327.226 120.048 326.693 117.629 326.209 115.2C326.099 114.659 325.906 114.318 325.345 114.207C325.071 114.127 324.801 114.031 324.538 113.92C325.266 116.993 325.963 119.96 326.674 122.979H325.753C325.551 122.032 325.349 121.082 325.147 120.131C324.728 118.108 324.283 116.092 323.875 114.065C323.862 113.921 323.805 113.786 323.71 113.677C323.616 113.568 323.49 113.492 323.35 113.46C323.019 113.362 322.699 113.232 322.264 113.079C323.048 116.426 323.808 119.69 324.58 122.987H323.666C323.54 122.401 323.404 121.799 323.279 121.194C322.73 118.543 322.178 115.889 321.645 113.232C321.636 113.097 321.585 112.969 321.499 112.864C321.414 112.759 321.298 112.684 321.168 112.648C320.818 112.542 320.475 112.406 320.019 112.23C320.814 115.851 321.693 119.372 322.486 122.968H321.572C321.394 122.087 321.218 121.213 321.038 120.336C320.502 117.7 319.961 115.067 319.44 112.426C319.375 112.096 319.264 111.897 318.934 111.799C318.603 111.701 318.237 111.554 317.787 111.391C318.205 113.383 318.67 115.274 319.097 117.179C319.523 119.085 319.977 121.014 320.429 122.97H319.523C319.408 122.437 319.291 121.889 319.185 121.34C318.544 118.11 317.908 114.878 317.277 111.642C317.212 111.307 317.09 111.079 316.733 110.979C316.375 110.878 316.009 110.732 315.559 110.573C315.731 111.341 315.875 112.019 316.032 112.696C316.761 115.904 317.496 119.112 318.237 122.32C318.31 122.546 318.401 122.767 318.511 122.979C318.053 123.016 317.593 123.043 317.162 122.719C316.938 122.556 316.626 122.51 316.302 122.393V122.951H315.471C315.429 122.881 315.401 122.804 315.388 122.723C315.388 122.11 315.03 121.826 314.478 121.711C314.352 121.684 314.227 121.638 314.036 121.585C314.084 121.859 314.122 122.083 314.164 122.305C314.206 122.527 314.247 122.723 314.298 122.964H313.419C313.337 122.533 313.235 122.127 313.183 121.709C313.185 121.543 313.127 121.381 313.019 121.255C312.912 121.128 312.763 121.044 312.599 121.018C312.344 120.945 312.092 120.858 311.846 120.759C312.003 121.529 312.143 122.223 312.296 122.964H311.419C311.308 122.351 311.153 121.742 311.095 121.129C311.042 120.585 310.829 120.265 310.285 120.163C310.079 120.11 309.876 120.043 309.679 119.964C309.904 121.01 310.109 121.97 310.323 122.972H309.459C309.381 122.554 309.291 122.135 309.214 121.692C309.12 121.156 309.024 120.619 308.953 120.079C308.948 119.933 308.893 119.794 308.798 119.683C308.703 119.573 308.573 119.499 308.43 119.472C308.151 119.401 307.89 119.282 307.52 119.146C307.81 120.46 308.076 121.688 308.356 122.964H307.484C307.358 122.23 307.229 121.483 307.103 120.74C307.02 120.238 306.923 119.74 306.858 119.24C306.858 119.123 306.819 119.01 306.746 118.919C306.673 118.827 306.571 118.764 306.457 118.738C306.143 118.646 305.829 118.516 305.423 118.368C305.691 119.96 306.118 121.43 306.394 122.97H305.543C305.283 121.382 305.02 119.776 304.75 118.119L303.306 117.575C303.631 119.437 304.126 121.169 304.453 122.974H303.616C303.486 122.152 303.361 121.33 303.231 120.506C303.087 119.581 302.934 118.656 302.813 117.732C302.81 117.616 302.769 117.504 302.696 117.414C302.623 117.324 302.522 117.262 302.409 117.236C302.024 117.117 301.652 116.962 301.17 116.782C301.643 118.893 302.097 120.899 302.557 122.96H301.721C301.645 122.506 301.559 122.033 301.493 121.558C301.283 120.094 301.074 118.629 300.865 117.165C300.819 116.795 300.693 116.558 300.304 116.46C299.915 116.362 299.547 116.205 299.049 116.029C299.593 118.414 300.11 120.679 300.637 122.987H299.8C299.486 120.663 299.173 118.336 298.848 115.945C297.67 115.5 296.478 115.05 295.279 114.602C295.363 114.288 295.524 114.343 295.698 114.408L297.944 115.244C298.161 115.335 298.383 115.414 298.608 115.481C298.664 115.498 298.748 115.416 298.817 115.387C299.283 115.922 300.016 115.926 300.7 116.288C300.593 115.439 300.49 114.696 300.403 113.952L300.482 113.939C300.641 114.617 300.825 115.286 300.951 115.972C300.962 116.107 301.014 116.234 301.101 116.337C301.187 116.44 301.304 116.514 301.434 116.548C301.819 116.665 302.195 116.813 302.664 116.979C302.442 115.475 302.229 114.05 302.02 112.64L302.131 112.619C302.336 113.516 302.54 114.414 302.744 115.313C302.859 115.824 302.953 116.343 303.097 116.853C303.136 117.014 303.234 117.155 303.371 117.249C303.756 117.424 304.164 117.546 304.666 117.723C304.285 115.332 303.919 113.029 303.555 110.73C303.585 110.73 303.616 110.717 303.649 110.711C303.859 111.613 304.068 112.514 304.262 113.418C304.574 114.803 304.89 116.19 305.189 117.583C305.202 117.708 305.253 117.825 305.336 117.919C305.418 118.013 305.528 118.079 305.649 118.108C305.976 118.211 306.292 118.341 306.695 118.489C306.174 115.364 305.67 112.332 305.168 109.305L305.275 109.282C305.436 109.979 305.603 110.671 305.754 111.374C306.273 113.675 306.8 115.977 307.281 118.278C307.295 118.431 307.357 118.575 307.458 118.692C307.558 118.808 307.692 118.89 307.842 118.926C308.12 119.006 308.386 119.112 308.756 119.244C308.089 115.259 307.434 111.364 306.779 107.471C306.849 107.605 306.909 107.745 306.959 107.889C307.545 110.512 308.128 113.134 308.71 115.755C308.953 116.859 309.189 117.964 309.444 119.064C309.49 119.274 309.471 119.539 309.773 119.631C310.074 119.723 310.423 119.868 310.819 120.016C310.791 119.776 310.781 119.608 310.75 119.445L309.871 114.498C309.513 112.485 309.151 110.473 308.8 108.46C308.793 108.325 308.743 108.195 308.657 108.091C308.57 107.986 308.453 107.912 308.321 107.881C307.963 107.784 307.633 107.613 307.275 107.508C307.111 107.477 306.944 107.466 306.777 107.477C306.685 107.211 306.43 107.184 306.216 107.107C304.41 106.433 302.602 105.762 300.792 105.094C300.597 105.017 300.403 104.933 300.11 104.812C300.288 104.715 300.38 104.621 300.455 104.632C300.626 104.669 300.794 104.723 300.955 104.793C302.654 105.425 304.352 106.052 306.049 106.676C306.247 106.76 306.461 106.802 306.676 106.799C306.863 106.799 307.053 107.027 307.256 107.121C307.459 107.215 307.725 107.307 307.963 107.395C308.143 107.46 308.329 107.519 308.603 107.604C308.505 106.964 308.421 106.402 308.338 105.839C308.363 105.839 308.39 105.826 308.421 105.822C308.538 106.322 308.676 106.82 308.771 107.324C308.78 107.449 308.828 107.567 308.908 107.663C308.988 107.759 309.096 107.828 309.216 107.86C309.681 108.008 310.13 108.188 310.681 108.389C310.398 106.832 310.132 105.347 309.867 103.862C309.896 103.858 309.924 103.851 309.953 103.843C310.076 104.345 310.202 104.847 310.314 105.356C310.524 106.245 310.733 107.136 310.909 108.035C310.924 108.199 310.992 108.354 311.102 108.477C311.212 108.599 311.358 108.684 311.519 108.717C311.906 108.824 312.283 108.983 312.775 109.159C312.304 106.634 311.846 104.197 311.394 101.759L311.482 101.741C311.8 103.135 312.119 104.53 312.44 105.925C312.672 106.931 312.913 107.935 313.122 108.95C313.135 109.074 313.186 109.191 313.269 109.285C313.351 109.379 313.461 109.445 313.582 109.475C313.986 109.6 314.383 109.759 314.892 109.947C314.264 106.634 313.637 103.416 313.009 100.199L313.111 100.176C313.351 101.212 313.593 102.248 313.835 103.282C314.314 105.393 314.798 107.502 315.266 109.615C315.35 109.989 315.488 110.242 315.894 110.347C316.27 110.456 316.641 110.583 317.005 110.73C316.948 110.389 316.911 110.102 316.856 109.82C316.16 106.282 315.455 102.747 314.764 99.2051C314.741 99.0262 314.664 98.8585 314.544 98.7236C314.425 98.5886 314.267 98.4925 314.093 98.4477C311.204 97.4018 308.321 96.3139 305.434 95.2407C305.225 95.1654 305.015 95.0734 304.677 94.9332C304.9 94.8411 304.997 94.7617 305.08 94.7721C305.251 94.8119 305.417 94.8665 305.578 94.9353C308.354 95.9687 311.13 96.9994 313.906 98.0273C314.101 98.1005 314.302 98.3055 314.534 98.1151C314.553 98.1005 314.607 98.09 314.618 98.1005C315.12 98.7281 315.923 98.6716 316.664 99.09C316.475 98.1235 316.312 97.293 316.153 96.4624L316.256 96.4394C316.419 97.1361 316.613 97.8306 316.743 98.5314C316.831 98.9854 317.024 99.2511 317.486 99.3682C317.912 99.4971 318.331 99.6493 318.741 99.8243C318.738 99.6562 318.724 99.4885 318.699 99.3222C318.417 97.9478 318.128 96.5733 317.846 95.1989C317.815 95.0258 317.794 94.8512 317.783 94.6759L317.841 94.701Z" fill="white"/>
<path d="M333.73 59.1098C333.535 58.1663 333.363 57.3254 333.188 56.4844L333.311 56.4572C333.52 57.181 333.744 57.9028 333.953 58.6266C334.064 59.0073 334.144 59.3881 334.635 59.4634C334.709 59.4634 334.753 59.6224 334.857 59.7646H334.414C334.388 59.7939 334.361 59.8086 334.365 59.8169C334.686 60.9864 334.966 62.1558 334.757 63.4256C334.704 63.3391 334.66 63.2472 334.627 63.1516C334.395 62.1244 334.148 61.1035 333.962 60.068C333.942 59.8881 333.868 59.7185 333.75 59.5818C333.631 59.445 333.474 59.3475 333.299 59.3023C329.393 57.8672 325.488 56.4188 321.583 54.9572C321.374 54.8819 321.119 54.8735 321.004 54.6413C321.092 54.384 321.263 54.4865 321.393 54.5325C321.945 54.7292 322.489 54.9384 323.037 55.1413C326.394 56.3965 329.753 57.644 333.112 58.8839L333.74 59.1077" fill="white"/>
<path d="M324.61 44.1939C324.782 44.2483 324.93 44.2817 325.074 44.3361C328.155 45.4826 331.236 46.6297 334.317 47.7775C334.509 47.8507 334.811 47.836 334.788 48.2314C334.681 48.2263 334.575 48.2094 334.472 48.1812C331.278 47.0013 328.087 45.8159 324.899 44.6248C324.75 44.5683 324.466 44.5746 324.61 44.1897" fill="white"/>
<path d="M297.35 116.981C297.818 118.958 298.291 120.932 298.77 122.96H297.981C297.697 120.997 297.488 118.995 297.354 116.981" fill="white"/>
<path d="M334.763 36.7255C333.926 36.4222 333.171 36.1439 332.41 35.8615C331.025 35.3469 329.638 34.8343 328.257 34.3113C328.11 34.2549 327.818 34.2695 327.96 33.9118C328.064 33.9194 328.167 33.9376 328.267 33.9662C330.309 34.7193 332.352 35.4766 334.395 36.2381C334.573 36.3071 334.828 36.3259 334.763 36.7255Z" fill="white"/>
<path d="M295.726 118.472L296.86 122.953H296.096C295.935 121.458 295.776 119.977 295.615 118.495L295.726 118.472Z" fill="white"/>
<path d="M331.214 23.4664C332.386 23.9309 333.574 24.3995 334.758 24.8743C334.781 24.8869 334.775 24.981 334.79 25.0835C334.697 25.0974 334.604 25.0974 334.511 25.0835C333.468 24.7028 332.428 24.3172 331.39 23.9267C331.221 23.8618 330.972 23.8158 331.214 23.4769" fill="white"/>
<path d="M294.949 122.964H294.24C294.15 121.918 294.062 120.916 293.975 119.899L294.088 119.876C294.37 120.889 294.657 121.905 294.949 122.964" fill="white"/>
<path d="M334.679 54.8526C334.493 53.9258 334.311 53.0012 334.125 52.0765C334.543 52.9551 334.947 53.8422 334.679 54.8526Z" fill="white"/>
<path d="M292.459 121.343C292.631 121.863 292.806 122.389 292.997 122.958C292.788 122.972 292.635 122.978 292.415 122.991C292.388 122.43 292.361 121.901 292.338 121.37C292.38 121.37 292.417 121.349 292.459 121.343Z" fill="white"/>
<path d="M317.855 94.6864C317.777 94.3935 317.706 94.0986 317.629 93.8057C317.669 93.8016 317.709 93.7953 317.748 93.7869C317.782 94.0923 317.813 94.3935 317.842 94.6969L317.855 94.6864" fill="white"/>
<path d="M361.396 77.4964C360.862 77.2077 360.35 76.9107 359.818 76.6408C358.413 75.9232 356.928 75.3734 355.394 75.0028C353.471 74.5279 351.525 74.1262 349.59 73.6973C349.381 73.6471 349.172 73.6011 348.982 73.5551C348.925 73.2287 349.097 73.258 349.287 73.2978C350.185 73.4756 351.088 73.6367 351.982 73.8229C354.325 74.3166 356.647 74.8961 358.864 75.8249C359.638 76.1284 360.383 76.5023 361.088 76.942C361.278 77.0675 361.506 77.1512 361.396 77.4964" fill="white"/>
<path d="M349.246 63.1432C349.386 63.1453 349.526 63.1558 349.664 63.1746C352.125 63.6809 354.562 64.275 356.874 65.2833C357.371 65.4925 357.855 65.7519 358.338 66.0197C358.482 66.0992 358.574 66.2708 358.775 66.4946C358.68 66.4997 358.584 66.4934 358.491 66.4758C356.42 65.2603 354.15 64.5762 351.842 63.9968C351.106 63.8148 350.361 63.6704 349.623 63.5051C349.447 63.4633 349.223 63.4717 349.261 63.1432" fill="white"/>
<path d="M348.91 53.2334C349.592 53.3924 350.199 53.5221 350.793 53.6748C352.311 54.034 353.784 54.5603 355.186 55.2438C355.395 55.3526 355.669 55.43 355.605 55.7835C355.55 55.7834 355.495 55.7742 355.443 55.7563C353.561 54.725 351.519 54.1685 349.45 53.6811C349.253 53.6372 348.96 53.6978 348.921 53.2334" fill="white"/>
<path d="M342.571 128.773L341.826 128.694C341.757 127.537 341.692 126.393 341.617 125.267C341.663 125.267 341.705 125.255 341.747 125.248C342.013 126.391 342.276 127.537 342.565 128.773" fill="white"/>
<path d="M348.119 42.9011C349.414 43.2301 350.675 43.6827 351.884 44.2525C352.093 44.3509 352.25 44.4617 352.2 44.7672C352.062 44.7023 351.945 44.6458 351.826 44.5998C350.715 44.1814 349.602 43.763 348.495 43.3446C348.328 43.2756 348.022 43.3132 348.121 42.899" fill="white"/>
<path d="M348.569 33.8217C347.965 33.5623 347.435 33.3301 346.896 33.1083C346.859 33.0999 346.825 33.0838 346.795 33.0611C346.765 33.0384 346.74 33.0095 346.722 32.9765C346.704 32.9435 346.693 32.907 346.69 32.8695C346.687 32.832 346.693 32.7943 346.705 32.759C347.638 32.9263 348.396 33.3343 348.563 33.8217" fill="white"/>
</svg>
