<svg width="272" height="127" viewBox="0 0 272 127" fill="none" xmlns="http://www.w3.org/2000/svg">
<path d="M91.0734 122.78C87.2519 125.341 83.1359 126.181 79.5662 126.181H77.6345V111.396H78.7262C83.2618 111.396 86.3307 112.152 87.3367 113.16H87.4241V109.129H87.3367C86.3281 110.091 83.2618 110.641 78.7262 110.641H77.6345V97.1151H79.3564C83.2261 97.1279 87.018 98.2034 90.3182 100.224H90.4056L89.8191 96.3599H70.9557V126.937H90.2352L91.1582 122.78H91.0734ZM51.4708 96.3599V110.641H38.996V96.3599H32.3189V126.937H38.996V111.396H51.4708V126.937H58.1496V96.3599H51.4708ZM23.2696 96.3599H0.630208L0 100.938H0.0874075C3.44823 98.1237 5.46384 97.1151 7.9838 97.1151H8.61401V126.937H15.2928V97.1151H15.9641C18.4841 97.1151 20.4586 98.1237 23.8186 100.938H23.906L23.2696 96.3599Z" fill="white"/>
<path d="M167.577 126.266C161.696 126.266 158.421 120.132 158.421 110.976C158.421 101.987 161.235 96.0243 167.325 96.0243C173.163 96.0243 176.44 102.156 176.44 111.312C176.44 120.343 173.625 126.266 167.577 126.266ZM167.115 126.937C176.691 126.937 183.706 120.762 183.706 110.854C183.706 100.984 176.775 95.3547 167.702 95.3547C158.126 95.3547 151.112 101.529 151.112 111.438C151.112 121.308 158.042 126.937 167.115 126.937ZM131.941 113.161C130.934 113.161 130.135 113.035 129.505 112.825V96.5269H131.986C136.438 96.5269 138.244 100.097 138.244 104.928C138.244 110.052 136.227 113.161 131.943 113.161M133.371 95.8538H122.83V126.431H129.507V113.582C130.789 113.739 132.08 113.823 133.371 113.833C140.722 113.833 145.216 110.137 145.216 104.426C145.216 99.0486 141.268 95.86 133.371 95.86" fill="white"/>
<path d="M200.122 96.3601H193.443V126.937H200.122V96.3601Z" fill="white"/>
<path d="M235.335 95.8557C236.134 99.2157 236.636 103.332 236.636 109.212V116.563L220.966 95.8557H213.029V95.9816L215.885 99.6772V113.077C215.885 118.957 215.381 123.073 214.582 126.433H218.026C217.229 123.073 216.725 118.957 216.725 113.077V100.771L236.927 126.937H237.473V109.212C237.473 103.332 237.977 99.2157 238.776 95.8557H235.335Z" fill="white"/>
<path d="M271.368 96.3601H248.73L248.1 100.939H248.187C251.548 98.124 253.563 97.1153 256.083 97.1153H256.714V126.937H263.392V97.1153H264.058C266.578 97.1153 268.553 98.124 271.913 100.939H272L271.368 96.3601Z" fill="white"/>
<path d="M149.929 58.8727H150.433C150.306 58.7215 150.202 58.6209 150.032 58.5737C149.995 58.6751 149.966 58.766 149.929 58.8727ZM138.828 54.9909C139.013 55.1229 139.162 55.2322 139.315 55.3405L139.804 55.6806V54.1632L138.828 54.9909ZM132.336 60.9198L128.033 60.8577V61.057H128.312C129.354 61.0745 130.397 61.0908 131.441 61.1059C131.704 61.1112 131.966 61.1112 132.222 61.1156C132.353 61.1156 132.37 61.05 132.336 60.9198ZM155.27 56.9139C155.084 57.4742 154.9 58.024 154.703 58.6113L155.678 58.5493C155.659 57.9829 155.64 57.4418 155.619 56.8824L155.269 56.9139M149.768 58.4724C149.078 58.426 148.418 58.4068 147.751 58.3928C147.683 58.6061 147.619 58.801 147.547 59.0239C148.261 58.9889 148.939 58.9557 149.617 58.9208C149.668 58.7695 149.71 58.6411 149.768 58.4724ZM146.475 60.8708C146.542 60.8708 146.597 60.8822 146.649 60.8796C147.456 60.8437 148.263 60.8123 149.068 60.7712C150.451 60.6978 151.834 60.6214 153.217 60.5422C153.753 60.5116 154.291 60.4731 154.827 60.4434C154.959 60.4355 155.04 60.3875 155.06 60.2424L146.465 60.7056C146.465 60.7659 146.465 60.814 146.473 60.8708M150.203 57.1691L148.134 57.2565C148.04 57.5354 147.953 57.7941 147.858 58.079L149.873 58.1551C149.981 57.8343 150.086 57.5205 150.203 57.1691ZM126.15 60.8158C126.056 60.8088 125.969 60.8009 125.881 60.7983C125.482 60.7869 125.082 60.7808 124.683 60.7642C123.292 60.7112 121.9 60.6546 120.508 60.5946C119.679 60.5579 118.848 60.5072 118.02 60.4635C117.573 60.4399 117.126 60.4189 116.679 60.3927C116.551 60.3857 116.453 60.4049 116.435 60.5754C119.669 60.7633 122.903 60.925 126.15 61.0046V60.8158ZM153.448 49.7316C153.489 50.0192 153.524 50.2561 153.558 50.4964C153.722 51.6817 153.886 52.8663 154.051 54.0504C154.052 54.1062 154.073 54.1598 154.11 54.2016C154.22 54.2966 154.349 54.3678 154.488 54.4105C154.488 54.3231 154.482 54.2462 154.474 54.1745C154.379 53.375 154.284 52.575 154.187 51.7743C154.124 51.2569 154.057 50.7403 153.984 50.2246C153.977 50.1376 153.941 50.0555 153.881 49.9921C153.741 49.8942 153.595 49.8066 153.444 49.7299M153.671 53.9141C153.486 52.4532 153.303 51.0016 153.12 49.5594L152.596 49.319C152.644 49.6276 152.683 49.8916 152.723 50.1555C152.877 51.2341 153.044 52.3119 153.175 53.3896C153.21 53.6903 153.337 53.8433 153.603 53.9202C153.611 53.9202 153.618 53.9202 153.673 53.9106M151.765 48.9878C151.771 49.0542 151.771 49.0865 151.777 49.1163C151.883 49.8085 151.993 50.5008 152.096 51.1931C152.197 51.8708 152.292 52.5485 152.382 53.2262C152.383 53.2746 152.4 53.3215 152.429 53.3597C152.459 53.3979 152.501 53.4253 152.548 53.4377C152.635 53.4665 152.722 53.5032 152.834 53.5443C152.823 53.3992 152.819 53.2865 152.804 53.1737C152.696 52.3101 152.588 51.4439 152.476 50.5803C152.424 50.1686 152.365 49.7561 152.301 49.3453C152.295 49.2762 152.264 49.2117 152.214 49.1643C152.069 49.0978 151.921 49.0394 151.77 48.9895M152.032 53.2244C151.861 51.7455 151.682 50.3067 151.456 48.8785C151.271 48.8173 151.114 48.7649 150.931 48.7037C150.941 48.7789 150.945 48.8164 150.952 48.8549C151.092 49.7456 151.235 50.6371 151.372 51.5278C151.44 51.9701 151.496 52.4141 151.566 52.8547C151.573 52.9401 151.609 53.0205 151.669 53.0819C151.764 53.1475 151.889 53.1693 152.035 53.2235M150.105 48.4607C150.336 49.9143 150.563 51.3451 150.792 52.7865L151.229 52.9298C151.064 51.4693 150.866 50.0454 150.649 48.6215C150.546 48.5857 150.453 48.5542 150.362 48.5254C150.285 48.5035 150.207 48.486 150.11 48.4607M149.284 48.2317C149.28 48.2642 149.278 48.2969 149.278 48.3296C149.489 49.6151 149.701 50.9002 149.914 52.1851C149.978 52.5715 149.978 52.5715 150.42 52.6414C150.253 51.2158 150.054 49.7998 149.83 48.3742C149.647 48.3252 149.47 48.2806 149.284 48.2317ZM149.619 52.4273C149.444 50.9763 149.244 49.569 149.007 48.1556L148.434 48.0158C148.681 49.4589 148.923 50.8749 149.166 52.2988L149.615 52.4255M148.803 52.1947C148.797 52.1073 148.795 52.0531 148.787 51.9998C148.619 50.8303 148.45 49.662 148.281 48.4948C148.199 47.9231 148.199 47.9231 147.635 47.8314C147.629 47.8314 147.621 47.8357 147.598 47.8453C147.847 49.2439 148.099 50.6538 148.355 52.0855C148.488 52.117 148.634 52.1537 148.803 52.1947ZM152.69 45.1663C152.696 45.2458 152.696 45.2939 152.704 45.3411C152.862 46.2548 153.02 47.1676 153.179 48.0796C153.252 48.5044 153.314 48.931 153.388 49.3558C153.398 49.4409 153.437 49.5203 153.497 49.5813C153.634 49.6744 153.777 49.7574 153.926 49.8295C153.912 49.6914 153.906 49.5891 153.89 49.4877C153.815 48.9563 153.738 48.4254 153.659 47.8952C153.543 47.147 153.426 46.4002 153.31 45.6549C153.299 45.5765 153.261 45.5046 153.201 45.453C153.048 45.349 152.879 45.2694 152.693 45.1681M152.423 45.0387C152.229 44.9592 152.039 44.8796 151.821 44.7913C151.827 44.856 151.827 44.8866 151.833 44.9163C151.903 45.3 151.979 45.6838 152.045 46.0684C152.214 47.0386 152.376 48.0114 152.548 48.9799C152.558 49.0574 152.596 49.1286 152.654 49.1801C152.795 49.2556 152.941 49.3215 153.091 49.3776C152.894 47.9057 152.663 46.4809 152.422 45.0387M147.974 51.9867C148.005 51.6686 147.555 48.5778 147.363 47.7676L146.742 47.6356C147.011 49.0673 147.275 50.4658 147.543 51.8853L147.974 51.9867M152.25 49.0149C152.241 48.8986 152.241 48.8191 152.228 48.7395C152.119 48.0257 152.007 47.3107 151.894 46.5945C151.8 46.0098 151.698 45.4242 151.603 44.8385C151.602 44.798 151.589 44.7586 151.566 44.7256C151.542 44.6926 151.509 44.6677 151.471 44.6541C151.31 44.6017 151.151 44.5475 150.959 44.4793C150.973 44.5894 150.98 44.6672 150.995 44.7415C151.118 45.3971 151.245 46.0526 151.364 46.7064C151.483 47.3602 151.593 48.0175 151.714 48.6757C151.721 48.7383 151.753 48.7956 151.801 48.8357C151.937 48.9021 152.083 48.9449 152.253 49.0105M150.079 44.2162C150.202 44.8481 150.318 45.4128 150.429 45.9792C150.58 46.786 150.723 47.5945 150.874 48.4004C150.877 48.431 150.886 48.4607 150.901 48.4876C150.916 48.5145 150.937 48.538 150.961 48.5568C151.104 48.6189 151.257 48.6574 151.452 48.7203C151.21 47.251 150.977 45.8358 150.743 44.412C150.52 44.3473 150.323 44.2879 150.084 44.2162M145.87 47.4503C145.887 47.5569 145.895 47.6207 145.908 47.6828C146.05 48.3497 146.196 49.0166 146.329 49.6861C146.45 50.2919 146.557 50.9002 146.671 51.5077C146.686 51.5838 146.679 51.6825 146.783 51.7053C146.913 51.7367 147.045 51.7621 147.214 51.7988C147.024 50.3653 146.813 48.9729 146.552 47.5875C146.323 47.5429 146.115 47.5001 145.87 47.4503ZM150.634 48.4581C150.385 46.9905 150.145 45.5736 149.904 44.1672C149.664 44.1034 149.467 44.0178 149.235 44.009C149.516 45.446 149.794 46.862 150.077 48.292C150.244 48.3418 150.412 48.3908 150.634 48.4581ZM153.239 45.2887C153.222 45.1532 153.212 45.064 153.198 44.9766C153.159 44.7441 153.118 44.5125 153.076 44.2774C152.896 43.2608 152.715 42.2443 152.529 41.2277C152.525 41.1553 152.494 41.0871 152.442 41.0363C152.248 40.9139 152.04 40.809 151.804 40.6797C151.812 40.7671 151.812 40.8108 151.82 40.8484C151.98 41.6455 152.145 42.4409 152.304 43.2398C152.403 43.7424 152.494 44.2468 152.597 44.7485C152.616 44.8473 152.597 44.9644 152.721 45.0238C152.882 45.0999 153.037 45.1838 153.239 45.2861M130.753 52.2227C130.603 54.0364 130.454 55.8353 130.307 57.649H130.72C130.808 57.3308 131.263 52.4045 131.225 52.2227H130.753ZM148.364 43.7923C148.661 45.2354 148.95 46.6417 149.238 48.0586C149.326 48.0831 149.413 48.1102 149.494 48.132C149.576 48.1539 149.675 48.1766 149.772 48.2002C149.772 47.8314 149.136 44.2442 149.017 43.9286C148.852 43.8875 148.678 43.8412 148.505 43.8045C148.458 43.7974 148.41 43.7933 148.362 43.7923M146.408 51.6196C146.218 50.194 145.995 48.8095 145.721 47.424C145.468 47.3742 145.232 47.3296 144.984 47.2824C145.295 48.7107 145.596 50.1127 145.902 51.5191C146.068 51.5506 146.224 51.5829 146.408 51.6179M150.885 40.296C150.91 40.4349 150.922 40.5206 150.941 40.6045C151.044 41.0984 151.154 41.5896 151.256 42.0843C151.418 42.871 151.574 43.6577 151.736 44.4487C151.75 44.5107 151.762 44.6017 151.802 44.6235C151.98 44.7216 152.171 44.7931 152.369 44.8359C152.369 44.7826 152.369 44.7485 152.361 44.7205C152.25 44.0964 152.144 43.4715 152.029 42.8474C151.903 42.1604 151.771 41.4733 151.638 40.7872C151.624 40.7138 151.591 40.6124 151.538 40.5818C151.341 40.4804 151.131 40.4026 150.885 40.2986M147.476 43.5842C147.789 45.0387 148.093 46.4451 148.398 47.8558C148.584 47.9004 148.76 47.9817 148.964 47.9703C148.957 47.896 148.957 47.8384 148.946 47.7824C148.801 46.9494 148.656 46.1156 148.509 45.2817C148.422 44.8176 148.327 44.356 148.236 43.8928C148.222 43.8194 148.22 43.7416 148.128 43.7223C147.925 43.6778 147.719 43.6349 147.481 43.5842M149.978 39.9822C150.055 40.3231 150.123 40.6141 150.185 40.9069C150.416 41.9899 150.643 43.0755 150.877 44.1567C150.889 44.2223 150.925 44.3132 150.976 44.3316C151.145 44.405 151.326 44.4522 151.529 44.5212C151.512 44.3893 151.502 44.2931 151.486 44.1996C151.429 43.8779 151.372 43.5589 151.312 43.2381C151.13 42.2923 150.945 41.351 150.765 40.4061C150.761 40.3499 150.738 40.2967 150.7 40.2545C150.663 40.2123 150.613 40.1833 150.557 40.1718C150.377 40.1229 150.202 40.0538 149.978 39.9778M146.583 43.3972C146.914 44.8464 147.235 46.2563 147.558 47.6627C147.751 47.7208 147.95 47.7603 148.15 47.7807C148.137 47.674 148.133 47.5927 148.12 47.5184C148.005 46.8847 147.896 46.2519 147.77 45.6217C147.644 44.9915 147.517 44.3613 147.39 43.7319C147.374 43.6524 147.37 43.5615 147.271 43.5388C147.05 43.4933 146.827 43.4514 146.579 43.4007M150.838 36.2892C150.821 36.3014 150.807 36.3145 150.793 36.3259C150.848 36.5549 150.903 36.7822 150.954 37.0112C151.202 38.1143 151.451 39.2179 151.7 40.3222C151.715 40.3921 151.729 40.4909 151.778 40.5197C151.981 40.6403 152.198 40.7409 152.452 40.8694C152.39 40.5468 152.341 40.2759 152.285 40.0075C152.07 38.9545 151.855 37.9019 151.639 36.8495C151.622 36.7621 151.604 36.6747 151.511 36.6283C151.285 36.5165 151.06 36.402 150.838 36.2892ZM149.081 39.7226C149.412 41.2006 149.73 42.6245 150.051 44.0641C150.251 44.1218 150.45 44.1821 150.679 44.2485C150.667 44.1436 150.662 44.0641 150.647 43.9863C150.508 43.2512 150.37 42.5161 150.225 41.7828C150.115 41.2242 149.996 40.6674 149.883 40.1089C149.866 40.0171 149.841 39.9341 149.737 39.9087C149.533 39.8546 149.331 39.7942 149.081 39.7226ZM151.552 40.4175C151.541 40.3301 151.536 40.2741 151.525 40.2208C151.275 39.0364 151.007 37.8547 150.785 36.6642C150.72 36.3189 150.577 36.1284 150.247 36.0523C150.119 36.0235 149.996 35.9728 149.843 35.923C149.874 36.0532 149.894 36.1397 149.915 36.2254C150.053 36.8032 150.195 37.3792 150.332 37.9561C150.489 38.6195 150.639 39.2864 150.796 39.9498C150.813 40.0232 150.848 40.1246 150.903 40.1491C151.104 40.2488 151.315 40.3239 151.552 40.4175ZM148.169 39.4866C148.181 39.5679 148.181 39.6002 148.189 39.6317C148.363 40.3668 148.55 41.1019 148.724 41.8387C148.868 42.4506 149.003 43.0624 149.141 43.6743C149.159 43.7529 149.162 43.836 149.265 43.8596C149.452 43.9033 149.635 43.9522 149.839 44.0029C149.832 43.9251 149.832 43.8762 149.822 43.8281C149.678 43.0851 149.533 42.3422 149.385 41.601C149.266 41.0179 149.135 40.4376 149.013 39.8572C148.995 39.7759 148.986 39.6928 148.888 39.6675L148.173 39.4874M130.102 57.6507C130.252 55.8353 130.398 54.0373 130.547 52.2315H129.779C129.76 54.046 129.742 55.8423 129.725 57.6507H130.102ZM130.94 57.6638C131.44 57.6857 131.902 57.6874 132.411 57.6909C132.065 56.254 131.73 54.8598 131.395 53.4665C131.379 53.4694 131.364 53.4715 131.348 53.4726C131.214 54.8572 131.079 56.2426 130.94 57.6682M152.584 57.0564C151.867 57.0966 151.179 57.1123 150.501 57.1621L150.152 58.211C150.369 58.4016 150.553 58.5703 150.744 58.7355C150.798 58.7921 150.869 58.83 150.946 58.8438C151.296 58.8368 151.646 58.8115 152 58.7923C152.194 58.2154 152.382 57.656 152.583 57.0581M154.394 58.6445C154.584 58.0738 154.77 57.5135 154.966 56.9296L152.884 57.0441C152.691 57.6201 152.504 58.1804 152.303 58.7765L154.394 58.6445ZM140.989 54.3275V57.8404C141.256 57.9068 142.248 57.9226 142.436 57.864C142.401 56.753 142.365 55.6412 142.328 54.5067L140.989 54.3319M142.213 50.7805C142.192 50.1258 142.17 49.4799 142.147 48.799L140.273 53.7523L142.316 54.0198C142.282 52.9823 142.249 51.9771 142.217 50.9702C142.042 50.9282 141.887 50.8915 141.7 50.8487C141.875 50.6739 142.034 50.8286 142.213 50.7849M139.777 57.8448C139.789 57.815 139.798 57.784 139.804 57.7521C139.804 57.3055 139.804 56.8562 139.815 56.4095C139.815 56.2889 139.749 56.2347 139.67 56.1753C139.312 55.9078 138.956 55.6377 138.597 55.3703C138.556 55.3435 138.513 55.3207 138.469 55.3021C137.534 56.0992 136.606 56.8885 135.678 57.6769C135.683 57.6953 135.689 57.7128 135.695 57.7303L139.777 57.8448ZM133.251 59.7774C133.354 59.7826 133.432 59.7887 133.513 59.7887C136.824 59.7983 140.135 59.7634 143.442 59.6489C145.896 59.5615 148.346 59.4513 150.798 59.3272C152.71 59.2284 154.621 59.093 156.533 58.9776C156.582 58.9754 156.631 58.9701 156.679 58.9618C156.761 58.9461 156.824 58.8945 156.799 58.8106C156.771 58.758 156.724 58.7178 156.667 58.6979C156.619 58.6875 156.569 58.6875 156.52 58.6979C155.781 58.7486 155.04 58.8028 154.301 58.8491C152.755 58.9444 151.209 59.0431 149.663 59.1235C148.41 59.1906 147.157 59.2453 145.905 59.2879C143.924 59.356 141.945 59.4277 139.961 59.4627C137.889 59.5011 135.82 59.5038 133.748 59.5134C133.65 59.5099 133.553 59.5323 133.466 59.5783C133.38 59.6244 133.307 59.6924 133.255 59.7756M139.827 52.2839H135.078L138.667 54.872C138.896 54.678 139.121 54.4909 139.342 54.2995C139.511 54.1535 139.724 54.0373 139.707 53.7663C139.709 53.7584 139.712 53.7508 139.717 53.7445C139.812 53.5552 139.852 53.3435 139.835 53.1326C139.835 52.9368 139.835 52.741 139.841 52.547C139.841 52.4675 139.833 52.3879 139.827 52.2848M140.9 41.9707C140.917 44.8219 140.935 47.6635 140.952 50.4955C140.997 50.4723 141.032 50.4321 141.047 50.3837C141.388 49.382 141.73 48.3812 142.064 47.3768C142.094 47.2677 142.106 47.1542 142.097 47.0412C142.054 45.5663 142.007 44.0921 141.957 42.6184C141.951 42.4086 141.937 42.1988 141.926 41.9707H140.9ZM133.82 59.2634C133.828 59.2809 133.834 59.2984 133.842 59.3158C138.306 59.3223 142.772 59.2278 147.238 59.0326L147.449 58.3911C147.362 58.3832 147.305 58.3753 147.249 58.3736C146.411 58.3465 145.571 58.3185 144.733 58.294C143.315 58.2509 141.897 58.2101 140.479 58.1717C138.801 58.1245 137.124 58.0843 135.445 58.0283C135.385 58.0262 135.325 58.0362 135.268 58.0575C135.212 58.0788 135.16 58.111 135.116 58.1524C134.834 58.3989 134.547 58.6393 134.26 58.8832C134.114 59.009 133.966 59.1358 133.823 59.2634M123.049 59.0842C123.362 59.0991 123.661 59.1166 123.963 59.1244C125.331 59.1655 126.699 59.2118 128.071 59.2389C129.798 59.2739 131.526 59.2914 133.252 59.3185C133.313 59.3221 133.373 59.3137 133.43 59.2937C133.487 59.2738 133.54 59.2426 133.585 59.2022C133.984 58.8526 134.389 58.5134 134.794 58.1717C134.835 58.1434 134.878 58.1202 134.925 58.1026C134.911 58.0773 134.897 58.0537 134.883 58.0301C134.764 58.0301 134.645 58.0205 134.527 58.0205L123.794 57.9164C123.721 57.9139 123.647 57.9172 123.575 57.9261C123.443 57.9387 123.32 57.9962 123.225 58.089C123.131 58.1818 123.072 58.3042 123.057 58.4356C123.044 58.6516 123.044 58.8682 123.057 59.0842M141.907 41.2959C141.907 41.1508 141.907 41.0381 141.907 40.9235C141.881 40.0932 141.852 39.2628 141.826 38.4307C141.788 37.2419 141.75 36.0523 141.713 34.8618C141.635 32.4004 141.556 29.9399 141.476 27.4803C141.441 26.3883 141.405 25.2962 141.369 24.2042C141.295 21.8827 141.219 19.5603 141.142 17.237C141.102 16.0133 141.067 14.7896 141.027 13.572C140.952 11.1997 140.875 8.82867 140.797 6.45876C140.774 5.77086 140.75 5.08559 140.728 4.39769C140.705 4.55945 140.696 4.72295 140.701 4.8863C140.709 6.87686 140.718 8.86625 140.728 10.8545C140.763 16.9363 140.799 23.0184 140.836 29.1008C140.859 33.0709 140.88 37.0409 140.9 41.011C140.9 41.1062 140.907 41.2006 140.909 41.2959H141.907ZM138.006 5.84253L137.958 5.82768C132.17 21.1613 126.202 36.4253 120.055 51.6196C120.187 51.6782 120.274 51.6624 120.324 51.5322C120.341 51.4867 120.363 51.4448 120.384 51.3993C123.507 44.502 126.415 37.5164 129.162 30.4617C132.294 22.4138 135.217 14.2911 137.93 6.09339C137.957 6.01123 137.979 5.92645 138.002 5.84253M135.109 57.6857C135.284 57.7495 135.371 57.6735 135.468 57.5922L138.186 55.2785C138.225 55.2435 138.259 55.2007 138.302 55.1544C138.257 55.1177 138.229 55.0897 138.197 55.067C136.991 54.162 135.786 53.2565 134.584 52.3503C134.486 52.2768 134.366 52.2391 134.244 52.2437C133.389 52.2402 132.533 52.2352 131.677 52.2288C131.614 52.2288 131.55 52.2367 131.478 52.2419C131.425 52.4576 131.42 52.6822 131.462 52.9001C131.833 54.4437 132.204 55.9879 132.576 57.5327C132.593 57.5875 132.613 57.6412 132.636 57.6936H132.934M142.642 57.9287L147.558 58.072C147.662 57.7617 147.754 57.4846 147.848 57.2084C147.922 56.9873 147.935 56.9856 148.158 56.9759C149.07 56.941 149.981 56.9104 150.893 56.8658C152.398 56.7915 153.903 56.7085 155.408 56.6289C155.466 56.6235 155.525 56.615 155.582 56.6036V56.254L142.531 54.539C142.567 55.6753 142.602 56.7915 142.638 57.9304M140.007 0.935476C139.85 0.855935 139.798 0.935476 139.762 1.04998C139.655 1.39961 139.544 1.74924 139.434 2.09887C137.135 9.31698 134.638 16.4678 131.998 23.5688C128.685 32.473 125.131 41.2793 121.254 49.9554C121.223 50.0262 121.195 50.0996 121.167 50.173C121.234 50.1172 121.289 50.0478 121.327 49.9693C122.35 48.1417 123.319 46.2843 124.25 44.4085C126.692 39.4866 128.864 34.444 130.856 29.3246C133.056 23.6754 135.029 17.9476 136.82 12.1551C137.937 8.54518 138.985 4.91427 139.929 1.25364C139.957 1.147 139.982 1.03774 140.007 0.933728M142.269 46.4932C142.289 46.4932 142.308 46.4932 142.327 46.4993C142.373 46.3367 142.422 46.175 142.469 46.0107C143.352 42.9665 144.011 39.8616 144.44 36.721C144.632 35.3085 144.766 33.8881 144.904 32.4686C145.047 30.9906 145.114 29.5081 145.127 28.0231C145.14 26.538 145.127 25.0565 145.08 23.5732C145.031 21.8617 144.906 20.1546 144.71 18.4519C144.583 17.3349 144.448 16.2187 144.293 15.1051C144.061 13.4758 143.768 11.8562 143.424 10.2461C142.841 7.42863 142.086 4.64943 141.164 1.92406C141.069 1.65047 140.968 1.37951 140.871 1.10767C140.835 1.18054 140.82 1.26196 140.828 1.3428C140.865 2.59039 140.903 3.83741 140.943 5.08384C140.977 6.24228 141.014 7.39926 141.052 8.55479C141.127 10.846 141.202 13.1361 141.276 15.425C141.318 16.6802 141.354 17.9354 141.394 19.1905C141.471 21.5529 141.548 23.9161 141.625 26.2802C141.663 27.4619 141.698 28.6402 141.736 29.8245C141.813 32.2049 141.89 34.5845 141.969 36.9631C142.014 38.3576 142.06 39.7514 142.107 41.1447C142.111 41.1887 142.119 41.2322 142.13 41.2749C142.407 41.3431 142.51 41.4244 142.516 41.5975C142.526 41.6698 142.508 41.7431 142.466 41.8029C142.362 41.889 142.251 41.9662 142.134 42.0336C142.18 43.4959 142.227 44.9915 142.275 46.487M142.8 5.6415C142.822 5.73415 142.841 5.82767 142.866 5.92033C143.391 7.87039 143.834 9.8423 144.206 11.8273C144.507 13.4374 144.774 15.0544 144.957 16.6819C145.111 18.0499 145.261 19.4195 145.374 20.7901C145.461 21.8941 145.506 23.0033 145.549 24.1116C145.638 26.5007 145.606 28.8881 145.454 31.2738C145.341 33.1046 145.16 34.9288 144.909 36.7463C144.703 38.2492 144.447 39.7421 144.141 41.2251C143.672 43.4993 143.086 45.7478 142.385 47.9616C142.353 48.0625 142.336 48.1678 142.337 48.2736C142.358 49.0717 142.385 49.8706 142.41 50.6695C142.414 50.7234 142.421 50.7771 142.431 50.8303C143.043 50.9877 143.192 50.9955 143.268 50.881C143.371 51.0366 143.617 51.1083 144.032 51.0987C143.95 50.5864 143.865 50.076 143.783 49.5673C143.819 49.6137 143.844 49.6674 143.858 49.7246C143.934 50.0314 144.006 50.3417 144.084 50.6485C144.127 50.8233 144.13 51.0445 144.241 51.1485C144.352 51.2525 144.575 51.2359 144.75 51.2752C144.763 51.2752 144.777 51.2656 144.817 51.2499C144.687 50.2622 144.499 49.2753 144.316 48.2894L144.367 48.2798C144.6 49.2931 144.833 50.3065 145.066 51.3198C145.329 51.4072 145.442 51.4282 145.614 51.4072C145.426 50.0203 145.187 48.6393 144.898 47.2641C144.273 47.1478 143.662 47.0368 143.055 46.9249C143.055 46.7912 143.119 46.7982 143.189 46.8104C143.389 46.8454 143.59 46.8821 143.79 46.9188C144.087 46.973 144.382 47.0298 144.68 47.0814C144.752 47.0936 144.845 47.1382 144.866 47.0368C145.094 47.2431 145.399 47.1802 145.703 47.2816C145.607 46.8008 145.522 46.3655 145.441 45.9276C145.493 45.9932 145.529 46.0711 145.544 46.154C145.631 46.4844 145.703 46.8183 145.792 47.1496C145.808 47.2099 145.857 47.2964 145.908 47.3104C146.1 47.3646 146.3 47.3926 146.538 47.4389C146.348 46.4844 146.164 45.5666 145.982 44.6489L146.031 44.6375C146.254 45.5797 146.476 46.5194 146.697 47.4564C146.976 47.5569 147.149 47.5884 147.347 47.5709C147.097 46.1724 146.822 44.7738 146.507 43.3753L144.115 42.9261C144.115 42.7845 144.19 42.8089 144.254 42.8194L145.552 43.0502C145.814 43.0982 146.065 43.1507 146.321 43.197C146.387 43.2075 146.467 43.1743 146.523 43.2014C146.766 43.3211 147.03 43.3273 147.328 43.3928C147.218 42.8754 147.116 42.3964 147.014 41.9174C147.061 41.9759 147.094 42.0452 147.108 42.1193C147.206 42.5065 147.301 42.8946 147.401 43.2809C147.417 43.3369 147.456 43.4182 147.499 43.4286C147.716 43.482 147.929 43.5615 148.182 43.5563C147.953 42.4986 147.73 41.4585 147.506 40.4236C147.621 40.7543 147.717 41.0911 147.795 41.4323C147.959 42.1053 148.117 42.7801 148.28 43.4514C148.296 43.5169 148.335 43.6087 148.383 43.6262C148.579 43.69 148.785 43.7302 149.041 43.7923C148.726 42.3159 148.424 40.8947 148.117 39.4499L144.927 38.7934C144.94 38.6658 145.014 38.6815 145.086 38.6964C145.596 38.796 146.11 38.8904 146.621 38.9936C147.091 39.0889 147.558 39.192 148.032 39.296C148.042 39.2357 148.05 39.1859 148.056 39.1413C148.096 39.2069 148.118 39.3074 148.169 39.3231C148.422 39.4089 148.681 39.4732 148.944 39.5154C148.883 39.2401 148.829 39.0032 148.777 38.7663C148.724 38.5295 148.676 38.2987 148.626 38.0671C148.639 38.0636 148.652 38.061 148.666 38.0592C148.791 38.5539 148.917 39.0504 149.044 39.5591C149.293 39.6273 149.537 39.6981 149.831 39.7785C149.602 38.748 149.386 37.7681 149.168 36.7892C149.27 37.0469 149.351 37.3123 149.411 37.5828C149.577 38.2646 149.739 38.9455 149.906 39.6264C149.924 39.7007 149.952 39.8091 150.006 39.831C150.218 39.9184 150.443 39.9839 150.705 40.0687C150.647 39.7855 150.598 39.5443 150.546 39.3109C150.313 38.2454 150.077 37.1808 149.847 36.1135C149.839 36.0378 149.806 35.9668 149.754 35.9113C149.702 35.8558 149.633 35.8187 149.558 35.8058C149.245 35.7263 148.939 35.6153 148.627 35.5436C147.826 35.3557 147.023 35.1809 146.219 35.0026C145.975 34.9484 145.731 34.9055 145.433 34.8452C145.51 34.7867 145.543 34.7447 145.574 34.7447C145.647 34.748 145.72 34.7583 145.791 34.7753C147.062 35.0192 148.326 35.2753 149.566 35.6616C149.638 35.6852 149.737 35.6537 149.792 35.6913C150.043 35.8661 150.348 35.9046 150.66 36.0672C150.53 35.4877 150.411 34.958 150.292 34.4283C150.346 34.4927 150.383 34.5701 150.398 34.6529C150.501 35.0716 150.604 35.4912 150.711 35.9081C150.73 35.9833 150.759 36.0829 150.815 36.1153C151.052 36.2437 151.302 36.3486 151.587 36.4806C151.283 35.1494 150.99 33.8584 150.697 32.5753C150.739 32.6362 150.769 32.7048 150.785 32.7772C151.066 33.9318 151.353 35.0856 151.626 36.242C151.679 36.4605 151.746 36.6414 151.968 36.7341C151.99 36.7412 152.011 36.7527 152.029 36.7678C152.046 36.783 152.061 36.8016 152.071 36.8224C152.082 36.8433 152.088 36.866 152.089 36.8893C152.091 36.9125 152.088 36.9358 152.08 36.9579C151.981 36.9037 151.888 36.8512 151.77 36.7883C151.779 36.8547 151.782 36.8862 151.789 36.9168C152.064 38.1816 152.344 39.4464 152.613 40.7129C152.654 40.9052 152.701 41.0704 152.897 41.163C152.917 41.1697 152.934 41.1806 152.949 41.1948C152.963 41.2091 152.975 41.2264 152.982 41.2455C152.989 41.2646 152.992 41.285 152.99 41.3054C152.989 41.3257 152.983 41.3455 152.972 41.3632C152.899 41.3274 152.831 41.295 152.75 41.2539C152.747 41.2857 152.747 41.3175 152.75 41.3492C153.004 42.6761 153.258 44.0041 153.51 45.3333C153.516 45.3851 153.534 45.4348 153.563 45.4785C153.591 45.5223 153.63 45.559 153.674 45.5859C153.755 45.6357 153.816 45.6977 153.77 45.8105L153.595 45.7336C153.591 45.746 153.589 45.759 153.589 45.772C153.814 47.1624 154.042 48.5531 154.271 49.944C154.288 50.0211 154.326 50.092 154.381 50.1485C154.444 50.2158 154.514 50.27 154.485 50.3784L154.341 50.3417C154.351 50.4448 154.357 50.534 154.369 50.6232C154.544 51.9308 154.721 53.2384 154.9 54.546C154.915 54.6605 154.927 54.7689 155.026 54.8519C155.068 54.8852 155.075 54.9603 155.1 55.0268L154.979 55.0442V55.3729C154.848 55.3545 154.732 55.337 154.611 55.3178C154.59 55.1281 154.575 54.9577 154.549 54.7934C154.545 54.731 154.521 54.6717 154.481 54.6238C154.362 54.5373 154.239 54.457 154.112 54.3834C154.145 54.7033 154.174 54.9813 154.206 55.2802L153.824 55.2182C153.789 54.9096 153.758 54.6063 153.721 54.3135C153.718 54.2431 153.691 54.1756 153.645 54.1221C153.527 54.0473 153.403 53.9815 153.275 53.9254C153.326 54.3625 153.372 54.7558 153.422 55.1771L153.033 55.115C152.997 54.7654 152.963 54.4341 152.927 54.1029C152.883 53.7139 152.882 53.7139 152.507 53.5863C152.495 53.581 152.479 53.5924 152.456 53.5985C152.513 54.0793 152.572 54.56 152.631 55.0722C152.482 55.0495 152.368 55.0337 152.247 55.0145C152.229 54.8825 152.215 54.7715 152.202 54.6588C152.164 54.3021 152.131 53.9438 152.086 53.5898C152.082 53.511 152.049 53.4365 151.993 53.3809C151.877 53.3204 151.755 53.2718 151.63 53.2358C151.702 53.8363 151.77 54.3878 151.84 54.9656C151.694 54.9463 151.584 54.9306 151.461 54.9131C151.445 54.8004 151.431 54.6964 151.419 54.5915C151.368 54.1387 151.321 53.685 151.267 53.2314C151.263 53.2012 151.252 53.1722 151.236 53.1462C151.22 53.1202 151.199 53.0977 151.174 53.0802C151.057 53.0318 150.937 52.9921 150.813 52.9613C150.856 53.3109 150.901 53.6169 150.933 53.9228C150.966 54.2287 151.009 54.5346 151.05 54.8581L150.67 54.8135C150.594 54.1404 150.521 53.4884 150.447 52.8381C150.292 52.79 150.161 52.7507 150.001 52.7026C150.077 53.4071 150.202 54.0679 150.249 54.7549C150.104 54.7357 149.995 54.7217 149.881 54.7051C149.8 53.9866 149.722 53.2926 149.644 52.596L149.188 52.4683C149.275 53.2183 149.405 53.9193 149.463 54.6535L149.092 54.6037C149.066 54.3764 149.044 54.1667 149.022 53.956C148.968 53.4788 148.918 53.0015 148.858 52.5243C148.853 52.4904 148.841 52.458 148.823 52.4292C148.805 52.4004 148.78 52.3759 148.752 52.3573C148.629 52.3142 148.504 52.2823 148.376 52.2621C148.482 53.0339 148.585 53.7777 148.689 54.5574C148.53 54.5303 148.418 54.5119 148.307 54.4944C148.22 53.6982 148.133 52.9316 148.04 52.1537C147.865 52.1537 147.729 52.0505 147.563 52.0855C147.675 52.8722 147.809 53.6492 147.89 54.456L147.522 54.3922C147.429 53.5758 147.337 52.7778 147.245 51.9727L146.75 51.8722C146.863 52.7139 147.019 53.5172 147.1 54.3511L146.735 54.2908C146.64 53.449 146.545 52.63 146.45 51.7927L145.93 51.6878C146.064 52.5531 146.192 53.3835 146.326 54.2471L145.947 54.1903C145.844 53.3249 145.782 52.4657 145.637 51.6196C145.449 51.5811 145.288 51.5479 145.092 51.5095C145.246 52.3975 145.42 53.2471 145.517 54.1396C145.376 54.1168 145.27 54.1011 145.167 54.0871C145.063 53.1973 144.962 52.3337 144.861 51.4649C144.647 51.4334 144.469 51.3504 144.263 51.3775C144.269 51.4413 144.271 51.4894 144.279 51.5366C144.416 52.2737 144.553 53.0103 144.69 53.7462C144.705 53.8336 144.744 53.9342 144.682 54.0312L144.387 53.9883C144.282 53.0915 144.178 52.2035 144.075 51.3093L143.371 51.1808C143.582 52.1082 143.797 52.9972 143.931 53.928L143.598 53.887C143.511 52.9639 143.441 52.0636 143.283 51.166C143.001 51.0989 142.715 51.0522 142.427 51.0261C142.461 52.0505 142.492 53.0496 142.525 54.0635L155.478 55.7636C153.567 38.4508 149.225 21.7935 142.803 5.66073M140.187 51.6991V2.35148C140.137 2.42621 140.101 2.50943 140.081 2.59709C138.595 8.16262 136.923 13.671 135.064 19.1224C132.977 25.289 130.677 31.3743 128.072 37.3416C125.959 42.1752 123.653 46.9136 121.03 51.492C120.998 51.5462 120.973 51.6039 120.933 51.6799L140.187 51.6991ZM118.817 54.7138C118.857 54.668 118.892 54.6189 118.924 54.567C119.273 53.8141 119.623 53.0607 119.973 52.3066C119.996 52.2559 120.012 52.2035 120.033 52.1493C119.897 52.0916 119.839 52.1493 119.79 52.2717C119.48 53.0417 119.166 53.8083 118.853 54.5784C118.839 54.6239 118.83 54.6707 118.826 54.7182C118.794 54.7383 118.77 54.77 118.761 54.8067C118.751 54.8434 118.756 54.8825 118.774 54.9157C118.791 54.8493 118.805 54.782 118.821 54.7138M120.287 52.1283L117.389 58.3028C117.315 58.1979 117.263 58.128 117.208 58.0502C118.011 56.0888 118.811 54.13 119.627 52.1379C119.47 52.1379 119.344 52.1379 119.22 52.1205C119.166 52.1168 119.116 52.0934 119.078 52.0546C119.04 52.0159 119.018 51.9646 119.016 51.9107C119.01 51.8616 119.021 51.8119 119.049 51.7706C119.076 51.7293 119.117 51.6993 119.165 51.686C119.228 51.6694 119.294 51.6623 119.359 51.6651C119.505 51.6651 119.652 51.6651 119.811 51.6651C119.858 51.5567 119.898 51.4631 119.939 51.3652C122.006 46.2082 124.089 41.0582 126.133 35.8941C130.696 24.3662 135.147 12.7946 139.488 1.17934C139.6 0.893447 139.65 0.587344 139.636 0.280794L139.973 0.251949C139.991 0.182023 140.008 0.106853 140.028 0.0176971C140.35 -0.00939924 140.666 -0.0216363 140.975 0.105105C141.106 0.159297 141.15 0.264186 141.2 0.37869C141.644 1.44594 142.097 2.51056 142.532 3.58305C145.636 11.2044 148.278 19.0057 150.445 26.9445C151.573 31.0969 152.563 35.2811 153.416 39.4971C153.895 41.8675 154.334 44.2477 154.713 46.6374C154.985 48.3593 155.23 50.0856 155.467 51.8128C155.642 53.0889 155.783 54.3686 155.94 55.6456C155.954 55.7425 155.961 55.8404 155.96 55.9384C155.966 56.0106 155.946 56.0826 155.905 56.1421C155.763 56.2697 155.798 56.4139 155.818 56.5878C155.889 56.5878 155.952 56.5878 156.014 56.5878L157.748 56.4838C157.812 56.4729 157.878 56.4729 157.942 56.4838C157.966 56.4927 157.989 56.5066 158.008 56.5247C158.027 56.5427 158.042 56.5645 158.053 56.5887C158.058 56.6046 158.059 56.6215 158.057 56.638C158.055 56.6546 158.049 56.6704 158.039 56.6843C158.03 56.6981 158.017 56.7096 158.003 56.7179C157.988 56.7262 157.972 56.731 157.956 56.7321C157.859 56.7489 157.762 56.76 157.664 56.7653L156.031 56.8693C155.967 56.8693 155.903 56.8815 155.816 56.8894C155.833 57.434 155.849 57.9671 155.866 58.5239C155.971 58.5239 156.066 58.5283 156.159 58.5239C156.322 58.5161 156.484 58.4933 156.646 58.4916C156.733 58.4838 156.819 58.5106 156.886 58.5661C156.952 58.6217 156.995 58.7014 157.003 58.7879C157.023 58.9723 156.901 59.1235 156.691 59.1568C156.595 59.1726 156.497 59.1784 156.4 59.1742C156.225 59.162 156.123 59.2328 156.04 59.3919C155.672 60.0925 155.256 60.7671 154.796 61.411C154.315 62.0903 153.785 62.7331 153.209 63.334C153.156 63.3937 153.09 63.4415 153.017 63.4744C152.944 63.5072 152.865 63.5243 152.784 63.5245C151.571 63.5726 150.357 63.6303 149.143 63.6775C147.995 63.7235 146.846 63.7655 145.697 63.8033C144.369 63.8444 143.04 63.8907 141.712 63.9135C139.504 63.9546 137.293 64.0009 135.084 64.0105C131.781 64.0163 128.478 64.0018 125.177 63.9668C123.115 63.9467 121.053 63.8864 118.991 63.8243C117.36 63.7745 115.732 63.6985 114.103 63.6329C114.054 63.6329 114.006 63.6268 113.934 63.6207C113.967 63.5551 113.99 63.4983 114.021 63.4458C114.397 62.8733 114.777 62.3034 115.144 61.7274C115.239 61.5814 115.34 61.5176 115.524 61.5753V62.1811C115.465 62.181 115.406 62.1907 115.35 62.2099C115.301 62.2353 115.268 62.2973 115.205 62.3655C115.292 62.3803 115.337 62.39 115.379 62.3961C115.421 62.4022 115.459 62.4022 115.518 62.4057C115.525 62.4669 115.536 62.5275 115.553 62.5866C115.594 62.7011 115.683 62.7239 115.785 62.6504C115.792 62.6464 115.798 62.641 115.802 62.6347C115.944 62.3882 116.172 62.4275 116.404 62.4354C118.245 62.4975 120.087 62.5683 121.93 62.6102C124.552 62.667 127.18 62.7326 129.805 62.7387C133.466 62.7466 137.126 62.7116 140.788 62.674C142.695 62.6548 144.602 62.6024 146.51 62.5429C148.555 62.4809 150.6 62.3952 152.645 62.3192C152.914 62.3095 153.183 62.2964 153.451 62.2886C153.516 62.2961 153.581 62.2788 153.633 62.2401C153.685 62.2015 153.721 62.1445 153.733 62.0805C141.234 62.6163 128.748 62.7405 116.261 62.23C116.284 62.1089 116.299 61.9866 116.307 61.8638C116.312 61.2353 116.307 60.6086 116.307 59.9662C116.569 59.8193 116.843 59.6891 117.093 59.5239C117.347 59.3548 117.653 59.2802 117.956 59.3132C119.119 59.3919 120.284 59.4408 121.448 59.4968C122.368 59.5379 123.289 59.5789 124.21 59.6078C125.922 59.6585 127.633 59.7036 129.344 59.7433C130.445 59.7669 131.546 59.7642 132.647 59.7843C132.744 59.7899 132.841 59.7695 132.927 59.7251C133.014 59.6806 133.087 59.6139 133.139 59.5317C133.081 59.523 133.022 59.5171 132.964 59.5143C131.766 59.4985 130.566 59.4968 129.369 59.4679C127.282 59.4155 125.195 59.3546 123.11 59.2852C121.862 59.2433 120.617 59.1804 119.371 59.1227C118.776 59.0956 118.182 59.0589 117.587 59.0256C117.428 59.0178 117.428 59.0143 117.433 58.8255L122.709 59.0877C122.709 58.884 122.709 58.6987 122.718 58.5161C122.719 58.306 122.793 58.103 122.928 57.9416C123.062 57.7802 123.249 57.6706 123.455 57.6315C123.559 57.6148 123.666 57.6095 123.771 57.6158C125.59 57.6315 127.408 57.6478 129.226 57.6647H129.509C129.528 55.8431 129.545 54.0452 129.563 52.2157H129.251C126.731 52.2044 124.211 52.1982 121.692 52.1843C121.222 52.1843 120.749 52.2271 120.268 52.1379" fill="white"/>
<path d="M116.179 59.8796V60.8585C116.179 61.1924 116.174 61.5246 116.179 61.8594C116.184 61.9156 116.177 61.9722 116.157 62.025C116.137 62.0778 116.105 62.1255 116.065 62.1644C115.953 62.2676 115.852 62.3838 115.704 62.5411V61.4267H115.163C115.23 61.3127 115.334 61.2257 115.458 61.1811C115.65 61.0858 115.72 60.9521 115.704 60.7344C115.683 60.3848 115.698 60.0352 115.698 59.6934C115.506 59.5841 115.328 59.4871 115.156 59.3805C115.111 59.3534 115.086 59.2931 115.041 59.2354C115.21 59.0763 115.205 58.8587 115.243 58.655C115.258 58.5755 115.264 58.4942 115.285 58.4146C115.304 58.2967 115.365 58.1897 115.457 58.1131C115.548 58.0365 115.665 57.9955 115.784 57.9977C116.094 57.9916 116.403 57.9898 116.713 57.9977C116.854 57.9966 116.989 58.0495 117.092 58.1455C117.194 58.2415 117.256 58.3732 117.264 58.5134C117.28 58.6751 117.283 58.8377 117.289 59.0003C117.289 59.0815 117.289 59.162 117.289 59.2625C116.925 59.4644 116.556 59.6681 116.177 59.8796" fill="white"/>
<path d="M131.619 46.105C131.402 46.0272 131.182 45.9477 130.933 45.855C130.955 45.9748 130.968 46.0526 130.984 46.1303C131.158 46.8925 131.33 47.655 131.499 48.4178C131.674 49.2045 131.854 49.9911 132.037 50.7778C132.048 50.8563 132.087 50.9281 132.147 50.9797C132.291 51.047 132.439 51.1028 132.592 51.1467C132.263 49.4448 131.943 47.785 131.619 46.1085M130.02 45.5185C130.034 45.6059 130.04 45.6514 130.05 45.6933C130.291 46.7661 130.531 47.8386 130.772 48.9108C130.884 49.4099 130.995 49.9116 131.113 50.4107C131.125 50.4963 131.166 50.5751 131.229 50.6336C131.372 50.7026 131.52 50.7597 131.672 50.804C131.663 50.7341 131.66 50.7035 131.655 50.6729C131.496 49.8233 131.338 48.9755 131.178 48.1276C131.041 47.4004 130.898 46.6732 130.766 45.9424C130.763 45.8905 130.744 45.8407 130.711 45.8001C130.679 45.7595 130.634 45.7301 130.584 45.716C130.409 45.6592 130.235 45.591 130.02 45.5132M130.769 50.4544C130.753 50.3495 130.745 50.27 130.731 50.1922C130.561 49.2651 130.391 48.3374 130.221 47.4091C130.109 46.8095 129.999 46.2099 129.885 45.6103C129.872 45.5465 129.839 45.4538 129.791 45.4355C129.581 45.3428 129.361 45.2729 129.119 45.1837C129.135 45.2886 129.141 45.3524 129.156 45.4145C129.486 46.8888 129.818 48.3642 130.15 49.8408C130.256 50.3119 130.258 50.3102 130.769 50.4579M139.059 48.7001C139.05 48.6424 139.045 48.6127 139.039 48.5821C138.888 47.9056 138.736 47.2305 138.585 46.5569C138.377 45.6356 138.168 44.7143 137.957 43.7931C137.941 43.7266 137.916 43.6322 137.87 43.6086C137.661 43.5082 137.443 43.4277 137.219 43.3683C137.235 43.4452 137.243 43.4828 137.252 43.5212C137.616 45.0165 137.979 46.5114 138.342 48.0061C138.467 48.5183 138.465 48.5201 138.96 48.6835C138.993 48.6921 139.027 48.6977 139.061 48.7001M136.264 43.0038C136.284 43.12 136.294 43.1987 136.313 43.2747L136.925 45.8358C137.094 46.5397 137.265 47.243 137.437 47.9458C137.457 48.0332 137.449 48.1285 137.561 48.1669C137.728 48.2229 137.891 48.2858 138.085 48.3575C138.073 48.2814 138.066 48.2351 138.058 48.1888L137.338 44.9241C137.23 44.439 137.125 43.9539 137.014 43.4714C136.995 43.3892 136.961 43.2765 136.9 43.2459C136.708 43.1524 136.498 43.0903 136.261 43.002M135.306 42.6681C135.316 42.7319 135.32 42.78 135.331 42.8246L135.698 44.3673C135.961 45.4416 136.212 46.5167 136.474 47.5909C136.491 47.6644 136.526 47.7657 136.581 47.7911C136.758 47.8699 136.938 47.9391 137.122 47.9982C137.108 47.9038 137.105 47.8584 137.095 47.8121C136.784 46.3832 136.471 44.9538 136.156 43.5239C136.109 43.3123 136.041 43.1078 135.981 42.8989L135.364 42.6734C135.344 42.6697 135.325 42.6679 135.305 42.6681M139.763 44.1462L139.369 42.4278C139.122 41.3585 138.876 40.2889 138.631 39.219C138.614 39.1509 138.592 39.0442 138.544 39.0285C138.326 38.9205 138.096 38.8398 137.858 38.7881C137.877 38.8755 137.886 38.9411 137.902 39.0031C138.15 39.9973 138.399 40.9911 138.648 41.9846C138.792 42.5597 138.933 43.1375 139.085 43.7118C139.108 43.7992 139.103 43.9111 139.223 43.9504C139.39 44.0081 139.555 44.0702 139.765 44.1462M134.352 42.2932C134.373 42.4059 134.385 42.4837 134.403 42.5615C134.606 43.4257 134.81 44.2893 135.015 45.1523C135.179 45.8515 135.343 46.5455 135.51 47.2422C135.526 47.3095 135.554 47.4013 135.606 47.4257C135.781 47.5079 135.961 47.5656 136.173 47.6451C136.153 47.5236 136.142 47.4458 136.126 47.368C135.899 46.3104 135.671 45.2525 135.443 44.1943C135.338 43.6995 135.232 43.2057 135.119 42.7145C135.114 42.6799 135.102 42.6466 135.085 42.6166C135.067 42.5865 135.043 42.5604 135.015 42.5396C134.81 42.4522 134.595 42.3779 134.353 42.2888M135.227 47.271C135.21 47.1687 135.2 47.091 135.184 47.0088C134.964 45.9599 134.743 44.911 134.522 43.8621C134.422 43.3831 134.325 42.9059 134.22 42.4304C134.203 42.3473 134.169 42.2328 134.108 42.204C133.894 42.1044 133.664 42.0344 133.409 41.9418C133.433 42.0624 133.448 42.1419 133.465 42.2189C133.803 43.6605 134.14 45.1007 134.478 46.5394C134.519 46.7142 134.525 46.9293 134.633 47.0438C134.741 47.1583 134.967 47.1923 135.14 47.2605C135.155 47.2605 135.172 47.2605 135.227 47.2701M132.483 41.593C132.505 41.7093 132.514 41.7809 132.531 41.8509C132.779 42.9219 133.028 43.9921 133.278 45.0614C133.393 45.5535 133.504 46.0464 133.628 46.5368C133.639 46.6139 133.68 46.6838 133.74 46.7326C133.915 46.813 134.09 46.8672 134.306 46.9441C134.285 46.8217 134.274 46.7422 134.258 46.6635C134.171 46.2347 134.083 45.804 133.996 45.3716C133.767 44.2645 133.538 43.1573 133.31 42.0502C133.292 41.9628 133.275 41.8815 133.168 41.8448C132.954 41.7731 132.742 41.6892 132.491 41.5965M137.512 33.798C137.532 33.8933 137.538 33.9318 137.548 33.9728C137.734 34.7062 137.919 35.4395 138.106 36.1711C138.329 37.0452 138.55 37.9193 138.778 38.7934C138.792 38.8698 138.833 38.9384 138.894 38.9865C139.069 39.0739 139.264 39.1299 139.476 39.2077C139.464 39.1264 139.459 39.0879 139.451 39.0503C139.279 38.3039 139.108 37.5586 138.937 36.8145C138.741 35.9666 138.546 35.1193 138.35 34.2726C138.331 34.1852 138.323 34.0978 138.217 34.0602C137.995 33.9824 137.78 33.8985 137.512 33.798ZM138.829 43.7992C138.807 43.6777 138.797 43.606 138.781 43.537L137.798 39.2304C137.757 39.0556 137.759 38.8388 137.652 38.7217C137.545 38.6046 137.324 38.5609 137.15 38.497C137.074 38.4682 136.996 38.3983 136.896 38.4568C137.071 39.1666 137.245 39.8702 137.42 40.573L138.107 43.37C138.13 43.4574 138.136 43.5448 138.243 43.5815C138.427 43.6454 138.607 43.717 138.832 43.8001M133.383 46.5787C133.366 46.4791 133.352 46.3926 133.335 46.3052C133.113 45.205 132.891 44.1037 132.667 43.0012C132.58 42.5772 132.498 42.1542 132.41 41.7329C132.393 41.6455 132.388 41.5528 132.28 41.5161C132.053 41.4366 131.825 41.3509 131.572 41.2591C131.585 41.357 131.589 41.4287 131.605 41.4977C131.937 42.9341 132.269 44.3703 132.603 45.8061C132.646 45.9931 132.652 46.2291 132.77 46.3532C132.888 46.4774 133.135 46.5123 133.324 46.5857C133.343 46.5846 133.363 46.5823 133.383 46.5787ZM135.934 38.0469C135.952 38.1518 135.958 38.2069 135.971 38.261C136.154 39.0119 136.339 39.7618 136.522 40.5127C136.722 41.3355 136.923 42.158 137.123 42.9802C137.142 43.0554 137.166 43.1664 137.218 43.1917C137.426 43.2943 137.645 43.3718 137.87 43.4225C137.851 43.3211 137.841 43.2476 137.825 43.1803C137.622 42.2678 137.418 41.3547 137.213 40.441C137.07 39.8064 136.926 39.1715 136.782 38.5364C136.76 38.4429 136.757 38.3423 136.639 38.303C136.416 38.2261 136.197 38.1422 135.94 38.0469M136.919 43.0886C136.907 43.0108 136.904 42.9732 136.896 42.9347C136.684 41.982 136.473 41.0284 136.261 40.0739C136.122 39.4472 135.986 38.8187 135.841 38.192C135.822 38.1125 135.784 38.0023 135.722 37.9743C135.489 37.8677 135.245 37.7882 134.963 37.6824C135.383 39.4262 135.792 41.1236 136.202 42.8228L136.919 43.0851M138.54 38.8388C138.531 38.775 138.53 38.7357 138.52 38.6955C138.308 37.7759 138.097 36.8552 137.886 35.9334C137.731 35.2603 137.574 34.5864 137.416 33.9116C137.399 33.8461 137.366 33.7561 137.317 33.7368C137.069 33.6302 136.813 33.5428 136.531 33.4379C136.544 33.5139 136.547 33.5463 136.553 33.576C136.92 35.0445 137.289 36.5129 137.659 37.9813C137.711 38.1929 137.786 38.3983 137.849 38.6054L138.468 38.8344C138.491 38.8381 138.515 38.8401 138.538 38.8406M132.8 39.5678C132.827 39.6008 132.849 39.6376 132.866 39.677C133.013 40.295 133.164 40.9121 133.303 41.531C133.343 41.711 133.414 41.8185 133.599 41.8649C133.783 41.9199 133.963 41.9847 134.14 42.0589C133.886 40.8501 133.642 39.6744 133.395 38.5005L133.438 38.4909C133.525 38.8406 133.613 39.1841 133.692 39.5311C133.878 40.3177 134.066 41.1044 134.241 41.8911C134.251 41.9704 134.285 42.0446 134.34 42.1032C134.394 42.1618 134.465 42.2016 134.544 42.2171C134.706 42.2599 134.86 42.3316 135.05 42.4015C135.032 42.2914 135.023 42.2119 135.005 42.1393C134.692 40.6744 134.378 39.2097 134.063 37.7453C134.045 37.6579 134.038 37.5705 134.025 37.4831C134.049 37.5342 134.069 37.5868 134.086 37.6405C134.266 38.3817 134.446 39.1241 134.625 39.8676C134.821 40.6822 135.013 41.4986 135.212 42.315C135.225 42.3917 135.267 42.4605 135.329 42.5073C135.531 42.6017 135.744 42.6699 135.99 42.7617C135.888 42.2879 135.796 41.8596 135.702 41.4339C135.441 40.2324 135.179 39.032 134.915 37.8328C134.901 37.7681 134.868 37.6772 134.816 37.6579C134.568 37.546 134.311 37.4508 134.05 37.373C134.04 37.4315 134.036 37.4648 134.031 37.4971C134.013 37.4407 133.981 37.3895 133.939 37.3483C133.897 37.3071 133.845 37.2771 133.788 37.2611C132.343 36.7314 130.901 36.1965 129.46 35.6563C129.364 35.6247 129.276 35.5725 129.202 35.5033C129.242 35.4876 129.285 35.4544 129.319 35.4623C129.405 35.4857 129.489 35.5149 129.571 35.5497L133.625 37.0531C134.011 37.1964 134.397 37.338 134.816 37.4901C134.798 37.1213 134.664 36.797 134.659 36.4526C134.733 36.7506 134.807 37.0478 134.878 37.3459C134.884 37.406 134.908 37.4628 134.947 37.5087C134.986 37.5546 135.039 37.5875 135.097 37.6029C135.307 37.6649 135.51 37.7497 135.76 37.8406C135.586 37.0478 135.423 36.2926 135.258 35.5348L135.297 35.5269C135.431 36.0759 135.566 36.623 135.701 37.1719C135.751 37.3712 135.795 37.5697 135.85 37.7654C135.864 37.8161 135.892 37.8852 135.932 37.9009C136.17 37.9997 136.411 38.0854 136.694 38.1902C136.419 36.9622 136.155 35.783 135.889 34.6065L135.932 34.5969C136.052 35.0753 136.171 35.5529 136.288 36.0295C136.454 36.7026 136.621 37.3739 136.781 38.0469C136.789 38.1109 136.815 38.1711 136.858 38.2194C136.9 38.2677 136.957 38.3018 137.019 38.317C137.211 38.3712 137.396 38.4525 137.623 38.5364C137.559 38.2488 137.509 38.0049 137.448 37.7602C137.14 36.4028 136.829 35.0506 136.526 33.687C136.513 33.601 136.475 33.5208 136.416 33.4561C136.358 33.3914 136.282 33.345 136.198 33.3225C134.517 32.7107 132.839 32.0805 131.161 31.4555C131.08 31.4249 131 31.3934 130.87 31.341C130.957 31.2964 130.994 31.2615 131.027 31.2641C131.083 31.2749 131.138 31.2925 131.19 31.3165C132.822 31.9249 134.455 32.5318 136.09 33.1372C136.488 33.2832 136.877 33.4501 137.323 33.5874C137.197 32.8968 137.016 32.2413 136.909 31.57C136.961 31.7605 137.016 31.9502 137.065 32.1408C137.18 32.5831 137.298 33.0236 137.403 33.4659C137.409 33.5219 137.431 33.5748 137.468 33.6177C137.504 33.6605 137.553 33.6914 137.607 33.7062C137.81 33.7683 138.005 33.8496 138.247 33.9387C138.123 33.2832 137.962 32.6687 137.822 32.049C137.683 31.4293 137.543 30.8174 137.446 30.1907C137.579 30.6977 137.714 31.2073 137.846 31.716C138.03 32.4152 138.214 33.1145 138.389 33.8207C138.399 33.8837 138.428 33.9421 138.471 33.9888C138.514 34.0355 138.571 34.0682 138.633 34.083C138.801 34.1337 138.967 34.201 139.17 34.2744C139.095 33.937 139.03 33.6381 138.961 33.3383C138.66 32.0271 138.349 30.7213 138.058 29.4102C138.046 29.3275 138.01 29.2502 137.954 29.188C137.898 29.1258 137.825 29.0815 137.745 29.0605C136.103 28.4557 134.462 27.8473 132.822 27.2355C132.734 27.2022 132.647 27.1638 132.504 27.1052C132.596 27.065 132.635 27.0318 132.668 27.0379C132.739 27.0533 132.808 27.0759 132.874 27.1052C134.478 27.7013 136.08 28.2972 137.682 28.8927C137.758 28.9216 137.836 28.9443 137.944 28.9801C137.909 28.8001 137.88 28.6453 137.85 28.4915L137.879 28.4836C137.922 28.6056 137.958 28.7299 137.986 28.856C137.993 28.9121 138.017 28.9645 138.056 29.0061C138.094 29.0476 138.145 29.0761 138.2 29.0876C138.405 29.1549 138.607 29.231 138.861 29.3219C138.663 28.4548 138.479 27.6419 138.294 26.8273L138.326 26.8177C138.361 26.9357 138.401 27.0528 138.432 27.1725C138.615 27.8386 138.8 28.5055 138.976 29.175C139.016 29.3297 139.078 29.4373 139.247 29.4792C139.403 29.5177 139.551 29.5841 139.753 29.654C139.418 28.1742 139.094 26.7364 138.768 25.2968L138.808 25.2854C138.83 25.3536 138.857 25.4218 138.877 25.4917C139.185 26.5799 139.497 27.669 139.798 28.7598C139.846 28.9569 139.874 29.1584 139.88 29.3612C139.895 29.5631 139.88 29.7685 139.88 30.0325C139.717 29.6733 139.382 29.7257 139.11 29.5553C139.117 29.6296 139.128 29.7034 139.143 29.7764C139.35 30.5465 139.557 31.3183 139.773 32.0866C139.852 32.3437 139.888 32.6116 139.882 32.8802C139.884 33.0928 139.87 33.3052 139.84 33.5157C139.826 33.4755 139.808 33.437 139.799 33.3977C139.519 32.1819 139.238 30.9686 138.965 29.7528C138.924 29.5684 138.85 29.4504 138.66 29.4032C138.469 29.356 138.299 29.2773 138.078 29.1978C138.12 29.3603 138.152 29.4845 138.184 29.6086C138.586 31.1199 138.992 32.6294 139.387 34.1424C139.432 34.3172 139.508 34.4274 139.688 34.4763C139.839 34.5165 139.834 34.5287 139.862 34.6695L139.513 34.5725C139.594 34.881 139.653 35.1668 139.747 35.4395C139.938 35.9911 139.879 36.5557 139.841 37.1256C139.817 37.0382 139.788 36.9456 139.767 36.8555C139.6 36.1248 139.429 35.395 139.268 34.6625C139.26 34.5916 139.231 34.5248 139.184 34.4711C139.137 34.4173 139.075 34.3792 139.006 34.3618C138.845 34.319 138.69 34.249 138.495 34.1756C138.552 34.4055 138.597 34.5926 138.645 34.7805C139.02 36.2218 139.373 37.671 139.781 39.1045C139.938 39.6569 139.839 40.1997 139.856 40.753C139.838 40.716 139.823 40.6778 139.81 40.6385C139.723 40.2889 139.635 39.9436 139.571 39.5896C139.564 39.5215 139.536 39.4575 139.49 39.4068C139.444 39.3562 139.382 39.3216 139.315 39.3082C139.177 39.2697 139.043 39.2094 138.871 39.1456C138.892 39.2522 138.902 39.3204 138.919 39.3895C139.211 40.5345 139.502 41.679 139.793 42.8228C139.863 43.0744 139.895 43.3346 139.89 43.5955C139.883 43.8709 139.89 44.1462 139.89 44.4626C139.716 44.21 139.446 44.2354 139.206 44.1322C139.221 44.2056 139.231 44.2799 139.249 44.3534C139.431 45.0806 139.611 45.8078 139.797 46.5333C139.865 46.7851 139.897 47.0452 139.892 47.306C139.884 47.5988 139.892 47.8916 139.859 48.194C139.84 48.1606 139.824 48.1255 139.811 48.0892C139.516 46.8016 139.219 45.5159 138.937 44.2292C138.894 44.0396 138.814 43.9286 138.627 43.8796C138.493 43.8446 138.364 43.7922 138.207 43.7336C138.221 43.821 138.227 43.8779 138.243 43.939C138.631 45.5205 139.019 47.1023 139.406 48.6844C139.415 48.7474 139.443 48.8062 139.487 48.853C139.53 48.8998 139.586 48.9325 139.648 48.9466C139.712 48.9612 139.773 48.9847 139.829 49.0165C139.86 49.0358 139.869 49.0882 139.911 49.1695L139.522 49.0602C139.529 49.1242 139.538 49.1878 139.551 49.2508C139.633 49.6004 139.711 49.9501 139.808 50.2927C139.905 50.6353 139.896 51.0007 139.889 51.3783C139.818 51.3783 139.761 51.3879 139.684 51.394C139.579 50.9369 139.48 50.4937 139.377 50.0514C139.303 49.7167 139.224 49.3845 139.154 49.0489C139.149 49.0007 139.13 48.9551 139.099 48.9182C139.068 48.8814 139.026 48.8553 138.979 48.8435C138.841 48.8024 138.705 48.7447 138.523 48.6765C138.718 49.6057 138.965 50.4806 139.162 51.3862H138.796C138.78 51.3372 138.755 51.2795 138.74 51.2192C138.557 50.4002 138.375 49.5821 138.198 48.7613C138.164 48.6049 138.106 48.4991 137.936 48.4589C137.799 48.4176 137.665 48.3689 137.534 48.3129C137.784 49.3618 138.023 50.36 138.271 51.3827H137.882L137.567 49.9509C137.451 49.4177 137.333 48.8854 137.218 48.3522C137.213 48.2959 137.19 48.2425 137.153 48.2001C137.115 48.1577 137.065 48.1286 137.009 48.1171C136.878 48.0787 136.747 48.0227 136.583 47.9607C136.63 48.3715 136.758 48.7368 136.834 49.1109C136.91 49.4851 137.014 49.8557 137.101 50.228C137.189 50.6004 137.281 50.9867 137.375 51.3862H137C136.982 51.3206 136.955 51.2463 136.94 51.1703C136.721 50.1581 136.498 49.1477 136.296 48.1329C136.25 47.9065 136.17 47.764 135.935 47.7177C135.821 47.6843 135.708 47.6443 135.598 47.5979C135.902 48.8819 136.193 50.1214 136.49 51.3827H136.106C136.021 50.987 135.937 50.5905 135.852 50.1931C135.677 49.3478 135.491 48.5052 135.321 47.6582C135.316 47.5984 135.291 47.5417 135.252 47.4963C135.213 47.451 135.16 47.4192 135.101 47.4056C134.963 47.3645 134.83 47.3104 134.648 47.2465C134.976 48.6451 135.293 50.0086 135.615 51.3862H135.233C135.181 51.1414 135.124 50.8897 135.072 50.6371C134.843 49.5296 134.612 48.4204 134.389 47.3103C134.385 47.254 134.364 47.2003 134.328 47.1566C134.293 47.1129 134.244 47.0814 134.19 47.0665C134.044 47.0219 133.9 46.9651 133.71 46.8917C134.042 48.4047 134.409 49.8758 134.74 51.3783H134.358C134.284 51.0103 134.211 50.6449 134.136 50.2787C133.912 49.1774 133.685 48.0769 133.468 46.9738C133.441 46.8357 133.394 46.7527 133.256 46.7116C133.118 46.6705 132.965 46.6093 132.777 46.5412C132.952 47.3733 133.146 48.1634 133.324 48.9597C133.503 49.756 133.692 50.5619 133.881 51.3792H133.503C133.455 51.1563 133.406 50.9273 133.361 50.6983C133.094 49.3487 132.828 47.998 132.564 46.6461C132.537 46.5062 132.486 46.4109 132.337 46.369C132.187 46.327 132.034 46.2658 131.846 46.1994C131.918 46.5202 131.978 46.8034 132.044 47.0866C132.349 48.4268 132.656 49.7671 132.965 51.1073C132.996 51.2022 133.034 51.2943 133.08 51.3827C132.888 51.3984 132.696 51.4098 132.516 51.2743C132.422 51.2061 132.292 51.1869 132.157 51.1379V51.3713H131.81C131.792 51.3421 131.78 51.3097 131.775 51.276C131.775 51.0199 131.625 50.9011 131.394 50.853C131.342 50.8416 131.29 50.8224 131.21 50.8005C131.23 50.915 131.246 51.0086 131.263 51.1012C131.281 51.1939 131.298 51.276 131.319 51.3765H130.952C130.918 51.1965 130.875 51.0269 130.853 50.8521C130.854 50.7827 130.83 50.7154 130.785 50.6624C130.74 50.6094 130.678 50.5744 130.61 50.5637C130.503 50.533 130.398 50.4968 130.295 50.4553C130.36 50.7769 130.419 51.0671 130.483 51.3765H130.117C130.07 51.1204 130.006 50.8661 129.981 50.61C129.959 50.3827 129.87 50.249 129.643 50.2062C129.557 50.184 129.472 50.1563 129.389 50.1231C129.484 50.5602 129.569 50.9614 129.659 51.38H129.298C129.265 51.2052 129.228 51.0304 129.195 50.8451C129.156 50.6213 129.116 50.3967 129.086 50.1712C129.084 50.1103 129.061 50.052 129.021 50.0059C128.982 49.9598 128.927 49.9287 128.867 49.9177C128.751 49.888 128.642 49.8382 128.487 49.7814C128.609 50.3303 128.72 50.8434 128.837 51.3765H128.472C128.42 51.0697 128.366 50.7577 128.313 50.4474C128.278 50.2376 128.238 50.0296 128.211 49.8207C128.211 49.7719 128.194 49.7245 128.164 49.6864C128.133 49.6482 128.091 49.6216 128.043 49.6109C127.912 49.5725 127.781 49.5183 127.611 49.4562C127.723 50.1214 127.902 50.7358 128.017 51.3792H127.661C127.553 50.7157 127.443 50.0445 127.33 49.3522L126.727 49.1249C126.862 49.9029 127.07 50.6266 127.206 51.3809H126.856C126.802 51.0374 126.75 50.6939 126.695 50.3495C126.635 49.9632 126.571 49.5768 126.521 49.1905C126.52 49.1421 126.503 49.0954 126.472 49.0578C126.441 49.0203 126.399 48.9941 126.352 48.9833C126.191 48.9335 126.035 48.8688 125.834 48.7937C126.032 49.6756 126.222 50.5138 126.414 51.3748H126.064C126.033 51.1851 125.997 50.9876 125.969 50.7892C125.882 50.1773 125.794 49.5655 125.707 48.9536C125.688 48.7989 125.635 48.7001 125.473 48.659C125.31 48.618 125.156 48.5524 124.948 48.479C125.175 49.4754 125.391 50.4221 125.612 51.3862H125.262C125.131 50.4151 125 49.4431 124.864 48.444C124.372 48.2578 123.874 48.0699 123.373 47.8829C123.408 47.7518 123.475 47.7745 123.548 47.8016L124.487 48.1512C124.577 48.1889 124.67 48.2219 124.764 48.25C124.787 48.257 124.822 48.2229 124.851 48.2106C125.046 48.4344 125.352 48.4362 125.638 48.5874C125.593 48.2325 125.55 47.9222 125.514 47.611L125.547 47.6058C125.613 47.889 125.69 48.1687 125.743 48.4554C125.747 48.5114 125.769 48.5646 125.805 48.6077C125.842 48.6507 125.89 48.6815 125.945 48.6958C126.105 48.7447 126.263 48.8068 126.459 48.8758C126.366 48.2474 126.277 47.6521 126.189 47.063L126.236 47.0542C126.321 47.4289 126.407 47.8042 126.492 48.1801C126.54 48.3933 126.579 48.6101 126.639 48.8234C126.656 48.8907 126.697 48.9495 126.754 48.9886C126.915 49.062 127.085 49.1127 127.295 49.187C127.136 48.1879 126.983 47.2256 126.831 46.265C126.843 46.265 126.856 46.2597 126.87 46.2571C126.958 46.6338 127.045 47.0105 127.126 47.3881C127.257 47.9668 127.389 48.5463 127.514 49.1284C127.519 49.1804 127.54 49.2294 127.575 49.2687C127.609 49.308 127.655 49.3356 127.706 49.3478C127.842 49.3906 127.974 49.4448 128.143 49.5069C127.925 48.201 127.715 46.9345 127.505 45.6697L127.549 45.6601C127.617 45.9512 127.687 46.2405 127.75 46.5342C127.966 47.4957 128.187 48.4571 128.388 49.4186C128.394 49.4825 128.419 49.543 128.461 49.5916C128.503 49.6401 128.559 49.6744 128.622 49.6896C128.738 49.7228 128.849 49.7674 129.004 49.8224C128.725 48.1573 128.451 46.5298 128.178 44.9031C128.207 44.9595 128.232 45.0179 128.253 45.078C128.498 46.1741 128.742 47.2696 128.985 48.3645C129.086 48.826 129.185 49.2875 129.291 49.7473C129.311 49.8347 129.303 49.9457 129.429 49.9841C129.555 50.0226 129.7 50.0829 129.866 50.145C129.854 50.0445 129.85 49.9745 129.837 49.9064L129.47 47.8392C129.32 46.9983 129.169 46.1574 129.022 45.3166C129.019 45.26 128.998 45.2059 128.962 45.1622C128.926 45.1186 128.877 45.0878 128.822 45.0745C128.673 45.0343 128.534 44.9626 128.385 44.9189C128.316 44.9057 128.247 44.9012 128.177 44.9058C128.139 44.7948 128.032 44.7834 127.943 44.7511C127.188 44.4696 126.433 44.1893 125.676 43.9102C125.595 43.8779 125.514 43.8429 125.391 43.7922C125.466 43.752 125.504 43.7127 125.536 43.717C125.607 43.7328 125.677 43.7554 125.744 43.7843C126.454 44.0483 127.164 44.3105 127.873 44.571C127.956 44.6064 128.045 44.624 128.135 44.6226C128.213 44.6226 128.292 44.7178 128.377 44.7572C128.462 44.7965 128.573 44.835 128.673 44.8717C128.748 44.8988 128.826 44.9233 128.94 44.9591C128.899 44.6916 128.864 44.4565 128.829 44.2214C128.84 44.2214 128.851 44.2161 128.864 44.2144C128.913 44.4233 128.971 44.6313 129.01 44.842C129.014 44.8939 129.034 44.9434 129.067 44.9835C129.101 45.0236 129.146 45.0523 129.196 45.0657C129.39 45.1278 129.578 45.203 129.808 45.2869C129.69 44.6366 129.579 44.016 129.468 43.3954C129.48 43.3936 129.492 43.391 129.504 43.3875C129.555 43.5973 129.608 43.8071 129.655 44.0195C129.742 44.3909 129.83 44.7633 129.903 45.1391C129.91 45.2077 129.938 45.2723 129.984 45.3235C130.03 45.3748 130.091 45.41 130.158 45.4241C130.32 45.4687 130.478 45.5351 130.683 45.6085C130.486 44.5535 130.295 43.5352 130.106 42.5169L130.143 42.5091C130.276 43.0918 130.409 43.6745 130.543 44.2572C130.64 44.6776 130.741 45.0972 130.828 45.5211C130.833 45.5731 130.855 45.6221 130.889 45.6614C130.924 45.7007 130.97 45.7283 131.02 45.7405C131.189 45.793 131.355 45.8594 131.568 45.938C131.305 44.5535 131.043 43.2092 130.781 41.8649L130.824 41.8552C130.924 42.2882 131.025 42.7209 131.126 43.1532C131.326 44.0352 131.528 44.9163 131.724 45.7991C131.759 45.9555 131.817 46.0613 131.986 46.105C132.144 46.1503 132.298 46.2037 132.45 46.265C132.427 46.1225 132.411 46.0027 132.388 45.8847C132.097 44.4067 131.803 42.9295 131.514 41.4497C131.504 41.375 131.472 41.3049 131.422 41.2485C131.372 41.1921 131.307 41.152 131.234 41.1333C130.027 40.6962 128.822 40.2417 127.616 39.7933C127.528 39.7618 127.441 39.7234 127.299 39.6648C127.393 39.6264 127.433 39.5931 127.468 39.5975C127.539 39.6141 127.609 39.637 127.676 39.6657C128.836 40.0975 129.996 40.5281 131.156 40.9576C131.237 40.9882 131.321 41.0738 131.418 40.9943C131.426 40.9882 131.449 40.9838 131.453 40.9882C131.663 41.2504 131.998 41.2268 132.308 41.4016C132.229 40.9978 132.161 40.6508 132.095 40.3038L132.137 40.2941C132.206 40.5852 132.287 40.8754 132.341 41.1682C132.378 41.3579 132.458 41.4689 132.651 41.5179C132.83 41.5717 133.005 41.6353 133.176 41.7084C133.175 41.6382 133.169 41.5681 133.158 41.4986C133.04 40.9244 132.92 40.3501 132.802 39.7758C132.789 39.7035 132.78 39.6306 132.775 39.5573L132.8 39.5678Z" fill="white"/>
<path d="M139.438 24.6973C139.357 24.3031 139.285 23.9517 139.212 23.6003L139.263 23.589C139.351 23.8914 139.444 24.193 139.532 24.4954C139.578 24.6545 139.611 24.8135 139.817 24.845C139.847 24.845 139.866 24.9114 139.909 24.9709H139.724C139.713 24.9831 139.702 24.9892 139.704 24.9927C139.838 25.4813 139.955 25.9699 139.867 26.5005C139.845 26.4644 139.827 26.426 139.813 26.386C139.716 25.9568 139.613 25.5303 139.535 25.0976C139.527 25.0225 139.496 24.9516 139.446 24.8945C139.397 24.8373 139.331 24.7966 139.258 24.7777C137.626 24.1781 135.995 23.5729 134.363 22.9623C134.276 22.9308 134.169 22.9273 134.121 22.8303C134.158 22.7228 134.229 22.7656 134.284 22.7848C134.514 22.867 134.742 22.9544 134.971 23.0392C136.373 23.5636 137.776 24.0849 139.18 24.6029L139.442 24.6964" fill="white"/>
<path d="M135.628 18.4651C135.7 18.4879 135.762 18.5018 135.822 18.5246C137.109 19.0036 138.396 19.4828 139.684 19.9624C139.764 19.993 139.89 19.9869 139.88 20.1521C139.836 20.1499 139.791 20.1429 139.748 20.1311C138.414 19.6381 137.081 19.1428 135.749 18.6452C135.686 18.6216 135.568 18.6242 135.628 18.4634" fill="white"/>
<path d="M124.238 48.8767C124.434 49.7027 124.632 50.5278 124.832 51.3748H124.502C124.383 50.5549 124.296 49.7184 124.24 48.8767" fill="white"/>
<path d="M139.87 15.3446C139.52 15.2178 139.205 15.1016 138.887 14.9836C138.308 14.7686 137.729 14.5544 137.152 14.3359C137.091 14.3123 136.968 14.3184 137.028 14.1689C137.071 14.1721 137.114 14.1797 137.156 14.1917C138.009 14.5063 138.863 14.8228 139.716 15.1409C139.791 15.1698 139.897 15.1776 139.87 15.3446Z" fill="white"/>
<path d="M123.56 49.5L124.034 51.3723H123.715C123.647 50.7473 123.581 50.1285 123.514 49.5096L123.56 49.5Z" fill="white"/>
<path d="M138.388 9.80469C138.877 9.99873 139.374 10.1945 139.869 10.3929C139.878 10.3982 139.876 10.4375 139.882 10.4803C139.843 10.4861 139.804 10.4861 139.765 10.4803C139.33 10.3213 138.895 10.1601 138.461 9.99698C138.391 9.96989 138.287 9.95066 138.388 9.80906" fill="white"/>
<path d="M123.235 51.3766H122.939C122.902 50.9395 122.865 50.5208 122.828 50.096L122.875 50.0864C122.993 50.5095 123.113 50.9343 123.235 51.3766Z" fill="white"/>
<path d="M139.835 22.9184C139.757 22.5312 139.681 22.1449 139.604 21.7585C139.778 22.1257 139.947 22.4963 139.835 22.9184Z" fill="white"/>
<path d="M122.195 50.6992C122.267 50.9169 122.34 51.1363 122.42 51.374C122.332 51.3801 122.269 51.3827 122.177 51.388C122.166 51.1537 122.154 50.9326 122.145 50.7106C122.162 50.7106 122.178 50.7018 122.195 50.6992Z" fill="white"/>
<path d="M132.805 39.5616C132.773 39.4393 132.743 39.316 132.711 39.1937C132.728 39.192 132.744 39.1893 132.761 39.1858C132.775 39.3134 132.788 39.4393 132.8 39.566L132.805 39.5616Z" fill="white"/>
<path d="M150.998 32.3794C150.775 32.2588 150.561 32.1347 150.339 32.0219C149.752 31.7221 149.131 31.4924 148.49 31.3375C147.687 31.1391 146.874 30.9713 146.066 30.7921C145.978 30.7711 145.891 30.7519 145.811 30.7326C145.788 30.5963 145.859 30.6085 145.939 30.6251C146.314 30.6994 146.691 30.7667 147.065 30.8445C148.044 31.0508 149.014 31.2929 149.94 31.681C150.264 31.8078 150.575 31.964 150.869 32.1478C150.949 32.2002 151.044 32.2352 150.998 32.3794Z" fill="white"/>
<path d="M145.922 26.3823C145.98 26.3832 146.039 26.3876 146.097 26.3954C147.125 26.607 148.143 26.8552 149.109 27.2765C149.317 27.3639 149.519 27.4723 149.721 27.5842C149.781 27.6174 149.819 27.6891 149.903 27.7826C149.863 27.7847 149.824 27.7821 149.784 27.7747C148.919 27.2669 147.971 26.9811 147.007 26.7389C146.699 26.6629 146.388 26.6026 146.079 26.5335C146.006 26.5161 145.912 26.5196 145.928 26.3823" fill="white"/>
<path d="M145.781 22.2419C146.066 22.3084 146.32 22.3626 146.568 22.4264C147.202 22.5765 147.818 22.7963 148.403 23.0819C148.491 23.1274 148.605 23.1597 148.578 23.3074C148.555 23.3074 148.533 23.3035 148.511 23.2961C147.724 22.8652 146.871 22.6327 146.007 22.429C145.925 22.4106 145.802 22.436 145.786 22.2419" fill="white"/>
<path d="M143.133 53.8039L142.822 53.7707C142.793 53.2873 142.766 52.8092 142.734 52.3389C142.754 52.3389 142.771 52.3337 142.789 52.3311C142.9 52.8083 143.01 53.2873 143.13 53.8039" fill="white"/>
<path d="M145.45 17.9249C145.992 18.0624 146.519 18.2515 147.024 18.4896C147.111 18.5307 147.177 18.577 147.156 18.7046C147.098 18.6775 147.049 18.6539 146.999 18.6347C146.535 18.4599 146.07 18.2851 145.608 18.1102C145.538 18.0814 145.41 18.0971 145.451 17.9241" fill="white"/>
<path d="M145.639 14.1313C145.386 14.0229 145.165 13.9259 144.94 13.8332C144.924 13.8297 144.91 13.823 144.897 13.8135C144.885 13.804 144.875 13.7919 144.867 13.7781C144.86 13.7643 144.855 13.7491 144.854 13.7334C144.853 13.7178 144.855 13.702 144.86 13.6873C145.25 13.7572 145.566 13.9276 145.636 14.1313" fill="white"/>
</svg>
